<?plantuml 1.2026.1?><svg xmlns="http://www.w3.org/2000/svg" xmlns:xlink="http://www.w3.org/1999/xlink" contentStyleType="text/css" data-diagram-type="DESCRIPTION" height="628px" preserveAspectRatio="none" style="width:1787px;height:628px;background:#FFFFFF;" version="1.1" viewBox="0 0 1787 628" width="1787px" zoomAndPan="magnify"><title>team9214 ROS2 -&gt; RoboRIO interface (black box)</title><defs/><g><g class="title" data-source-line="5"><text fill="#000000" font-family="sans-serif" font-size="14" font-weight="bold" lengthAdjust="spacing" textLength="390.9404" x="691.1318" y="22.9951">team9214 ROS2 -&gt; RoboRIO interface (black box)</text></g><!--entity team_stack--><g class="entity" data-qualified-name="team_stack" data-source-line="11" id="ent0002"><rect fill="#F1F1F1" height="62.5938" rx="2.5" ry="2.5" style="stroke:#181818;stroke-width:0.5;" width="187.6494" x="7" y="290.0528"/><rect fill="#F1F1F1" height="10" style="stroke:#181818;stroke-width:0.5;" width="15" x="174.6494" y="295.0528"/><rect fill="#F1F1F1" height="2" style="stroke:#181818;stroke-width:0.5;" width="4" x="172.6494" y="297.0528"/><rect fill="#F1F1F1" height="2" style="stroke:#181818;stroke-width:0.5;" width="4" x="172.6494" y="301.0528"/><text fill="#000000" font-family="sans-serif" font-size="14" lengthAdjust="spacing" textLength="147.6494" x="22" y="323.0479">team9214 ROS stack</text><text fill="#000000" font-family="sans-serif" font-size="14" lengthAdjust="spacing" textLength="78.2715" x="22" y="339.3448">(black box)</text></g><!--entity cmd_bridge--><g class="entity" data-qualified-name="cmd_bridge" data-source-line="12" id="ent0003"><rect fill="#F1F1F1" height="62.5938" rx="2.5" ry="2.5" style="stroke:#181818;stroke-width:0.5;" width="180.1982" x="572.65" y="290.0528"/><rect fill="#F1F1F1" height="10" style="stroke:#181818;stroke-width:0.5;" width="15" x="732.8482" y="295.0528"/><rect fill="#F1F1F1" height="2" style="stroke:#181818;stroke-width:0.5;" width="4" x="730.8482" y="297.0528"/><rect fill="#F1F1F1" height="2" style="stroke:#181818;stroke-width:0.5;" width="4" x="730.8482" y="301.0528"/><text fill="#000000" font-family="sans-serif" font-size="14" lengthAdjust="spacing" textLength="140.1982" x="587.65" y="323.0479">cmd_vel_nt4_bridge</text><text fill="#000000" font-family="sans-serif" font-size="14" lengthAdjust="spacing" textLength="112.376" x="587.65" y="339.3448">(arena_bringup)</text></g><!--entity nt4--><g class="entity" data-qualified-name="nt4" data-source-line="13" id="ent0004"><path d="M1184.8,271.5528 C1184.8,261.5528 1253.613,261.5528 1253.613,261.5528 C1253.613,261.5528 1322.426,261.5528 1322.426,271.5528 L1322.426,313.1465 C1322.426,323.1465 1253.613,323.1465 1253.613,323.1465 C1253.613,323.1465 1184.8,323.1465 1184.8,313.1465 L1184.8,271.5528" fill="#F1F1F1" style="stroke:#181818;stroke-width:0.5;"/><path d="M1184.8,271.5528 C1184.8,281.5528 1253.613,281.5528 1253.613,281.5528 C1253.613,281.5528 1322.426,281.5528 1322.426,271.5528" fill="none" style="stroke:#181818;stroke-width:0.5;"/><text fill="#000000" font-family="sans-serif" font-size="14" lengthAdjust="spacing" textLength="117.626" x="1194.8" y="298.5479">NetworkTables 4</text><text fill="#000000" font-family="sans-serif" font-size="14" lengthAdjust="spacing" textLength="77.3213" x="1194.8" y="314.8448">Table: ROS</text></g><!--entity rio--><g class="entity" data-qualified-name="rio" data-source-line="14" id="ent0005"><rect fill="#F1F1F1" height="46.2969" rx="2.5" ry="2.5" style="stroke:#181818;stroke-width:0.5;" width="138.834" x="1642.37" y="269.2028"/><rect fill="#F1F1F1" height="10" style="stroke:#181818;stroke-width:0.5;" width="15" x="1761.204" y="274.2028"/><rect fill="#F1F1F1" height="2" style="stroke:#181818;stroke-width:0.5;" width="4" x="1759.204" y="276.2028"/><rect fill="#F1F1F1" height="2" style="stroke:#181818;stroke-width:0.5;" width="4" x="1759.204" y="280.2028"/><text fill="#000000" font-family="sans-serif" font-size="14" lengthAdjust="spacing" textLength="98.834" x="1657.37" y="302.1979">RoboRIO code</text></g><g class="entity" data-qualified-name="GMN15" data-source-line="28" id="ent0016"><path d="M1086.85,508.6528 L1086.85,564.0512 L1420.3769,564.0512 L1420.3769,518.6528 L1410.3769,508.6528 L1086.85,508.6528" fill="#FEFFDD" style="stroke:#181818;stroke-width:0.5;"/><path d="M1410.3769,508.6528 L1410.3769,518.6528 L1420.3769,518.6528 L1410.3769,508.6528" fill="#FEFFDD" style="stroke:#181818;stroke-width:1;"/><text fill="#000000" font-family="sans-serif" font-size="13" lengthAdjust="spacing" textLength="309.0356" x="1092.85" y="525.7197">Direction shown here is ROS2 -&gt; RoboRIO only.</text><text fill="#000000" font-family="sans-serif" font-size="13" lengthAdjust="spacing" textLength="312.5269" x="1092.85" y="540.8525">The reverse direction (NT4 -&gt; ROS robot_mode)</text><text fill="#000000" font-family="sans-serif" font-size="13" lengthAdjust="spacing" textLength="310.7178" x="1092.85" y="555.9853">is documented separately by nt4_mode_bridge.</text></g><!--link team_stack to cmd_bridge--><g class="link" data-entity-1="ent0002" data-entity-2="ent0003" data-link-type="dependency" data-source-line="16" id="lnk6"><path d="M194.91,321.3528 C299.87,321.3528 463.3,321.3528 566.6,321.3528" fill="none" id="team_stack-to-cmd_bridge" style="stroke:#181818;stroke-width:1;"/><polygon fill="#181818" points="572.6,321.3528,563.6,317.3528,567.6,321.3528,563.6,325.3528,572.6,321.3528" style="stroke:#181818;stroke-width:1;"/><text fill="#000000" font-family="sans-serif" font-size="13" lengthAdjust="spacing" textLength="287.0474" x="240.275" y="302.4197">ROS inputs (cmd_vel_nav, /tag_global_pose,</text><text fill="#000000" font-family="sans-serif" font-size="13" lengthAdjust="spacing" textLength="316.2974" x="225.65" y="317.5525">/nav status, /odom, optional mode/safety topics)</text></g><!--link cmd_bridge to nt4--><g class="link" data-entity-1="ent0003" data-entity-2="ent0004" data-link-type="dependency" data-source-line="17" id="lnk7"><path d="M671.3,289.8728 C684.64,242.1628 717.37,153.1328 782.85,115.3528 C888.33,54.4928 943.2,71.5928 1056.85,115.3528 C1132.96,144.6628 1194.2233,214.0182 1226.7133,256.4682" fill="none" id="cmd_bridge-to-nt4" style="stroke:#181818;stroke-width:1;"/><polygon fill="#181818" points="1230.36,261.2328,1228.0664,251.6547,1227.3211,257.2623,1221.7135,256.517,1230.36,261.2328" style="stroke:#181818;stroke-width:1;"/><text fill="#000000" font-family="sans-serif" font-size="13" lengthAdjust="spacing" textLength="251.5449" x="794.35" y="56.9297">cmd_vel_x, cmd_vel_y, cmd_vel_theta,</text><text fill="#000000" font-family="sans-serif" font-size="13" lengthAdjust="spacing" textLength="211.8403" x="814.2023" y="72.0625">cmd_vel (array), cmd_vel_stamp</text></g><!--link cmd_bridge to nt4--><g class="link" data-entity-1="ent0003" data-entity-2="ent0004" data-link-type="dependency" data-source-line="18" id="lnk8"><path d="M680.98,289.6728 C700.72,257.0828 736.43,208.2028 782.85,187.3528 C893.94,137.4628 938.74,157.6828 1056.85,187.3528 C1113.52,201.5928 1166.6868,232.411 1204.7268,257.921" fill="none" id="cmd_bridge-to-nt4-1" style="stroke:#181818;stroke-width:1;"/><polygon fill="#181818" points="1209.71,261.2628,1204.463,252.928,1205.5573,258.478,1200.0073,259.5722,1209.71,261.2628" style="stroke:#181818;stroke-width:1;"/><text fill="#000000" font-family="sans-serif" font-size="13" lengthAdjust="spacing" textLength="220.1748" x="809.7887" y="138.1197">status_mode, status_cmd_source,</text><text fill="#000000" font-family="sans-serif" font-size="13" lengthAdjust="spacing" textLength="254.0522" x="792.85" y="153.2525">status_cmd_valid, status_cmd_age_sec</text></g><!--link cmd_bridge to nt4--><g class="link" data-entity-1="ent0003" data-entity-2="ent0004" data-link-type="dependency" data-source-line="19" id="lnk9"><path d="M711.76,289.6428 C732.68,277.6428 758.05,265.4228 782.85,259.3528 C922.62,225.1528 1086.3908,252.236 1178.7608,273.346" fill="none" id="cmd_bridge-to-nt4-2" style="stroke:#181818;stroke-width:1;"/><polygon fill="#181818" points="1184.61,274.6828,1176.7274,268.7782,1179.7357,273.5688,1174.945,276.5771,1184.61,274.6828" style="stroke:#181818;stroke-width:1;"/><text fill="#000000" font-family="sans-serif" font-size="13" lengthAdjust="spacing" textLength="146.1548" x="846.8603" y="224.5197">status_localization_ok,</text><text fill="#000000" font-family="sans-serif" font-size="13" lengthAdjust="spacing" textLength="179.1753" x="830.35" y="239.6525">status_localization_age_sec</text></g><!--link cmd_bridge to nt4--><g class="link" data-entity-1="ent0003" data-entity-2="ent0004" data-link-type="dependency" data-source-line="20" id="lnk10"><path d="M753.18,316.9528 C871.59,311.1228 1071.7973,301.2579 1178.4173,296.0079" fill="none" id="cmd_bridge-to-nt4-3" style="stroke:#181818;stroke-width:1;"/><polygon fill="#181818" points="1184.41,295.7128,1175.2242,292.1603,1179.4161,295.9587,1175.6176,300.1506,1184.41,295.7128" style="stroke:#181818;stroke-width:1;"/><text fill="#000000" font-family="sans-serif" font-size="13" lengthAdjust="spacing" textLength="272.8159" x="783.85" y="283.6297">status_nav_state, status_nav_goal_active,</text><text fill="#000000" font-family="sans-serif" font-size="13" lengthAdjust="spacing" textLength="154.6416" x="842.9372" y="298.7625">status_nav_status_code</text></g><!--link cmd_bridge to nt4--><g class="link" data-entity-1="ent0003" data-entity-2="ent0004" data-link-type="dependency" data-source-line="21" id="lnk11"><path d="M753.31,337.1928 C763.25,338.4928 773.25,339.5928 782.85,340.3528 C904.24,349.9728 935.95,354.9628 1056.85,340.3528 C1099.93,335.1528 1141.4204,325.3342 1178.7204,314.9342" fill="none" id="cmd_bridge-to-nt4-4" style="stroke:#181818;stroke-width:1;"/><polygon fill="#181818" points="1184.5,313.3228,1174.7564,311.8869,1179.6837,314.6657,1176.905,319.593,1184.5,313.3228" style="stroke:#181818;stroke-width:1;"/><text fill="#000000" font-family="sans-serif" font-size="13" lengthAdjust="spacing" textLength="255.3726" x="792.35" y="336.4197">status_safety_stop, status_safety_state</text></g><!--link cmd_bridge to nt4--><g class="link" data-entity-1="ent0003" data-entity-2="ent0004" data-link-type="dependency" data-source-line="22" id="lnk12"><path d="M706.59,353.0428 C728.27,367.1328 755.69,382.1428 782.85,389.3528 C900.55,420.5928 938.28,417.1228 1056.85,389.3528 C1110.95,376.6828 1162.1149,349.8726 1200.3749,326.5826" fill="none" id="cmd_bridge-to-nt4-5" style="stroke:#181818;stroke-width:1;"/><polygon fill="#181818" points="1205.5,323.4628,1195.7325,324.7258,1201.2291,326.0626,1199.8922,331.5592,1205.5,323.4628" style="stroke:#181818;stroke-width:1;"/><text fill="#000000" font-family="sans-serif" font-size="13" lengthAdjust="spacing" textLength="222.7075" x="808.85" y="370.4197">status_odom_vx, status_odom_vy,</text><text fill="#000000" font-family="sans-serif" font-size="13" lengthAdjust="spacing" textLength="107.2246" x="866.5915" y="385.5525">status_odom_wz</text></g><!--link cmd_bridge to nt4--><g class="link" data-entity-1="ent0003" data-entity-2="ent0004" data-link-type="dependency" data-source-line="23" id="lnk13"><path d="M685.45,353.1328 C706.59,381.0228 741.54,419.6628 782.85,436.3528 C895.76,481.9728 941.14,474.3228 1056.85,436.3528 C1124.4,414.1828 1183.5742,363.0422 1219.0542,327.7822" fill="none" id="cmd_bridge-to-nt4-6" style="stroke:#181818;stroke-width:1;"/><polygon fill="#181818" points="1223.31,323.5528,1214.1067,327.0597,1219.7635,327.0773,1219.7459,332.7341,1223.31,323.5528" style="stroke:#181818;stroke-width:1;"/><text fill="#000000" font-family="sans-serif" font-size="13" lengthAdjust="spacing" textLength="205.8672" x="817.35" y="432.4197">status_heartbeat, status_stamp</text></g><!--link nt4 to rio--><g class="link" data-entity-1="ent0004" data-entity-2="ent0005" data-link-type="dependency" data-source-line="25" id="lnk14"><path d="M1322.91,292.3528 C1408.91,292.3528 1549.81,292.3528 1636.03,292.3528" fill="none" id="nt4-to-rio" style="stroke:#181818;stroke-width:1;"/><polygon fill="#181818" points="1642.03,292.3528,1633.03,288.3528,1637.03,292.3528,1633.03,296.3528,1642.03,292.3528" style="stroke:#181818;stroke-width:1;"/><text fill="#000000" font-family="sans-serif" font-size="13" lengthAdjust="spacing" textLength="160.9512" x="1451.37" y="288.4197">RoboRIO reads NT4 keys</text></g><!--link cmd_bridge to GMN15--><g class="link" data-entity-1="ent0003" data-entity-2="ent0016" data-link-type="association" data-source-line="28" id="lnk17"><path d="M678.67,353.0928 C697.48,389.2628 733.45,447.0128 782.85,475.3528 C874.25,527.7828 991.83,543.0128 1086.49,545.1428" fill="none" id="cmd_bridge-GMN15" style="stroke:#181818;stroke-width:1;stroke-dasharray:7,7;"/></g><g class="legend" data-source-line="7"><rect fill="#DDDDDD" height="26.2969" rx="7.5" ry="7.5" style="stroke:#000000;stroke-width:1;" width="237.5889" x="1523.6151" y="582.0512"/><text fill="#000000" font-family="sans-serif" font-size="14" lengthAdjust="spacing" textLength="227.5889" x="1528.6151" y="600.0463">Solid arrows: data/message flow</text></g><?plantuml-src ZLGzR-Cm3DtrAuXC2U0sk2BBTRZfbbjQ8ErOmA1jnZ4YYuR497L__P7EXntq4DmcYK_lFL8Kqwu97KPi8MsnucCJQjYWJ-JIDT9XkSEQtgJt195AmL1xSfus0i8GctehK3KMQJWu9uqeK0ZRdqy_Lh1-VNk2Xr-mveBNVrwX2K9nWoN1lF1A3GL_BfpIrHIg4vjxOzzKW37oCJr3XOBBbb9I5x3nV7IAFE6TAxdjE50Gc4qb8OboVuI9nWmm3RRo8JQzMRPLVY2V1rdbHMogclGcHWfesr3lkzDjmvtYpamLc0XcBoH7ZhjtB3mbM7s4OVLiBePBIZhLkjIXv8g6U6nOYtRr1GzQh5481YAjMhUN1FEhKpnai1IiyzfpWJxlE57s4POQiDnbdpJE5RSPS6SFWnvQbLmct93q-d9TKwQ5coYPi9fLnOlAPtPTzkDIjYIeMkSzQAKYzeiHeFfjzs_caxNSd6INZG4JxsDf2KpE3gXTS8FI1iWJbNUfFPTwxmijvvnt8-LDu7-Oj9IMYenExQHchJPghnycTYzGywcftQKzFO32kSk-dQdQtSlseldXCxlTzwEJuU3uTPTaInYb89HHVtWnPoX3QqjQtvqxDH9M2LxULx2ZFYcAXSxVdZVJF_7xCWHqcl0nm9OYGPE-ZG0EldzqxriR9mUA-eckumFcfcDORVgeU1bwPU6Kfk9ot-eVeWeIsMmIyZqKlIKteCu-7cq-WBbqVm40?></g></svg>