<?plantuml 1.2026.1?><svg xmlns="http://www.w3.org/2000/svg" xmlns:xlink="http://www.w3.org/1999/xlink" contentStyleType="text/css" data-diagram-type="DESCRIPTION" height="1204px" preserveAspectRatio="none" style="width:2918px;height:1204px;background:#FFFFFF;" version="1.1" viewBox="0 0 2918 1204" width="2918px" zoomAndPan="magnify"><title>navigation.launch.py node/topic flow (default non-composed mode)</title><defs/><g><g class="title" data-source-line="8"><text fill="#000000" font-family="sans-serif" font-size="14" font-weight="bold" lengthAdjust="spacing" textLength="535.958" x="1184.3438" y="22.9951">navigation.launch.py node/topic flow (default non-composed mode)</text></g><!--entity map_server--><g class="entity" data-qualified-name="map_server" data-source-line="16" id="ent0002"><rect fill="#F1F1F1" height="62.5938" rx="2.5" ry="2.5" style="stroke:#181818;stroke-width:0.5;" width="122.4209" x="346.95" y="44.2969"/><rect fill="#F1F1F1" height="10" style="stroke:#181818;stroke-width:0.5;" width="15" x="449.3709" y="49.2969"/><rect fill="#F1F1F1" height="2" style="stroke:#181818;stroke-width:0.5;" width="4" x="447.3709" y="51.2969"/><rect fill="#F1F1F1" height="2" style="stroke:#181818;stroke-width:0.5;" width="4" x="447.3709" y="55.2969"/><text fill="#000000" font-family="sans-serif" font-size="14" lengthAdjust="spacing" textLength="82.4209" x="361.95" y="77.292">map_server</text><text fill="#000000" font-family="sans-serif" font-size="14" lengthAdjust="spacing" textLength="67.6621" x="361.95" y="93.5889">(optional)</text></g><!--entity planner--><g class="entity" data-qualified-name="planner" data-source-line="17" id="ent0003"><rect fill="#F1F1F1" height="46.2969" rx="2.5" ry="2.5" style="stroke:#181818;stroke-width:0.5;" width="144.7881" x="563.41" y="492.4469"/><rect fill="#F1F1F1" height="10" style="stroke:#181818;stroke-width:0.5;" width="15" x="688.1981" y="497.4469"/><rect fill="#F1F1F1" height="2" style="stroke:#181818;stroke-width:0.5;" width="4" x="686.1981" y="499.4469"/><rect fill="#F1F1F1" height="2" style="stroke:#181818;stroke-width:0.5;" width="4" x="686.1981" y="503.4469"/><text fill="#000000" font-family="sans-serif" font-size="14" lengthAdjust="spacing" textLength="104.7881" x="578.41" y="525.442">planner_server</text></g><!--entity route--><g class="entity" data-qualified-name="route" data-source-line="18" id="ent0004"><rect fill="#F1F1F1" height="46.2969" rx="2.5" ry="2.5" style="stroke:#181818;stroke-width:0.5;" width="128.6143" x="343.85" y="348.4469"/><rect fill="#F1F1F1" height="10" style="stroke:#181818;stroke-width:0.5;" width="15" x="452.4643" y="353.4469"/><rect fill="#F1F1F1" height="2" style="stroke:#181818;stroke-width:0.5;" width="4" x="450.4643" y="355.4469"/><rect fill="#F1F1F1" height="2" style="stroke:#181818;stroke-width:0.5;" width="4" x="450.4643" y="359.4469"/><text fill="#000000" font-family="sans-serif" font-size="14" lengthAdjust="spacing" textLength="88.6143" x="358.85" y="381.442">route_server</text></g><!--entity controller--><g class="entity" data-qualified-name="controller" data-source-line="19" id="ent0005"><rect fill="#F1F1F1" height="46.2969" rx="2.5" ry="2.5" style="stroke:#181818;stroke-width:0.5;" width="158.4121" x="799.14" y="658.4469"/><rect fill="#F1F1F1" height="10" style="stroke:#181818;stroke-width:0.5;" width="15" x="937.5521" y="663.4469"/><rect fill="#F1F1F1" height="2" style="stroke:#181818;stroke-width:0.5;" width="4" x="935.5521" y="665.4469"/><rect fill="#F1F1F1" height="2" style="stroke:#181818;stroke-width:0.5;" width="4" x="935.5521" y="669.4469"/><text fill="#000000" font-family="sans-serif" font-size="14" lengthAdjust="spacing" textLength="118.4121" x="814.14" y="691.442">controller_server</text></g><!--entity behavior--><g class="entity" data-qualified-name="behavior" data-source-line="20" id="ent0006"><rect fill="#F1F1F1" height="46.2969" rx="2.5" ry="2.5" style="stroke:#181818;stroke-width:0.5;" width="152.7656" x="2759.88" y="1059.4469"/><rect fill="#F1F1F1" height="10" style="stroke:#181818;stroke-width:0.5;" width="15" x="2892.6456" y="1064.4469"/><rect fill="#F1F1F1" height="2" style="stroke:#181818;stroke-width:0.5;" width="4" x="2890.6456" y="1066.4469"/><rect fill="#F1F1F1" height="2" style="stroke:#181818;stroke-width:0.5;" width="4" x="2890.6456" y="1070.4469"/><text fill="#000000" font-family="sans-serif" font-size="14" lengthAdjust="spacing" textLength="112.7656" x="2774.88" y="1092.442">behavior_server</text></g><!--entity btnav--><g class="entity" data-qualified-name="btnav" data-source-line="21" id="ent0007"><rect fill="#F1F1F1" height="46.2969" rx="2.5" ry="2.5" style="stroke:#181818;stroke-width:0.5;" width="128.2793" x="2551.6" y="737.4469"/><rect fill="#F1F1F1" height="10" style="stroke:#181818;stroke-width:0.5;" width="15" x="2659.8793" y="742.4469"/><rect fill="#F1F1F1" height="2" style="stroke:#181818;stroke-width:0.5;" width="4" x="2657.8793" y="744.4469"/><rect fill="#F1F1F1" height="2" style="stroke:#181818;stroke-width:0.5;" width="4" x="2657.8793" y="748.4469"/><text fill="#000000" font-family="sans-serif" font-size="14" lengthAdjust="spacing" textLength="88.2793" x="2566.6" y="770.442">bt_navigator</text></g><!--entity waypoint--><g class="entity" data-qualified-name="waypoint" data-source-line="22" id="ent0008"><rect fill="#F1F1F1" height="46.2969" rx="2.5" ry="2.5" style="stroke:#181818;stroke-width:0.5;" width="166.6768" x="552.46" y="234.4469"/><rect fill="#F1F1F1" height="10" style="stroke:#181818;stroke-width:0.5;" width="15" x="699.1368" y="239.4469"/><rect fill="#F1F1F1" height="2" style="stroke:#181818;stroke-width:0.5;" width="4" x="697.1368" y="241.4469"/><rect fill="#F1F1F1" height="2" style="stroke:#181818;stroke-width:0.5;" width="4" x="697.1368" y="245.4469"/><text fill="#000000" font-family="sans-serif" font-size="14" lengthAdjust="spacing" textLength="126.6768" x="567.46" y="267.442">waypoint_follower</text></g><!--entity vel_smoother--><g class="entity" data-qualified-name="vel_smoother" data-source-line="23" id="ent0009"><rect fill="#F1F1F1" height="46.2969" rx="2.5" ry="2.5" style="stroke:#181818;stroke-width:0.5;" width="168.5088" x="1037.55" y="815.4469"/><rect fill="#F1F1F1" height="10" style="stroke:#181818;stroke-width:0.5;" width="15" x="1186.0588" y="820.4469"/><rect fill="#F1F1F1" height="2" style="stroke:#181818;stroke-width:0.5;" width="4" x="1184.0588" y="822.4469"/><rect fill="#F1F1F1" height="2" style="stroke:#181818;stroke-width:0.5;" width="4" x="1184.0588" y="826.4469"/><text fill="#000000" font-family="sans-serif" font-size="14" lengthAdjust="spacing" textLength="128.5088" x="1052.55" y="848.442">velocity_smoother</text></g><!--entity collision--><g class="entity" data-qualified-name="collision" data-source-line="24" id="ent0010"><rect fill="#F1F1F1" height="46.2969" rx="2.5" ry="2.5" style="stroke:#181818;stroke-width:0.5;" width="158.3301" x="1286.06" y="815.4469"/><rect fill="#F1F1F1" height="10" style="stroke:#181818;stroke-width:0.5;" width="15" x="1424.3901" y="820.4469"/><rect fill="#F1F1F1" height="2" style="stroke:#181818;stroke-width:0.5;" width="4" x="1422.3901" y="822.4469"/><rect fill="#F1F1F1" height="2" style="stroke:#181818;stroke-width:0.5;" width="4" x="1422.3901" y="826.4469"/><text fill="#000000" font-family="sans-serif" font-size="14" lengthAdjust="spacing" textLength="118.3301" x="1301.06" y="848.442">collision_monitor</text></g><!--entity lm_nav--><g class="entity" data-qualified-name="lm_nav" data-source-line="25" id="ent0011"><rect fill="#F1F1F1" height="46.2969" rx="2.5" ry="2.5" style="stroke:#181818;stroke-width:0.5;" width="248.3389" x="11.26" y="735.4469"/><rect fill="#F1F1F1" height="10" style="stroke:#181818;stroke-width:0.5;" width="15" x="239.5989" y="740.4469"/><rect fill="#F1F1F1" height="2" style="stroke:#181818;stroke-width:0.5;" width="4" x="237.5989" y="742.4469"/><rect fill="#F1F1F1" height="2" style="stroke:#181818;stroke-width:0.5;" width="4" x="237.5989" y="746.4469"/><text fill="#000000" font-family="sans-serif" font-size="14" lengthAdjust="spacing" textLength="208.3389" x="26.26" y="768.442">lifecycle_manager_navigation</text></g><!--entity lm_map--><g class="entity" data-qualified-name="lm_map" data-source-line="26" id="ent0012"><rect fill="#F1F1F1" height="62.5938" rx="2.5" ry="2.5" style="stroke:#181818;stroke-width:0.5;" width="256.8496" x="7" y="44.2969"/><rect fill="#F1F1F1" height="10" style="stroke:#181818;stroke-width:0.5;" width="15" x="243.8496" y="49.2969"/><rect fill="#F1F1F1" height="2" style="stroke:#181818;stroke-width:0.5;" width="4" x="241.8496" y="51.2969"/><rect fill="#F1F1F1" height="2" style="stroke:#181818;stroke-width:0.5;" width="4" x="241.8496" y="55.2969"/><text fill="#000000" font-family="sans-serif" font-size="14" lengthAdjust="spacing" textLength="216.8496" x="22" y="77.292">lifecycle_manager_map_server</text><text fill="#000000" font-family="sans-serif" font-size="14" lengthAdjust="spacing" textLength="67.6621" x="22" y="93.5889">(optional)</text></g><!--entity cmd_nt4--><g class="entity" data-qualified-name="cmd_nt4" data-source-line="27" id="ent0013"><rect fill="#F1F1F1" height="62.5938" rx="2.5" ry="2.5" style="stroke:#181818;stroke-width:0.5;" width="180.1982" x="1524.39" y="805.2969"/><rect fill="#F1F1F1" height="10" style="stroke:#181818;stroke-width:0.5;" width="15" x="1684.5882" y="810.2969"/><rect fill="#F1F1F1" height="2" style="stroke:#181818;stroke-width:0.5;" width="4" x="1682.5882" y="812.2969"/><rect fill="#F1F1F1" height="2" style="stroke:#181818;stroke-width:0.5;" width="4" x="1682.5882" y="816.2969"/><text fill="#000000" font-family="sans-serif" font-size="14" lengthAdjust="spacing" textLength="140.1982" x="1539.39" y="838.292">cmd_vel_nt4_bridge</text><text fill="#000000" font-family="sans-serif" font-size="14" lengthAdjust="spacing" textLength="67.6621" x="1539.39" y="854.5889">(optional)</text></g><!--entity auto_mgr--><g class="entity" data-qualified-name="auto_mgr" data-source-line="28" id="ent0014"><rect fill="#F1F1F1" height="62.5938" rx="2.5" ry="2.5" style="stroke:#181818;stroke-width:0.5;" width="227.4961" x="2244.11" y="805.2969"/><rect fill="#F1F1F1" height="10" style="stroke:#181818;stroke-width:0.5;" width="15" x="2451.6061" y="810.2969"/><rect fill="#F1F1F1" height="2" style="stroke:#181818;stroke-width:0.5;" width="4" x="2449.6061" y="812.2969"/><rect fill="#F1F1F1" height="2" style="stroke:#181818;stroke-width:0.5;" width="4" x="2449.6061" y="816.2969"/><text fill="#000000" font-family="sans-serif" font-size="14" lengthAdjust="spacing" textLength="187.4961" x="2259.11" y="838.292">autonomy_mode_manager</text><text fill="#000000" font-family="sans-serif" font-size="14" lengthAdjust="spacing" textLength="67.6621" x="2259.11" y="854.5889">(optional)</text></g><!--entity mode_bridge--><g class="entity" data-qualified-name="mode_bridge" data-source-line="29" id="ent0015"><rect fill="#F1F1F1" height="62.5938" rx="2.5" ry="2.5" style="stroke:#181818;stroke-width:0.5;" width="161.8916" x="2002.22" y="805.2969"/><rect fill="#F1F1F1" height="10" style="stroke:#181818;stroke-width:0.5;" width="15" x="2144.1116" y="810.2969"/><rect fill="#F1F1F1" height="2" style="stroke:#181818;stroke-width:0.5;" width="4" x="2142.1116" y="812.2969"/><rect fill="#F1F1F1" height="2" style="stroke:#181818;stroke-width:0.5;" width="4" x="2142.1116" y="816.2969"/><text fill="#000000" font-family="sans-serif" font-size="14" lengthAdjust="spacing" textLength="121.8916" x="2017.22" y="838.292">nt4_mode_bridge</text><text fill="#000000" font-family="sans-serif" font-size="14" lengthAdjust="spacing" textLength="67.6621" x="2017.22" y="854.5889">(optional)</text></g><!--entity nt4--><g class="entity" data-qualified-name="nt4" data-source-line="30" id="ent0016"><path d="M1784.59,815.7969 C1784.59,805.7969 1853.403,805.7969 1853.403,805.7969 C1853.403,805.7969 1922.216,805.7969 1922.216,815.7969 L1922.216,857.3906 C1922.216,867.3906 1853.403,867.3906 1853.403,867.3906 C1853.403,867.3906 1784.59,867.3906 1784.59,857.3906 L1784.59,815.7969" fill="#F1F1F1" style="stroke:#181818;stroke-width:0.5;"/><path d="M1784.59,815.7969 C1784.59,825.7969 1853.403,825.7969 1853.403,825.7969 C1853.403,825.7969 1922.216,825.7969 1922.216,815.7969" fill="none" style="stroke:#181818;stroke-width:0.5;"/><text fill="#000000" font-family="sans-serif" font-size="14" lengthAdjust="spacing" textLength="117.626" x="1794.59" y="842.792">NetworkTables 4</text><text fill="#000000" font-family="sans-serif" font-size="14" lengthAdjust="spacing" textLength="67.6621" x="1794.59" y="859.0889">(optional)</text></g><!--link map_server to planner--><g class="link" data-entity-1="ent0002" data-entity-2="ent0003" data-link-type="dependency" data-source-line="32" id="lnk17"><path d="M469.85,75.5869 C492.47,75.5869 512.65,75.5869 512.65,75.5869 C512.65,75.5869 512.65,507.8769 512.65,507.8769 C512.65,507.8769 530.43,507.8769 557.1,507.8769" fill="none" id="map_server-to-planner" style="stroke:#181818;stroke-width:1;"/><polygon fill="#181818" points="563.1,507.8769,554.1,503.8769,558.1,507.8769,554.1,511.8769,563.1,507.8769" style="stroke:#181818;stroke-width:1;"/><text fill="#000000" font-family="sans-serif" font-size="13" lengthAdjust="spacing" textLength="33.2617" x="478.65" y="308.6238">/map</text></g><!--link route to planner--><g class="link" data-entity-1="ent0004" data-entity-2="ent0003" data-link-type="dependency" data-source-line="33" id="lnk18"><path d="M429.65,394.9669 C429.65,437.5169 429.65,523.3069 429.65,523.3069 C429.65,523.3069 497.77,523.3069 557.12,523.3069" fill="none" id="route-to-planner" style="stroke:#181818;stroke-width:1;"/><polygon fill="#181818" points="563.12,523.3069,554.12,519.3069,558.12,523.3069,554.12,527.3069,563.12,523.3069" style="stroke:#181818;stroke-width:1;"/><text fill="#000000" font-family="sans-serif" font-size="13" lengthAdjust="spacing" textLength="98.4712" x="333.21" y="536.3738">route guidance</text></g><!--link planner to controller--><g class="link" data-entity-1="ent0003" data-entity-2="ent0005" data-link-type="dependency" data-source-line="34" id="lnk19"><path d="M659.65,539.0269 C659.65,584.7769 659.65,681.5869 659.65,681.5869 C659.65,681.5869 730.24,681.5869 792.77,681.5869" fill="none" id="planner-to-controller" style="stroke:#181818;stroke-width:1;"/><polygon fill="#181818" points="798.77,681.5869,789.77,677.5869,793.77,681.5869,789.77,685.5869,798.77,681.5869" style="stroke:#181818;stroke-width:1;"/><text fill="#000000" font-family="sans-serif" font-size="13" lengthAdjust="spacing" textLength="32.4492" x="626.65" y="692.9338">/plan</text></g><!--link btnav to planner--><g class="link" data-entity-1="ent0007" data-entity-2="ent0003" data-link-type="dependency" data-source-line="35" id="lnk20"><path d="M2636.65,737.0969 C2636.65,675.7769 2636.65,515.5869 2636.65,515.5869 C2636.65,515.5869 1073.77,515.5869 714.49,515.5869" fill="none" id="btnav-to-planner" style="stroke:#181818;stroke-width:1;"/><polygon fill="#181818" points="708.49,515.5869,717.49,519.5869,713.49,515.5869,717.49,511.5869,708.49,515.5869" style="stroke:#181818;stroke-width:1;"/><text fill="#000000" font-family="sans-serif" font-size="13" lengthAdjust="spacing" textLength="168.1875" x="1614.32" y="528.6538">planning actions/requests</text></g><!--link btnav to controller--><g class="link" data-entity-1="ent0007" data-entity-2="ent0005" data-link-type="dependency" data-source-line="36" id="lnk21"><path d="M2594.65,737.3169 C2594.65,714.0169 2594.65,681.5869 2594.65,681.5869 C2594.65,681.5869 1301.96,681.5869 963.97,681.5869" fill="none" id="btnav-to-controller" style="stroke:#181818;stroke-width:1;"/><polygon fill="#181818" points="957.97,681.5869,966.97,685.5869,962.97,681.5869,966.97,677.5869,957.97,681.5869" style="stroke:#181818;stroke-width:1;"/><text fill="#000000" font-family="sans-serif" font-size="13" lengthAdjust="spacing" textLength="122.9478" x="1681.17" y="694.6538">follow path actions</text></g><!--link btnav to behavior--><g class="link" data-entity-1="ent0007" data-entity-2="ent0006" data-link-type="dependency" data-source-line="37" id="lnk22"><path d="M2636.65,784.2169 C2636.65,857.3069 2636.65,1074.8769 2636.65,1074.8769 C2636.65,1074.8769 2697.37,1074.8769 2753.66,1074.8769" fill="none" id="btnav-to-behavior" style="stroke:#181818;stroke-width:1;"/><polygon fill="#181818" points="2759.66,1074.8769,2750.66,1070.8769,2754.66,1074.8769,2750.66,1078.8769,2759.66,1074.8769" style="stroke:#181818;stroke-width:1;"/><text fill="#000000" font-family="sans-serif" font-size="13" lengthAdjust="spacing" textLength="108.0942" x="2527.65" y="1004.1138">recovery actions</text></g><!--link waypoint to btnav--><g class="link" data-entity-1="ent0008" data-entity-2="ent0007" data-link-type="dependency" data-source-line="38" id="lnk23"><path d="M713.65,280.9069 C713.65,380.1269 713.65,762.0469 713.65,762.0469 C713.65,762.0469 2213.11,762.0469 2545.37,762.0469" fill="none" id="waypoint-to-btnav" style="stroke:#181818;stroke-width:1;"/><polygon fill="#181818" points="2551.37,762.0469,2542.37,758.0469,2546.37,762.0469,2542.37,766.0469,2551.37,762.0469" style="stroke:#181818;stroke-width:1;"/><text fill="#000000" font-family="sans-serif" font-size="13" lengthAdjust="spacing" textLength="106.7358" x="1284.94" y="775.1138">nav goal actions</text></g><!--link controller to vel_smoother--><g class="link" data-entity-1="ent0005" data-entity-2="ent0009" data-link-type="dependency" data-source-line="40" id="lnk24"><path d="M904.65,705.0969 C904.65,748.8969 904.65,838.5869 904.65,838.5869 C904.65,838.5869 970.25,838.5869 1031.23,838.5869" fill="none" id="controller-to-vel_smoother" style="stroke:#181818;stroke-width:1;"/><polygon fill="#181818" points="1037.23,838.5869,1028.23,834.5869,1032.23,838.5869,1028.23,842.5869,1037.23,838.5869" style="stroke:#181818;stroke-width:1;"/><text fill="#000000" font-family="sans-serif" font-size="13" lengthAdjust="spacing" textLength="141.4131" x="762.65" y="851.1938">cmd_vel input stream</text></g><!--link vel_smoother to collision--><g class="link" data-entity-1="ent0009" data-entity-2="ent0010" data-link-type="dependency" data-source-line="41" id="lnk25"><path d="M1206.26,838.5869 C1232.08,838.5869 1254.37,838.5869 1279.83,838.5869" fill="none" id="vel_smoother-to-collision" style="stroke:#181818;stroke-width:1;"/><polygon fill="#181818" points="1285.83,838.5869,1276.83,834.5869,1280.83,838.5869,1276.83,842.5869,1285.83,838.5869" style="stroke:#181818;stroke-width:1;"/><text fill="#000000" font-family="sans-serif" font-size="13" lengthAdjust="spacing" textLength="125.2964" x="1120.05" y="851.6538">cmd_vel_smoothed</text></g><!--link collision to cmd_nt4--><g class="link" data-entity-1="ent0010" data-entity-2="ent0013" data-link-type="dependency" data-source-line="42" id="lnk26"><path d="M1444.78,838.5869 C1470,838.5869 1492.06,838.5869 1517.99,838.5869" fill="none" id="collision-to-cmd_nt4" style="stroke:#181818;stroke-width:1;"/><polygon fill="#181818" points="1523.99,838.5869,1514.99,834.5869,1518.99,838.5869,1514.99,842.5869,1523.99,838.5869" style="stroke:#181818;stroke-width:1;"/><text fill="#000000" font-family="sans-serif" font-size="13" lengthAdjust="spacing" textLength="88.645" x="1395.39" y="851.6538">/cmd_vel_nav</text></g><!--link mode_bridge to auto_mgr--><g class="link" data-entity-1="ent0015" data-entity-2="ent0014" data-link-type="dependency" data-source-line="44" id="lnk27"><path d="M2164.46,836.5869 C2189.3,836.5869 2211.09,836.5869 2237.69,836.5869" fill="none" id="mode_bridge-to-auto_mgr" style="stroke:#181818;stroke-width:1;"/><polygon fill="#181818" points="2243.69,836.5869,2234.69,832.5869,2238.69,836.5869,2234.69,840.5869,2243.69,836.5869" style="stroke:#181818;stroke-width:1;"/><text fill="#000000" font-family="sans-serif" font-size="13" lengthAdjust="spacing" textLength="77.9683" x="2126.08" y="849.6538">robot_mode</text></g><!--link auto_mgr to btnav--><g class="link" data-entity-1="ent0014" data-entity-2="ent0007" data-link-type="dependency" data-source-line="45" id="lnk28"><path d="M2472.09,836.5869 C2532.64,836.5869 2594.65,836.5869 2594.65,836.5869 C2594.65,836.5869 2594.65,812.5269 2594.65,790.2169" fill="none" id="auto_mgr-to-btnav" style="stroke:#181818;stroke-width:1;"/><polygon fill="#181818" points="2594.65,784.2169,2590.65,793.2169,2594.65,789.2169,2598.65,793.2169,2594.65,784.2169" style="stroke:#181818;stroke-width:1;"/><text fill="#000000" font-family="sans-serif" font-size="13" lengthAdjust="spacing" textLength="240.7856" x="2560.55" y="849.6538">/navigate_to_pose action goal/cancel</text></g><!--link cmd_nt4 to nt4--><g class="link" data-entity-1="ent0013" data-entity-2="ent0016" data-link-type="dependency" data-source-line="47" id="lnk29"><path d="M1704.81,836.5869 C1731.11,836.5869 1753.41,836.5869 1778.19,836.5869" fill="none" id="cmd_nt4-to-nt4" style="stroke:#181818;stroke-width:1;"/><polygon fill="#181818" points="1784.19,836.5869,1775.19,832.5869,1779.19,836.5869,1775.19,840.5869,1784.19,836.5869" style="stroke:#181818;stroke-width:1;"/><text fill="#000000" font-family="sans-serif" font-size="13" lengthAdjust="spacing" textLength="144.0347" x="1599.5" y="849.6538">velocity + status keys</text></g><!--link nt4 to mode_bridge--><g class="link" data-entity-1="ent0016" data-entity-2="ent0015" data-link-type="dependency" data-source-line="48" id="lnk30"><path d="M1922.65,836.5869 C1947.62,836.5869 1970.03,836.5869 1995.93,836.5869" fill="none" id="nt4-to-mode_bridge" style="stroke:#181818;stroke-width:1;"/><polygon fill="#181818" points="2001.93,836.5869,1992.93,832.5869,1996.93,836.5869,1992.93,840.5869,2001.93,836.5869" style="stroke:#181818;stroke-width:1;"/><text fill="#000000" font-family="sans-serif" font-size="13" lengthAdjust="spacing" textLength="105.3203" x="1856.29" y="849.6538">robot_mode key</text></g><!--link lm_nav to planner--><g class="link" data-entity-1="ent0011" data-entity-2="ent0003" data-link-type="dependency" data-source-line="50" id="lnk31"><path d="M259.92,752.2069 C401.03,752.2069 611.65,752.2069 611.65,752.2069 C611.65,752.2069 611.65,604.9969 611.65,545.1469" fill="none" id="lm_nav-to-planner" style="stroke:#181818;stroke-width:1;stroke-dasharray:7,7;"/><polygon fill="#181818" points="611.65,539.1469,607.65,548.1469,611.65,544.1469,615.65,548.1469,611.65,539.1469" style="stroke:#181818;stroke-width:1;"/><text fill="#000000" font-family="sans-serif" font-size="13" lengthAdjust="spacing" textLength="53.3965" x="488.32" y="765.2738">lifecycle</text></g><!--link lm_nav to controller--><g class="link" data-entity-1="ent0011" data-entity-2="ent0005" data-link-type="dependency" data-source-line="51" id="lnk32"><path d="M259.77,757.1269 C464.87,757.1269 851.65,757.1269 851.65,757.1269 C851.65,757.1269 851.65,733.2569 851.65,711.0769" fill="none" id="lm_nav-to-controller" style="stroke:#181818;stroke-width:1;stroke-dasharray:7,7;"/><polygon fill="#181818" points="851.65,705.0769,847.65,714.0769,851.65,710.0769,855.65,714.0769,851.65,705.0769" style="stroke:#181818;stroke-width:1;"/><text fill="#000000" font-family="sans-serif" font-size="13" lengthAdjust="spacing" textLength="53.3965" x="582.74" y="770.1938">lifecycle</text></g><!--link lm_nav to behavior--><g class="link" data-entity-1="ent0011" data-entity-2="ent0006" data-link-type="dependency" data-source-line="52" id="lnk33"><path d="M135.65,782.1769 C135.65,857.9669 135.65,1090.3069 135.65,1090.3069 C135.65,1090.3069 2313.12,1090.3069 2753.43,1090.3069" fill="none" id="lm_nav-to-behavior" style="stroke:#181818;stroke-width:1;stroke-dasharray:7,7;"/><polygon fill="#181818" points="2759.43,1090.3069,2750.43,1086.3069,2754.43,1090.3069,2750.43,1094.3069,2759.43,1090.3069" style="stroke:#181818;stroke-width:1;"/><text fill="#000000" font-family="sans-serif" font-size="13" lengthAdjust="spacing" textLength="53.3965" x="1239.48" y="1103.3738">lifecycle</text></g><!--link lm_nav to btnav--><g class="link" data-entity-1="ent0011" data-entity-2="ent0007" data-link-type="dependency" data-source-line="53" id="lnk34"><path d="M259.7,766.9769 C706.12,766.9769 2213.75,766.9769 2545.24,766.9769" fill="none" id="lm_nav-to-btnav" style="stroke:#181818;stroke-width:1;stroke-dasharray:7,7;"/><polygon fill="#181818" points="2551.24,766.9769,2542.24,762.9769,2546.24,766.9769,2542.24,770.9769,2551.24,766.9769" style="stroke:#181818;stroke-width:1;"/><text fill="#000000" font-family="sans-serif" font-size="13" lengthAdjust="spacing" textLength="53.3965" x="1406.47" y="780.0438">lifecycle</text></g><!--link lm_nav to waypoint--><g class="link" data-entity-1="ent0011" data-entity-2="ent0008" data-link-type="dependency" data-source-line="54" id="lnk35"><path d="M259.82,747.2869 C384.37,747.2869 557.65,747.2869 557.65,747.2869 C557.65,747.2869 557.65,385.0269 557.65,287.2069" fill="none" id="lm_nav-to-waypoint" style="stroke:#181818;stroke-width:1;stroke-dasharray:7,7;"/><polygon fill="#181818" points="557.65,281.2069,553.65,290.2069,557.65,286.2069,561.65,290.2069,557.65,281.2069" style="stroke:#181818;stroke-width:1;"/><text fill="#000000" font-family="sans-serif" font-size="13" lengthAdjust="spacing" textLength="53.3965" x="503.65" y="676.2238">lifecycle</text></g><!--link lm_nav to vel_smoother--><g class="link" data-entity-1="ent0011" data-entity-2="ent0009" data-link-type="dependency" data-source-line="55" id="lnk36"><path d="M259.83,776.8169 C524.96,776.8169 1121.65,776.8169 1121.65,776.8169 C1121.65,776.8169 1121.65,791.7469 1121.65,809.2369" fill="none" id="lm_nav-to-vel_smoother" style="stroke:#181818;stroke-width:1;stroke-dasharray:7,7;"/><polygon fill="#181818" points="1121.65,815.2369,1125.65,806.2369,1121.65,810.2369,1117.65,806.2369,1121.65,815.2369" style="stroke:#181818;stroke-width:1;"/><text fill="#000000" font-family="sans-serif" font-size="13" lengthAdjust="spacing" textLength="53.3965" x="655.95" y="789.8838">lifecycle</text></g><!--link lm_nav to collision--><g class="link" data-entity-1="ent0011" data-entity-2="ent0010" data-link-type="dependency" data-source-line="56" id="lnk37"><path d="M259.87,771.8969 C572.43,771.8969 1365.65,771.8969 1365.65,771.8969 C1365.65,771.8969 1365.65,790.0269 1365.65,809.2669" fill="none" id="lm_nav-to-collision" style="stroke:#181818;stroke-width:1;stroke-dasharray:7,7;"/><polygon fill="#181818" points="1365.65,815.2669,1369.65,806.2669,1365.65,810.2669,1361.65,806.2669,1365.65,815.2669" style="stroke:#181818;stroke-width:1;"/><text fill="#000000" font-family="sans-serif" font-size="13" lengthAdjust="spacing" textLength="53.3965" x="780.44" y="784.9638">lifecycle</text></g><!--link lm_nav to route--><g class="link" data-entity-1="ent0011" data-entity-2="ent0004" data-link-type="dependency" data-source-line="57" id="lnk38"><path d="M259.93,742.3669 C323.1,742.3669 386.65,742.3669 386.65,742.3669 C386.65,742.3669 386.65,482.5669 386.65,401.0669" fill="none" id="lm_nav-to-route" style="stroke:#181818;stroke-width:1;stroke-dasharray:7,7;"/><polygon fill="#181818" points="386.65,395.0669,382.65,404.0669,386.65,400.0669,390.65,404.0669,386.65,395.0669" style="stroke:#181818;stroke-width:1;"/><text fill="#000000" font-family="sans-serif" font-size="13" lengthAdjust="spacing" textLength="53.3965" x="332.65" y="645.1438">lifecycle</text></g><!--link lm_map to map_server--><g class="link" data-entity-1="ent0012" data-entity-2="ent0002" data-link-type="dependency" data-source-line="58" id="lnk39"><path d="M264.2,75.5869 C292.89,75.5869 316.03,75.5869 340.51,75.5869" fill="none" id="lm_map-to-map_server" style="stroke:#181818;stroke-width:1;stroke-dasharray:7,7;"/><polygon fill="#181818" points="346.51,75.5869,337.51,71.5869,341.51,75.5869,337.51,79.5869,346.51,75.5869" style="stroke:#181818;stroke-width:1;"/><text fill="#000000" font-family="sans-serif" font-size="13" lengthAdjust="spacing" textLength="53.3965" x="251.36" y="88.6538">lifecycle</text></g><g class="legend" data-source-line="10"><rect fill="#DDDDDD" height="58.8906" rx="7.5" ry="7.5" style="stroke:#000000;stroke-width:1;" width="508.7363" x="2383.9093" y="1125.4397"/><text fill="#000000" font-family="sans-serif" font-size="14" lengthAdjust="spacing" textLength="212.2148" x="2388.9093" y="1143.4348">Solid arrows: data/action flow.</text><text fill="#000000" font-family="sans-serif" font-size="14" lengthAdjust="spacing" textLength="327.7832" x="2388.9093" y="1159.7317">Dashed arrows: lifecycle management/control.</text><text fill="#000000" font-family="sans-serif" font-size="14" lengthAdjust="spacing" textLength="498.7363" x="2388.9093" y="1176.0286">Items marked "(optional)" launch only when corresponding flag is true.</text></g><?plantuml-src VPGzZzim38Pt_GeYqnsASphSKDpGgKkNBjUnWC7OZ2r45bs9li3_lfBy9IUvRWdVXryYQN_HjaU77VWMQxvgsy0PZIVbLwN7we8DlSje21nLWhOnEM2q9Hbx0dRISYPOhibJ3z--PaQ7zZ8R3Pq5XC7ffXMeTGoksIebMa8kYn-wmMWf30wsQej-J36Fmhsku6pu2ayrdN4m4WJxKd7NiwSQka0zgv2W8LjFyTKx6rq3EiTN_mOr2XunvKk12lK3VKiROFIPgh4ATNHeG_yTMJbMRCMnATHFeSu7nLs2o-69-nW8pVC1fbA1hHdXsfA5YfqZtxEjq-iQR41x43TGeK9rKurAfTfjI0A73llIa_iWzyVceJ5cNAJSeJTeBRbPIU1ioYd7Wr3E94DEpEsPVQZDchCdQiDyU4SkjXqdvJn8dY49_tFYYcFFsafv3aduEiTQh3dvGOOhBMFfEsPfPp9OLyE-6sEq3uzNTcpradwrvkWwx78QjYktvKjUfYjlghvt-S_OWdjGTyLrTHaBj_9Qdfok6xfpYaYGSoySX2rtOnaNV4byvnYficjsZn7p9ATFacMQYhTnGazm-4LoPNVvZIT37bxll69vQkiRNbw-Bvi7Rt2CFQSbkn4cMpFe6cr5QX4Yj2rR310LbHRc9aBw5UzfEc5_TFHt82y-etUXfjqA7pDf5vyCNHOtraOLXrR6bLeMSGAJorlyDa73Q5PAPTaYc2zbuETnG_WA3W9U766dTinKyRoRcyS2r6eJ4pejHtoaTPN2WgfiZebRTY6z-eabBO5QhNbFntddgGnY_8xEpQL6ZrKSbGbzpecZvrJ0SfNm9JI6CdYuqEZL0kKLvKL4AdoYqs51KUJJNMyhbtVZV4XaKtoipuq-5DSnVwBV3FIJ4hVvFGIcnRyHmvKaCRkZdFW7?></g></svg>