<?plantuml 1.2026.1?><svg xmlns="http://www.w3.org/2000/svg" xmlns:xlink="http://www.w3.org/1999/xlink" contentStyleType="text/css" data-diagram-type="DESCRIPTION" height="415px" preserveAspectRatio="none" style="width:963px;height:415px;background:#FFFFFF;" version="1.1" viewBox="0 0 963 415" width="963px" zoomAndPan="magnify"><title>bringup_multi_cam.launch.py node/topic flow</title><defs/><g><g class="title" data-source-line="8"><text fill="#000000" font-family="sans-serif" font-size="14" font-weight="bold" lengthAdjust="spacing" textLength="357.9434" x="295.8816" y="22.9951">bringup_multi_cam.launch.py node/topic flow</text></g><!--entity rsp--><g class="entity" data-qualified-name="rsp" data-source-line="15" id="ent0002"><rect fill="#F1F1F1" height="46.2969" rx="2.5" ry="2.5" style="stroke:#181818;stroke-width:0.5;" width="191.6895" x="7" y="277.4469"/><rect fill="#F1F1F1" height="10" style="stroke:#181818;stroke-width:0.5;" width="15" x="178.6895" y="282.4469"/><rect fill="#F1F1F1" height="2" style="stroke:#181818;stroke-width:0.5;" width="4" x="176.6895" y="284.4469"/><rect fill="#F1F1F1" height="2" style="stroke:#181818;stroke-width:0.5;" width="4" x="176.6895" y="288.4469"/><text fill="#000000" font-family="sans-serif" font-size="14" lengthAdjust="spacing" textLength="151.6895" x="22" y="310.442">robot_state_publisher</text></g><!--entity apriltag_1--><g class="entity" data-qualified-name="apriltag_1" data-source-line="16" id="ent0003"><rect fill="#F1F1F1" height="62.5938" rx="2.5" ry="2.5" style="stroke:#181818;stroke-width:0.5;" width="172.1592" x="16.77" y="125.2969"/><rect fill="#F1F1F1" height="10" style="stroke:#181818;stroke-width:0.5;" width="15" x="168.9292" y="130.2969"/><rect fill="#F1F1F1" height="2" style="stroke:#181818;stroke-width:0.5;" width="4" x="166.9292" y="132.2969"/><rect fill="#F1F1F1" height="2" style="stroke:#181818;stroke-width:0.5;" width="4" x="166.9292" y="136.2969"/><text fill="#000000" font-family="sans-serif" font-size="14" lengthAdjust="spacing" textLength="53.9561" x="31.77" y="158.292">apriltag</text><text fill="#000000" font-family="sans-serif" font-size="14" lengthAdjust="spacing" textLength="132.1592" x="31.77" y="174.5889">/camera_1/apriltag</text></g><!--entity apriltag_2--><g class="entity" data-qualified-name="apriltag_2" data-source-line="17" id="ent0004"><rect fill="#F1F1F1" height="62.5938" rx="2.5" ry="2.5" style="stroke:#181818;stroke-width:0.5;" width="172.1592" x="586.07" y="44.2969"/><rect fill="#F1F1F1" height="10" style="stroke:#181818;stroke-width:0.5;" width="15" x="738.2292" y="49.2969"/><rect fill="#F1F1F1" height="2" style="stroke:#181818;stroke-width:0.5;" width="4" x="736.2292" y="51.2969"/><rect fill="#F1F1F1" height="2" style="stroke:#181818;stroke-width:0.5;" width="4" x="736.2292" y="55.2969"/><text fill="#000000" font-family="sans-serif" font-size="14" lengthAdjust="spacing" textLength="53.9561" x="601.07" y="77.292">apriltag</text><text fill="#000000" font-family="sans-serif" font-size="14" lengthAdjust="spacing" textLength="132.1592" x="601.07" y="93.5889">/camera_2/apriltag</text></g><!--entity observer--><g class="entity" data-qualified-name="observer" data-source-line="18" id="ent0005"><rect fill="#F1F1F1" height="46.2969" rx="2.5" ry="2.5" style="stroke:#181818;stroke-width:0.5;" width="172.084" x="288.69" y="205.4469"/><rect fill="#F1F1F1" height="10" style="stroke:#181818;stroke-width:0.5;" width="15" x="440.774" y="210.4469"/><rect fill="#F1F1F1" height="2" style="stroke:#181818;stroke-width:0.5;" width="4" x="438.774" y="212.4469"/><rect fill="#F1F1F1" height="2" style="stroke:#181818;stroke-width:0.5;" width="4" x="438.774" y="216.4469"/><text fill="#000000" font-family="sans-serif" font-size="14" lengthAdjust="spacing" textLength="132.084" x="303.69" y="238.442">tag_pose_observer</text></g><!--entity ekf--><g class="entity" data-qualified-name="ekf" data-source-line="19" id="ent0006"><rect fill="#F1F1F1" height="62.5938" rx="2.5" ry="2.5" style="stroke:#181818;stroke-width:0.5;" width="242.7471" x="550.77" y="197.2969"/><rect fill="#F1F1F1" height="10" style="stroke:#181818;stroke-width:0.5;" width="15" x="773.5171" y="202.2969"/><rect fill="#F1F1F1" height="2" style="stroke:#181818;stroke-width:0.5;" width="4" x="771.5171" y="204.2969"/><rect fill="#F1F1F1" height="2" style="stroke:#181818;stroke-width:0.5;" width="4" x="771.5171" y="208.2969"/><text fill="#000000" font-family="sans-serif" font-size="14" lengthAdjust="spacing" textLength="59.7529" x="565.77" y="230.292">ekf_map</text><text fill="#000000" font-family="sans-serif" font-size="14" lengthAdjust="spacing" textLength="202.7471" x="565.77" y="246.5889">(robot_localization/ekf_node)</text></g><!--entity rviz--><g class="entity" data-qualified-name="rviz" data-source-line="20" id="ent0007"><rect fill="#F1F1F1" height="46.2969" rx="2.5" ry="2.5" style="stroke:#181818;stroke-width:0.5;" width="74.1865" x="883.52" y="289.4469"/><rect fill="#F1F1F1" height="10" style="stroke:#181818;stroke-width:0.5;" width="15" x="937.7065" y="294.4469"/><rect fill="#F1F1F1" height="2" style="stroke:#181818;stroke-width:0.5;" width="4" x="935.7065" y="296.4469"/><rect fill="#F1F1F1" height="2" style="stroke:#181818;stroke-width:0.5;" width="4" x="935.7065" y="300.4469"/><text fill="#000000" font-family="sans-serif" font-size="14" lengthAdjust="spacing" textLength="34.1865" x="898.52" y="322.442">rviz2</text></g><!--link rsp to observer--><!--link rsp to observer--><g class="link" data-entity-1="ent0002" data-entity-2="ent0005" data-link-type="dependency" data-source-line="29" id="lnk13"><path d="M195.71,277.0669 C195.71,260.0969 195.71,240.1769 195.71,240.1769 C195.71,240.1769 236.59,240.1769 282.37,240.1769" fill="none" id="rsp-to-observer-1" style="stroke:#181818;stroke-width:1;stroke-dasharray:7,7;"/><polygon fill="#181818" points="288.37,240.1769,279.37,236.1769,283.37,240.1769,279.37,244.1769,288.37,240.1769" style="stroke:#181818;stroke-width:1;"/><text fill="#000000" font-family="sans-serif" font-size="13" lengthAdjust="spacing" textLength="78.5649" x="144.59" y="253.2438">/tf, /tf_static</text></g><!--link apriltag_1 to observer--><g class="link" data-entity-1="ent0003" data-entity-2="ent0005" data-link-type="dependency" data-source-line="25" id="lnk9"><path d="M102.71,188.2269 C102.71,202.8469 102.71,217.0269 102.71,217.0269 C102.71,217.0269 202.63,217.0269 282.29,217.0269" fill="none" id="apriltag_1-to-observer" style="stroke:#181818;stroke-width:1;"/><polygon fill="#181818" points="288.29,217.0269,279.29,213.0269,283.29,217.0269,279.29,221.0269,288.29,217.0269" style="stroke:#181818;stroke-width:1;"/><text fill="#000000" font-family="sans-serif" font-size="13" lengthAdjust="spacing" textLength="168.6001" x="12.1" y="230.0938">/camera_1/tag_detections</text></g><!--reverse link observer to apriltag_2--><g class="link" data-entity-1="ent0005" data-entity-2="ent0004" data-link-type="dependency" data-source-line="26" id="lnk11"><path d="M374.71,199.0269 C374.71,156.1069 374.71,75.5969 374.71,75.5969 C374.71,75.5969 497.9,75.5969 585.72,75.5969" fill="none" id="observer-backto-apriltag_2" style="stroke:#181818;stroke-width:1;"/><polygon fill="#181818" points="374.71,205.0269,378.71,196.0269,374.71,200.0269,370.71,196.0269,374.71,205.0269" style="stroke:#181818;stroke-width:1;"/><text fill="#000000" font-family="sans-serif" font-size="13" lengthAdjust="spacing" textLength="168.6001" x="246.5" y="88.6638">/camera_2/tag_detections</text></g><!--link observer to ekf--><g class="link" data-entity-1="ent0005" data-entity-2="ent0006" data-link-type="dependency" data-source-line="27" id="lnk12"><path d="M461.16,228.5969 C489.03,228.5969 514.46,228.5969 544.39,228.5969" fill="none" id="observer-to-ekf" style="stroke:#181818;stroke-width:1;"/><polygon fill="#181818" points="550.39,228.5969,541.39,224.5969,545.39,228.5969,541.39,232.5969,550.39,228.5969" style="stroke:#181818;stroke-width:1;"/><text fill="#000000" font-family="sans-serif" font-size="13" lengthAdjust="spacing" textLength="109.3193" x="395.77" y="241.6638">/tag_global_pose</text></g><!--link rsp to rviz--><g class="link" data-entity-1="ent0002" data-entity-2="ent0007" data-link-type="dependency" data-source-line="30" id="lnk14"><path d="M199.06,306.5969 C379.76,306.5969 756.57,306.5969 877.31,306.5969" fill="none" id="rsp-to-rviz" style="stroke:#181818;stroke-width:1;stroke-dasharray:7,7;"/><polygon fill="#181818" points="883.31,306.5969,874.31,302.5969,878.31,306.5969,874.31,310.5969,883.31,306.5969" style="stroke:#181818;stroke-width:1;"/><text fill="#000000" font-family="sans-serif" font-size="13" lengthAdjust="spacing" textLength="78.5649" x="462.19" y="319.6638">/tf, /tf_static</text></g><!--link ekf to rviz--><g class="link" data-entity-1="ent0006" data-entity-2="ent0007" data-link-type="dependency" data-source-line="31" id="lnk15"><path d="M793.88,228.5969 C856.86,228.5969 920.71,228.5969 920.71,228.5969 C920.71,228.5969 920.71,258.3469 920.71,283.1969" fill="none" id="ekf-to-rviz" style="stroke:#181818;stroke-width:1;stroke-dasharray:7,7;"/><polygon fill="#181818" points="920.71,289.1969,924.71,280.1969,920.71,284.1969,916.71,280.1969,920.71,289.1969" style="stroke:#181818;stroke-width:1;"/><text fill="#000000" font-family="sans-serif" font-size="13" lengthAdjust="spacing" textLength="14.0537" x="872.59" y="241.6638">/tf</text></g><g class="legend" data-source-line="10"><rect fill="#DDDDDD" height="42.5938" rx="7.5" ry="7.5" style="stroke:#000000;stroke-width:1;" width="354.3398" x="583.3667" y="352.7438"/><text fill="#000000" font-family="sans-serif" font-size="14" lengthAdjust="spacing" textLength="343.3555" x="588.3667" y="370.7389">Solid arrows: topic flow between launched nodes</text><text fill="#000000" font-family="sans-serif" font-size="14" lengthAdjust="spacing" textLength="344.3398" x="588.3667" y="387.0357">Dashed arrows: TF flow between launched nodes</text></g><?plantuml-src VLAnRjmm3Dtr5KIMfa3FbtXhXan5buxfrWG6RT6sSB8eI7GEbw-FPCTdNt3DOfZaUu_ae-B1E8y11uWzQZuQrq6BDfAAvuh7ve0TFSd94WHg15rdjm1h7Cd94t2GdZS5nveYUVXvjqa6T8UFfALMG1Y2wNe1RRAuOQUK64czwf366NqrZ5PCrU1GM1nTqnV-D4dlXRrfeBLyL4ch8wTdAVN4rcZ04FWO7s25GKro978m2v6UHrI_CEPW8Vpz_IKwzPcxATNmuDcH4xW9NBDKKL2eycDjJP8CDu0HGlHR8FfWh63txFPf9mfOtU-Nt8HVWkh-Qrhv7rgvfUM4vqWLrv72wyT8Ix15qg6j1lJFxdPUnNA3rhnXFia-5_FstoTwYYvMVpLlvRng-bFg6_oXTE6b2M1oZqFoRpwnFS7eTCfVjQnGoI_O_UkDrkHUqgDqkyTrOBMw0xjFHNY0rT8CqIJpauehhOJTwA-Joi-aCsRfb1RF-0phBDTe9s_LD79HN8fA-oD_flrCSuPaYwwKi_9bMRq3?></g></svg>