<?plantuml 1.2026.1?><svg xmlns="http://www.w3.org/2000/svg" xmlns:xlink="http://www.w3.org/1999/xlink" contentStyleType="text/css" data-diagram-type="DESCRIPTION" height="382px" preserveAspectRatio="none" style="width:1015px;height:382px;background:#FFFFFF;" version="1.1" viewBox="0 0 1015 382" width="1015px" zoomAndPan="magnify"><title>localization.launch.py node/topic flow</title><defs/><g><g class="title" data-source-line="6"><text fill="#000000" font-family="sans-serif" font-size="14" font-weight="bold" lengthAdjust="spacing" textLength="299.4961" x="351.203" y="22.9951">localization.launch.py node/topic flow</text></g><!--entity t_wheel--><g class="entity" data-qualified-name="t_wheel" data-source-line="13" id="ent0002"><rect fill="#F1F1F1" height="62.5938" rx="2.5" ry="2.5" style="stroke:#181818;stroke-width:0.5;" width="184.8193" x="96.23" y="44.2969"/><rect fill="#F1F1F1" height="10" style="stroke:#181818;stroke-width:0.5;" width="15" x="261.0493" y="49.2969"/><rect fill="#F1F1F1" height="2" style="stroke:#181818;stroke-width:0.5;" width="4" x="259.0493" y="51.2969"/><rect fill="#F1F1F1" height="2" style="stroke:#181818;stroke-width:0.5;" width="4" x="259.0493" y="55.2969"/><text fill="#000000" font-family="sans-serif" font-size="14" lengthAdjust="spacing" textLength="134.2236" x="111.23" y="77.292">topic: /wheel/odom</text><text fill="#000000" font-family="sans-serif" font-size="14" lengthAdjust="spacing" textLength="144.8193" x="111.23" y="93.5889">nav_msgs/Odometry</text></g><!--entity t_imu--><g class="entity" data-qualified-name="t_imu" data-source-line="14" id="ent0003"><rect fill="#F1F1F1" height="62.5938" rx="2.5" ry="2.5" style="stroke:#181818;stroke-width:0.5;" width="161.8643" x="107.71" y="142.2969"/><rect fill="#F1F1F1" height="10" style="stroke:#181818;stroke-width:0.5;" width="15" x="249.5743" y="147.2969"/><rect fill="#F1F1F1" height="2" style="stroke:#181818;stroke-width:0.5;" width="4" x="247.5743" y="149.2969"/><rect fill="#F1F1F1" height="2" style="stroke:#181818;stroke-width:0.5;" width="4" x="247.5743" y="153.2969"/><text fill="#000000" font-family="sans-serif" font-size="14" lengthAdjust="spacing" textLength="111.0635" x="122.71" y="175.292">topic: /imu/data</text><text fill="#000000" font-family="sans-serif" font-size="14" lengthAdjust="spacing" textLength="121.8643" x="122.71" y="191.5889">sensor_msgs/Imu</text></g><!--entity t_tag--><g class="entity" data-qualified-name="t_tag" data-source-line="15" id="ent0004"><rect fill="#F1F1F1" height="62.5938" rx="2.5" ry="2.5" style="stroke:#181818;stroke-width:0.5;" width="363.2783" x="7" y="240.2969"/><rect fill="#F1F1F1" height="10" style="stroke:#181818;stroke-width:0.5;" width="15" x="350.2783" y="245.2969"/><rect fill="#F1F1F1" height="2" style="stroke:#181818;stroke-width:0.5;" width="4" x="348.2783" y="247.2969"/><rect fill="#F1F1F1" height="2" style="stroke:#181818;stroke-width:0.5;" width="4" x="348.2783" y="251.2969"/><text fill="#000000" font-family="sans-serif" font-size="14" lengthAdjust="spacing" textLength="161.4238" x="22" y="273.292">topic: /tag_global_pose</text><text fill="#000000" font-family="sans-serif" font-size="14" lengthAdjust="spacing" textLength="323.2783" x="22" y="289.5889">geometry_msgs/PoseWithCovarianceStamped</text></g><!--entity ekf--><g class="entity" data-qualified-name="ekf" data-source-line="16" id="ent0005"><rect fill="#F1F1F1" height="62.5938" rx="2.5" ry="2.5" style="stroke:#181818;stroke-width:0.5;" width="242.7471" x="430.28" y="142.2969"/><rect fill="#F1F1F1" height="10" style="stroke:#181818;stroke-width:0.5;" width="15" x="653.0271" y="147.2969"/><rect fill="#F1F1F1" height="2" style="stroke:#181818;stroke-width:0.5;" width="4" x="651.0271" y="149.2969"/><rect fill="#F1F1F1" height="2" style="stroke:#181818;stroke-width:0.5;" width="4" x="651.0271" y="153.2969"/><text fill="#000000" font-family="sans-serif" font-size="14" lengthAdjust="spacing" textLength="59.7529" x="445.28" y="175.292">ekf_map</text><text fill="#000000" font-family="sans-serif" font-size="14" lengthAdjust="spacing" textLength="202.7471" x="445.28" y="191.5889">(robot_localization/ekf_node)</text></g><!--entity t_filtered--><g class="entity" data-qualified-name="t_filtered" data-source-line="17" id="ent0006"><rect fill="#F1F1F1" height="62.5938" rx="2.5" ry="2.5" style="stroke:#181818;stroke-width:0.5;" width="210.9941" x="765.96" y="93.2969"/><rect fill="#F1F1F1" height="10" style="stroke:#181818;stroke-width:0.5;" width="15" x="956.9541" y="98.2969"/><rect fill="#F1F1F1" height="2" style="stroke:#181818;stroke-width:0.5;" width="4" x="954.9541" y="100.2969"/><rect fill="#F1F1F1" height="2" style="stroke:#181818;stroke-width:0.5;" width="4" x="954.9541" y="104.2969"/><text fill="#000000" font-family="sans-serif" font-size="14" lengthAdjust="spacing" textLength="170.9941" x="780.96" y="126.292">topic: /odometry/filtered</text><text fill="#000000" font-family="sans-serif" font-size="14" lengthAdjust="spacing" textLength="144.8193" x="780.96" y="142.5889">nav_msgs/Odometry</text></g><!--entity t_tf--><g class="entity" data-qualified-name="t_tf" data-source-line="18" id="ent0007"><rect fill="#F1F1F1" height="62.5938" rx="2.5" ry="2.5" style="stroke:#181818;stroke-width:0.5;" width="276.8721" x="733.03" y="191.2969"/><rect fill="#F1F1F1" height="10" style="stroke:#181818;stroke-width:0.5;" width="15" x="989.9021" y="196.2969"/><rect fill="#F1F1F1" height="2" style="stroke:#181818;stroke-width:0.5;" width="4" x="987.9021" y="198.2969"/><rect fill="#F1F1F1" height="2" style="stroke:#181818;stroke-width:0.5;" width="4" x="987.9021" y="202.2969"/><text fill="#000000" font-family="sans-serif" font-size="14" lengthAdjust="spacing" textLength="58.8301" x="748.03" y="224.292">topic: /tf</text><text fill="#000000" font-family="sans-serif" font-size="14" lengthAdjust="spacing" textLength="236.8721" x="748.03" y="240.5889">(map/odom/base_link transforms)</text></g><!--link t_wheel to ekf--><g class="link" data-entity-1="ent0002" data-entity-2="ent0005" data-link-type="dependency" data-source-line="20" id="lnk8"><path d="M274.9,107.1969 C274.9,130.4169 274.9,157.9369 274.9,157.9369 C274.9,157.9369 349.61,157.9369 423.86,157.9369" fill="none" id="t_wheel-to-ekf" style="stroke:#181818;stroke-width:1;"/><polygon fill="#181818" points="429.86,157.9369,420.86,153.9369,424.86,157.9369,420.86,161.9369,429.86,157.9369" style="stroke:#181818;stroke-width:1;"/><text fill="#000000" font-family="sans-serif" font-size="13" lengthAdjust="spacing" textLength="45.0938" x="281.01" y="171.0038">odom0</text></g><!--link t_imu to ekf--><g class="link" data-entity-1="ent0003" data-entity-2="ent0005" data-link-type="dependency" data-source-line="21" id="lnk9"><path d="M269.65,173.5869 C316.78,173.5869 371.09,173.5869 423.84,173.5869" fill="none" id="t_imu-to-ekf" style="stroke:#181818;stroke-width:1;"/><polygon fill="#181818" points="429.84,173.5869,420.84,169.5869,424.84,173.5869,420.84,177.5869,429.84,173.5869" style="stroke:#181818;stroke-width:1;"/><text fill="#000000" font-family="sans-serif" font-size="13" lengthAdjust="spacing" textLength="32.7856" x="350.75" y="169.6538">imu0</text></g><!--link t_tag to ekf--><g class="link" data-entity-1="ent0004" data-entity-2="ent0005" data-link-type="dependency" data-source-line="22" id="lnk10"><path d="M325.9,239.9869 C325.9,216.7669 325.9,189.2369 325.9,189.2369 C325.9,189.2369 370.54,189.2369 423.85,189.2369" fill="none" id="t_tag-to-ekf" style="stroke:#181818;stroke-width:1;"/><polygon fill="#181818" points="429.85,189.2369,420.85,185.2369,424.85,189.2369,420.85,193.2369,429.85,189.2369" style="stroke:#181818;stroke-width:1;"/><text fill="#000000" font-family="sans-serif" font-size="13" lengthAdjust="spacing" textLength="39.2476" x="312.5" y="202.3038">pose0</text></g><!--link ekf to t_filtered--><g class="link" data-entity-1="ent0005" data-entity-2="ent0006" data-link-type="dependency" data-source-line="23" id="lnk11"><path d="M673.47,149.0869 C703.83,149.0869 730.14,149.0869 759.66,149.0869" fill="none" id="ekf-to-t_filtered" style="stroke:#181818;stroke-width:1;"/><polygon fill="#181818" points="765.66,149.0869,756.66,145.0869,760.66,149.0869,756.66,153.0869,765.66,149.0869" style="stroke:#181818;stroke-width:1;"/><text fill="#000000" font-family="sans-serif" font-size="13" lengthAdjust="spacing" textLength="113.5786" x="720.56" y="162.1538">filtered odometry</text></g><!--link ekf to t_tf--><g class="link" data-entity-1="ent0005" data-entity-2="ent0007" data-link-type="dependency" data-source-line="24" id="lnk12"><path d="M673.47,198.0869 C692.8,198.0869 706.92,198.0869 726.6,198.0869" fill="none" id="ekf-to-t_tf" style="stroke:#181818;stroke-width:1;stroke-dasharray:7,7;"/><polygon fill="#181818" points="732.6,198.0869,723.6,194.0869,727.6,198.0869,723.6,202.0869,732.6,198.0869" style="stroke:#181818;stroke-width:1;"/><text fill="#000000" font-family="sans-serif" font-size="13" lengthAdjust="spacing" textLength="100.7246" x="704.04" y="194.1538">publish_tf=true</text></g><g class="legend" data-source-line="8"><rect fill="#DDDDDD" height="42.5938" rx="7.5" ry="7.5" style="stroke:#000000;stroke-width:1;" width="259.1152" x="730.7868" y="319.8906"/><text fill="#000000" font-family="sans-serif" font-size="14" lengthAdjust="spacing" textLength="167.3984" x="735.7868" y="337.8857">Solid arrows: topic flow.</text><text fill="#000000" font-family="sans-serif" font-size="14" lengthAdjust="spacing" textLength="249.1152" x="735.7868" y="354.1826">Dashed arrows: TF published on /tf.</text></g><?plantuml-src TLB1Rjim3BthAuYUsaEjdWEibmq3Ujg05jWbWC7Ob2r49WM9Rf1z_IGxQNp8Rk9xV4_a0_FHSyI44-GHUpbv7i1Xo6Jo5nEnE-90xteE18awHHx2jY5u9Zr70aawYWda55GW-M5Kw7sLU65Zr6jn2D9Xy7-nOat0cRknYMTWwScgHD-12t8onMOWxbSNyox1zu0foIdluDRMc1-OHxfH7pyXpeVW5r0OhBh659_LpPXEfYXChF2mkEp0daQYOAMNQS-Cd-sKXsn_bP8qdHy0CsYxzDmJ-scsFIhkEHDdIQlwRPelmiBVaoaExH3aWA6DacdF0wt_hVhV1VlZTVmkdvWySbVInobIVt4jygqh7LqxOTppOvA3QBkDs5QoXlkqQ4jrRnwvh6kT3qg9-lz7SUsukvOhCvH95Zzxm4njEOuZQ4BEJjAKdwuRk78FQwpm_FnQvu8TLDcBMLBReAMgO5bw0zRONanzL-msLg6-djUjbhQcULt-hThrGahnJTDCvXy0?></g></svg>