<?plantuml 1.2026.1?><svg xmlns="http://www.w3.org/2000/svg" xmlns:xlink="http://www.w3.org/1999/xlink" contentStyleType="text/css" data-diagram-type="DESCRIPTION" height="674px" preserveAspectRatio="none" style="width:1079px;height:674px;background:#FFFFFF;" version="1.1" viewBox="0 0 1079 674" width="1079px" zoomAndPan="magnify"><title>bringup_single_cam.launch.py node/topic flow</title><defs/><g><g class="title" data-source-line="8"><text fill="#000000" font-family="sans-serif" font-size="14" font-weight="bold" lengthAdjust="spacing" textLength="364.5127" x="350.4369" y="22.9951">bringup_single_cam.launch.py node/topic flow</text></g><!--entity rsp--><g class="entity" data-qualified-name="rsp" data-source-line="15" id="ent0002"><rect fill="#F1F1F1" height="46.2969" rx="2.5" ry="2.5" style="stroke:#181818;stroke-width:0.5;" width="191.6895" x="65.5" y="545.4469"/><rect fill="#F1F1F1" height="10" style="stroke:#181818;stroke-width:0.5;" width="15" x="237.1895" y="550.4469"/><rect fill="#F1F1F1" height="2" style="stroke:#181818;stroke-width:0.5;" width="4" x="235.1895" y="552.4469"/><rect fill="#F1F1F1" height="2" style="stroke:#181818;stroke-width:0.5;" width="4" x="235.1895" y="556.4469"/><text fill="#000000" font-family="sans-serif" font-size="14" lengthAdjust="spacing" textLength="151.6895" x="80.5" y="578.442">robot_state_publisher</text></g><!--entity static_tf--><g class="entity" data-qualified-name="static_tf" data-source-line="16" id="ent0003"><rect fill="#F1F1F1" height="62.5938" rx="2.5" ry="2.5" style="stroke:#181818;stroke-width:0.5;" width="289.8604" x="16.42" y="378.2969"/><rect fill="#F1F1F1" height="10" style="stroke:#181818;stroke-width:0.5;" width="15" x="286.2804" y="383.2969"/><rect fill="#F1F1F1" height="2" style="stroke:#181818;stroke-width:0.5;" width="4" x="284.2804" y="385.2969"/><rect fill="#F1F1F1" height="2" style="stroke:#181818;stroke-width:0.5;" width="4" x="284.2804" y="389.2969"/><text fill="#000000" font-family="sans-serif" font-size="14" lengthAdjust="spacing" textLength="177.1465" x="31.42" y="411.292">base_to_camera_static_tf</text><text fill="#000000" font-family="sans-serif" font-size="14" lengthAdjust="spacing" textLength="249.8604" x="31.42" y="427.5889">(tf2_ros/static_transform_publisher)</text></g><!--entity usb_cam--><g class="entity" data-qualified-name="usb_cam" data-source-line="17" id="ent0004"><rect fill="#F1F1F1" height="62.5938" rx="2.5" ry="2.5" style="stroke:#181818;stroke-width:0.5;" width="180.1709" x="396.28" y="127.2969"/><rect fill="#F1F1F1" height="10" style="stroke:#181818;stroke-width:0.5;" width="15" x="556.4509" y="132.2969"/><rect fill="#F1F1F1" height="2" style="stroke:#181818;stroke-width:0.5;" width="4" x="554.4509" y="134.2969"/><rect fill="#F1F1F1" height="2" style="stroke:#181818;stroke-width:0.5;" width="4" x="554.4509" y="138.2969"/><text fill="#000000" font-family="sans-serif" font-size="14" lengthAdjust="spacing" textLength="61.9678" x="411.28" y="160.292">usb_cam</text><text fill="#000000" font-family="sans-serif" font-size="14" lengthAdjust="spacing" textLength="140.1709" x="411.28" y="176.5889">/camera_1/usb_cam</text></g><!--entity rectify--><g class="entity" data-qualified-name="rectify" data-source-line="18" id="ent0005"><rect fill="#F1F1F1" height="62.5938" rx="2.5" ry="2.5" style="stroke:#181818;stroke-width:0.5;" width="204.8008" x="685.42" y="44.2969"/><rect fill="#F1F1F1" height="10" style="stroke:#181818;stroke-width:0.5;" width="15" x="870.2208" y="49.2969"/><rect fill="#F1F1F1" height="2" style="stroke:#181818;stroke-width:0.5;" width="4" x="868.2208" y="51.2969"/><rect fill="#F1F1F1" height="2" style="stroke:#181818;stroke-width:0.5;" width="4" x="868.2208" y="55.2969"/><text fill="#000000" font-family="sans-serif" font-size="14" lengthAdjust="spacing" textLength="86.5977" x="700.42" y="77.292">rectify_node</text><text fill="#000000" font-family="sans-serif" font-size="14" lengthAdjust="spacing" textLength="164.8008" x="700.42" y="93.5889">/camera_1/rectify_node</text></g><!--entity apriltag--><g class="entity" data-qualified-name="apriltag" data-source-line="19" id="ent0006"><rect fill="#F1F1F1" height="62.5938" rx="2.5" ry="2.5" style="stroke:#181818;stroke-width:0.5;" width="172.1592" x="75.27" y="127.2969"/><rect fill="#F1F1F1" height="10" style="stroke:#181818;stroke-width:0.5;" width="15" x="227.4292" y="132.2969"/><rect fill="#F1F1F1" height="2" style="stroke:#181818;stroke-width:0.5;" width="4" x="225.4292" y="134.2969"/><rect fill="#F1F1F1" height="2" style="stroke:#181818;stroke-width:0.5;" width="4" x="225.4292" y="138.2969"/><text fill="#000000" font-family="sans-serif" font-size="14" lengthAdjust="spacing" textLength="53.9561" x="90.27" y="160.292">apriltag</text><text fill="#000000" font-family="sans-serif" font-size="14" lengthAdjust="spacing" textLength="132.1592" x="90.27" y="176.5889">/camera_1/apriltag</text></g><!--entity observer--><g class="entity" data-qualified-name="observer" data-source-line="20" id="ent0007"><rect fill="#F1F1F1" height="46.2969" rx="2.5" ry="2.5" style="stroke:#181818;stroke-width:0.5;" width="172.084" x="400.32" y="465.4469"/><rect fill="#F1F1F1" height="10" style="stroke:#181818;stroke-width:0.5;" width="15" x="552.404" y="470.4469"/><rect fill="#F1F1F1" height="2" style="stroke:#181818;stroke-width:0.5;" width="4" x="550.404" y="472.4469"/><rect fill="#F1F1F1" height="2" style="stroke:#181818;stroke-width:0.5;" width="4" x="550.404" y="476.4469"/><text fill="#000000" font-family="sans-serif" font-size="14" lengthAdjust="spacing" textLength="132.084" x="415.32" y="498.442">tag_pose_observer</text></g><!--entity ekf--><g class="entity" data-qualified-name="ekf" data-source-line="21" id="ent0008"><rect fill="#F1F1F1" height="62.5938" rx="2.5" ry="2.5" style="stroke:#181818;stroke-width:0.5;" width="242.7471" x="666.45" y="461.2969"/><rect fill="#F1F1F1" height="10" style="stroke:#181818;stroke-width:0.5;" width="15" x="889.1971" y="466.2969"/><rect fill="#F1F1F1" height="2" style="stroke:#181818;stroke-width:0.5;" width="4" x="887.1971" y="468.2969"/><rect fill="#F1F1F1" height="2" style="stroke:#181818;stroke-width:0.5;" width="4" x="887.1971" y="472.2969"/><text fill="#000000" font-family="sans-serif" font-size="14" lengthAdjust="spacing" textLength="59.7529" x="681.45" y="494.292">ekf_map</text><text fill="#000000" font-family="sans-serif" font-size="14" lengthAdjust="spacing" textLength="202.7471" x="681.45" y="510.5889">(robot_localization/ekf_node)</text></g><!--entity rviz--><g class="entity" data-qualified-name="rviz" data-source-line="22" id="ent0009"><rect fill="#F1F1F1" height="46.2969" rx="2.5" ry="2.5" style="stroke:#181818;stroke-width:0.5;" width="74.1865" x="999.2" y="469.4469"/><rect fill="#F1F1F1" height="10" style="stroke:#181818;stroke-width:0.5;" width="15" x="1053.3865" y="474.4469"/><rect fill="#F1F1F1" height="2" style="stroke:#181818;stroke-width:0.5;" width="4" x="1051.3865" y="476.4469"/><rect fill="#F1F1F1" height="2" style="stroke:#181818;stroke-width:0.5;" width="4" x="1051.3865" y="480.4469"/><text fill="#000000" font-family="sans-serif" font-size="14" lengthAdjust="spacing" textLength="34.1865" x="1014.2" y="502.442">rviz2</text></g><!--link usb_cam to rectify--><g class="link" data-entity-1="ent0004" data-entity-2="ent0005" data-link-type="dependency" data-source-line="24" id="lnk10"><path d="M486.38,126.9769 C486.38,107.4169 486.38,86.0269 486.38,86.0269 C486.38,86.0269 591.6,86.0269 678.93,86.0269" fill="none" id="usb_cam-to-rectify" style="stroke:#181818;stroke-width:1;"/><polygon fill="#181818" points="684.93,86.0269,675.93,82.0269,679.93,86.0269,675.93,90.0269,684.93,86.0269" style="stroke:#181818;stroke-width:1;"/><text fill="#000000" font-family="sans-serif" font-size="13" lengthAdjust="spacing" textLength="143.5522" x="416.6964" y="99.0938">/camera_1/image_raw</text><text fill="#000000" font-family="sans-serif" font-size="13" lengthAdjust="spacing" textLength="152.585" x="412.18" y="114.2266">/camera_1/camera_info</text></g><!--reverse link apriltag to rectify--><g class="link" data-entity-1="ent0006" data-entity-2="ent0005" data-link-type="dependency" data-source-line="25" id="lnk12"><path d="M161.38,120.9569 C161.38,93.8569 161.38,65.1569 161.38,65.1569 C161.38,65.1569 507.36,65.1569 685.08,65.1569" fill="none" id="apriltag-backto-rectify" style="stroke:#181818;stroke-width:1;"/><polygon fill="#181818" points="161.38,126.9569,165.38,117.9569,161.38,121.9569,157.38,117.9569,161.38,126.9569" style="stroke:#181818;stroke-width:1;"/><text fill="#000000" font-family="sans-serif" font-size="13" lengthAdjust="spacing" textLength="145.1963" x="246.33" y="78.2238">/camera_1/image_rect</text></g><!--reverse link apriltag to usb_cam--><g class="link" data-entity-1="ent0006" data-entity-2="ent0004" data-link-type="dependency" data-source-line="26" id="lnk14"><path d="M253.59,148.1569 C299.39,148.1569 349.63,148.1569 396.02,148.1569" fill="none" id="apriltag-backto-usb_cam" style="stroke:#181818;stroke-width:1;"/><polygon fill="#181818" points="247.59,148.1569,256.59,152.1569,252.59,148.1569,256.59,144.1569,247.59,148.1569" style="stroke:#181818;stroke-width:1;"/><text fill="#000000" font-family="sans-serif" font-size="13" lengthAdjust="spacing" textLength="152.585" x="322.81" y="161.2238">/camera_1/camera_info</text></g><!--link apriltag to observer--><g class="link" data-entity-1="ent0006" data-entity-2="ent0007" data-link-type="dependency" data-source-line="28" id="lnk15"><path d="M247.75,169.0269 C297.95,169.0269 351.38,169.0269 351.38,169.0269 C351.38,169.0269 351.38,480.8769 351.38,480.8769 C351.38,480.8769 367.66,480.8769 394.11,480.8769" fill="none" id="apriltag-to-observer" style="stroke:#181818;stroke-width:1;"/><polygon fill="#181818" points="400.11,480.8769,391.11,476.8769,395.11,480.8769,391.11,484.8769,400.11,480.8769" style="stroke:#181818;stroke-width:1;"/><text fill="#000000" font-family="sans-serif" font-size="13" lengthAdjust="spacing" textLength="168.6001" x="182.38" y="310.5638">/camera_1/tag_detections</text></g><!--link observer to ekf--><g class="link" data-entity-1="ent0007" data-entity-2="ent0008" data-link-type="dependency" data-source-line="29" id="lnk16"><path d="M572.75,488.5869 C601.81,488.5869 628.79,488.5869 660.04,488.5869" fill="none" id="observer-to-ekf" style="stroke:#181818;stroke-width:1;"/><polygon fill="#181818" points="666.04,488.5869,657.04,484.5869,661.04,488.5869,657.04,492.5869,666.04,488.5869" style="stroke:#181818;stroke-width:1;"/><text fill="#000000" font-family="sans-serif" font-size="13" lengthAdjust="spacing" textLength="109.3193" x="509.4" y="501.6538">/tag_global_pose</text></g><!--link rsp to observer--><g class="link" data-entity-1="ent0002" data-entity-2="ent0007" data-link-type="dependency" data-source-line="31" id="lnk17"><path d="M257.55,560.8769 C353.39,560.8769 486.38,560.8769 486.38,560.8769 C486.38,560.8769 486.38,538.9869 486.38,517.8569" fill="none" id="rsp-to-observer" style="stroke:#181818;stroke-width:1;stroke-dasharray:7,7;"/><polygon fill="#181818" points="486.38,511.8569,482.38,520.8569,486.38,516.8569,490.38,520.8569,486.38,511.8569" style="stroke:#181818;stroke-width:1;"/><text fill="#000000" font-family="sans-serif" font-size="13" lengthAdjust="spacing" textLength="78.5649" x="317.47" y="573.9438">/tf, /tf_static</text></g><!--link static_tf to observer--><g class="link" data-entity-1="ent0003" data-entity-2="ent0007" data-link-type="dependency" data-source-line="32" id="lnk18"><path d="M281.38,440.8969 C281.38,465.7369 281.38,496.3069 281.38,496.3069 C281.38,496.3069 338.01,496.3069 394.03,496.3069" fill="none" id="static_tf-to-observer" style="stroke:#181818;stroke-width:1;stroke-dasharray:7,7;"/><polygon fill="#181818" points="400.03,496.3069,391.03,492.3069,395.03,496.3069,391.03,500.3069,400.03,496.3069" style="stroke:#181818;stroke-width:1;"/><text fill="#000000" font-family="sans-serif" font-size="13" lengthAdjust="spacing" textLength="305.6333" x="7" y="509.3738">/tf_static (base_link-&gt;camera_1_optical_frame)</text></g><!--link rsp to rviz--><g class="link" data-entity-1="ent0002" data-entity-2="ent0009" data-link-type="dependency" data-source-line="34" id="lnk19"><path d="M257.49,576.3069 C484.81,576.3069 1036.38,576.3069 1036.38,576.3069 C1036.38,576.3069 1036.38,546.6769 1036.38,521.9069" fill="none" id="rsp-to-rviz" style="stroke:#181818;stroke-width:1;stroke-dasharray:7,7;"/><polygon fill="#181818" points="1036.38,515.9069,1032.38,524.9069,1036.38,520.9069,1040.38,524.9069,1036.38,515.9069" style="stroke:#181818;stroke-width:1;"/><text fill="#000000" font-family="sans-serif" font-size="13" lengthAdjust="spacing" textLength="78.5649" x="598.14" y="589.3738">/tf, /tf_static</text></g><!--link static_tf to rviz--><g class="link" data-entity-1="ent0003" data-entity-2="ent0009" data-link-type="dependency" data-source-line="35" id="lnk20"><path d="M306.33,409.5869 C555.01,409.5869 1036.38,409.5869 1036.38,409.5869 C1036.38,409.5869 1036.38,438.4869 1036.38,463.0269" fill="none" id="static_tf-to-rviz" style="stroke:#181818;stroke-width:1;stroke-dasharray:7,7;"/><polygon fill="#181818" points="1036.38,469.0269,1040.38,460.0269,1036.38,464.0269,1032.38,460.0269,1036.38,469.0269" style="stroke:#181818;stroke-width:1;"/><text fill="#000000" font-family="sans-serif" font-size="13" lengthAdjust="spacing" textLength="56.2466" x="644.08" y="422.6538">/tf_static</text></g><!--link ekf to rviz--><g class="link" data-entity-1="ent0008" data-entity-2="ent0009" data-link-type="dependency" data-source-line="36" id="lnk21"><path d="M909.51,492.5869 C941.97,492.5869 968.66,492.5869 992.72,492.5869" fill="none" id="ekf-to-rviz" style="stroke:#181818;stroke-width:1;stroke-dasharray:7,7;"/><polygon fill="#181818" points="998.72,492.5869,989.72,488.5869,993.72,492.5869,989.72,496.5869,998.72,492.5869" style="stroke:#181818;stroke-width:1;"/><text fill="#000000" font-family="sans-serif" font-size="13" lengthAdjust="spacing" textLength="14.0537" x="939.11" y="505.6538">/tf</text></g><g class="legend" data-source-line="10"><rect fill="#DDDDDD" height="42.5938" rx="7.5" ry="7.5" style="stroke:#000000;stroke-width:1;" width="354.3398" x="699.0467" y="611.4397"/><text fill="#000000" font-family="sans-serif" font-size="14" lengthAdjust="spacing" textLength="343.3555" x="704.0467" y="629.4348">Solid arrows: topic flow between launched nodes</text><text fill="#000000" font-family="sans-serif" font-size="14" lengthAdjust="spacing" textLength="344.3398" x="704.0467" y="645.7317">Dashed arrows: TF flow between launched nodes</text></g><?plantuml-src XLF1Rjim3BthAuYUMc19jjxMmqx3Vg0x5X1ectA4oA8WAGtIhnzbMx42TDl54Cdt7la8Efsi3nXnWdJ4WI_MZs3G9LBfLWdOdt2artnr197wZ7vqBS1PJ_aQ23Zc8pS5pmCb2l3zQvECw4zhqf79a1cY7OyP1bl4BNkbiitIguiopZdeP4j3tUEqTtZs_N4VhhFs8NEmFHZ75oLY8_bXqLAlxEm062DVqWjiCEWeNuWyB48qB3EgdvXAK0c_V_qJBNsMRahrF0Nsv3CyHEuuwvGnamxdpbcHZ0-02M8ABR33H3fpCKGHPuRjTJPl_Z6RPnqv7MfEbfKCnsaJV9eLRvnMzvoweldc3wlojyEQcZdh-sxaid1prSLMIslpYuCbqN8nHEioZYslvcPE3LgIX3gmsESkKNnVzrE35aadeoSCifDbhuvxTFO3ou4SIh7CjYn3eZjJx_RZUPbQNagjlc4dz-rtFweNU85jS3l9XUk8bzRD-h3UiAgatJc8HBNscOO0jvP_HxVYweRO2RnkumvU5ZTGNdwGf6wOGX3_1LiWe-CEtRnYfUJiOB-_5ypcI_ciHwTkT_G9SCN0utolyfEVTZ_gF9g3bAIJaL-QdhPUPUN_xRE1QhrOkA-eFm00?></g></svg>