<?plantuml 1.2026.1?><svg xmlns="http://www.w3.org/2000/svg" xmlns:xlink="http://www.w3.org/1999/xlink" contentStyleType="text/css" data-diagram-type="DESCRIPTION" height="1045px" preserveAspectRatio="none" style="width:1101px;height:1045px;background:#FFFFFF;" version="1.1" viewBox="0 0 1101 1045" width="1101px" zoomAndPan="magnify"><title>arena_bringup node/topic flow</title><defs/><g><g class="title" data-source-line="8"><text fill="#000000" font-family="sans-serif" font-size="14" font-weight="bold" lengthAdjust="spacing" textLength="240.7959" x="423.5821" y="22.9951">arena_bringup node/topic flow</text></g><!--cluster bringup_single_cam.launch.py (defaults from config/bringup.yaml)--><g class="cluster" data-qualified-name="bringup_single_cam.launch.py .defaults from config.bringup.yaml." data-source-line="15" id="ent0002"><rect fill="none" height="525" rx="2.5" ry="2.5" style="stroke:#181818;stroke-width:1;" width="1088.96" x="7" y="441.2969"/><text fill="#000000" font-family="sans-serif" font-size="14" font-weight="bold" lengthAdjust="spacing" textLength="526.0322" x="288.4639" y="456.292">bringup_single_cam.launch.py (defaults from config/bringup.yaml)</text></g><!--cluster bringup_multi_cam.launch.py--><g class="cluster" data-qualified-name="bringup_multi_cam.launch.py" data-source-line="40" id="ent0023"><rect fill="none" height="358" rx="2.5" ry="2.5" style="stroke:#181818;stroke-width:1;" width="1039.87" x="56.09" y="44.2969"/><text fill="#000000" font-family="sans-serif" font-size="14" font-weight="bold" lengthAdjust="spacing" textLength="231.1094" x="460.4703" y="59.292">bringup_multi_cam.launch.py</text></g><!--entity sc_rsp--><g class="entity" data-qualified-name="bringup_single_cam.launch.py .defaults from config.bringup.yaml..sc_rsp" data-source-line="16" id="ent0003"><rect fill="#F1F1F1" height="46.2969" rx="2.5" ry="2.5" style="stroke:#181818;stroke-width:0.5;" width="191.6895" x="72.09" y="629.1469"/><rect fill="#F1F1F1" height="10" style="stroke:#181818;stroke-width:0.5;" width="15" x="243.7795" y="634.1469"/><rect fill="#F1F1F1" height="2" style="stroke:#181818;stroke-width:0.5;" width="4" x="241.7795" y="636.1469"/><rect fill="#F1F1F1" height="2" style="stroke:#181818;stroke-width:0.5;" width="4" x="241.7795" y="640.1469"/><text fill="#000000" font-family="sans-serif" font-size="14" lengthAdjust="spacing" textLength="151.6895" x="87.09" y="662.142">robot_state_publisher</text></g><!--entity sc_static_tf--><g class="entity" data-qualified-name="bringup_single_cam.launch.py .defaults from config.bringup.yaml..sc_static_tf" data-source-line="17" id="ent0004"><rect fill="#F1F1F1" height="62.5938" rx="2.5" ry="2.5" style="stroke:#181818;stroke-width:0.5;" width="289.8604" x="23" y="476.9969"/><rect fill="#F1F1F1" height="10" style="stroke:#181818;stroke-width:0.5;" width="15" x="292.8604" y="481.9969"/><rect fill="#F1F1F1" height="2" style="stroke:#181818;stroke-width:0.5;" width="4" x="290.8604" y="483.9969"/><rect fill="#F1F1F1" height="2" style="stroke:#181818;stroke-width:0.5;" width="4" x="290.8604" y="487.9969"/><text fill="#000000" font-family="sans-serif" font-size="14" lengthAdjust="spacing" textLength="177.1465" x="38" y="509.992">base_to_camera_static_tf</text><text fill="#000000" font-family="sans-serif" font-size="14" lengthAdjust="spacing" textLength="249.8604" x="38" y="526.2889">(tf2_ros/static_transform_publisher)</text></g><!--entity sc_usb_cam--><g class="entity" data-qualified-name="bringup_single_cam.launch.py .defaults from config.bringup.yaml..sc_usb_cam" data-source-line="18" id="ent0005"><rect fill="#F1F1F1" height="62.5938" rx="2.5" ry="2.5" style="stroke:#181818;stroke-width:0.5;" width="180.1709" x="402.86" y="887.9969"/><rect fill="#F1F1F1" height="10" style="stroke:#181818;stroke-width:0.5;" width="15" x="563.0309" y="892.9969"/><rect fill="#F1F1F1" height="2" style="stroke:#181818;stroke-width:0.5;" width="4" x="561.0309" y="894.9969"/><rect fill="#F1F1F1" height="2" style="stroke:#181818;stroke-width:0.5;" width="4" x="561.0309" y="898.9969"/><text fill="#000000" font-family="sans-serif" font-size="14" lengthAdjust="spacing" textLength="61.9678" x="417.86" y="920.992">usb_cam</text><text fill="#000000" font-family="sans-serif" font-size="14" lengthAdjust="spacing" textLength="140.1709" x="417.86" y="937.2889">/camera_1/usb_cam</text></g><!--entity sc_rectify--><g class="entity" data-qualified-name="bringup_single_cam.launch.py .defaults from config.bringup.yaml..sc_rectify" data-source-line="19" id="ent0006"><rect fill="#F1F1F1" height="62.5938" rx="2.5" ry="2.5" style="stroke:#181818;stroke-width:0.5;" width="204.8008" x="692" y="849.9969"/><rect fill="#F1F1F1" height="10" style="stroke:#181818;stroke-width:0.5;" width="15" x="876.8008" y="854.9969"/><rect fill="#F1F1F1" height="2" style="stroke:#181818;stroke-width:0.5;" width="4" x="874.8008" y="856.9969"/><rect fill="#F1F1F1" height="2" style="stroke:#181818;stroke-width:0.5;" width="4" x="874.8008" y="860.9969"/><text fill="#000000" font-family="sans-serif" font-size="14" lengthAdjust="spacing" textLength="86.5977" x="707" y="882.992">rectify_node</text><text fill="#000000" font-family="sans-serif" font-size="14" lengthAdjust="spacing" textLength="164.8008" x="707" y="899.2889">/camera_1/rectify_node</text></g><!--entity sc_apriltag--><g class="entity" data-qualified-name="bringup_single_cam.launch.py .defaults from config.bringup.yaml..sc_apriltag" data-source-line="20" id="ent0007"><rect fill="#F1F1F1" height="62.5938" rx="2.5" ry="2.5" style="stroke:#181818;stroke-width:0.5;" width="172.1592" x="81.85" y="765.9969"/><rect fill="#F1F1F1" height="10" style="stroke:#181818;stroke-width:0.5;" width="15" x="234.0092" y="770.9969"/><rect fill="#F1F1F1" height="2" style="stroke:#181818;stroke-width:0.5;" width="4" x="232.0092" y="772.9969"/><rect fill="#F1F1F1" height="2" style="stroke:#181818;stroke-width:0.5;" width="4" x="232.0092" y="776.9969"/><text fill="#000000" font-family="sans-serif" font-size="14" lengthAdjust="spacing" textLength="53.9561" x="96.85" y="798.992">apriltag</text><text fill="#000000" font-family="sans-serif" font-size="14" lengthAdjust="spacing" textLength="132.1592" x="96.85" y="815.2889">/camera_1/apriltag</text></g><!--entity sc_observer--><g class="entity" data-qualified-name="bringup_single_cam.launch.py .defaults from config.bringup.yaml..sc_observer" data-source-line="21" id="ent0008"><rect fill="#F1F1F1" height="46.2969" rx="2.5" ry="2.5" style="stroke:#181818;stroke-width:0.5;" width="172.084" x="406.9" y="660.1469"/><rect fill="#F1F1F1" height="10" style="stroke:#181818;stroke-width:0.5;" width="15" x="558.984" y="665.1469"/><rect fill="#F1F1F1" height="2" style="stroke:#181818;stroke-width:0.5;" width="4" x="556.984" y="667.1469"/><rect fill="#F1F1F1" height="2" style="stroke:#181818;stroke-width:0.5;" width="4" x="556.984" y="671.1469"/><text fill="#000000" font-family="sans-serif" font-size="14" lengthAdjust="spacing" textLength="132.084" x="421.9" y="693.142">tag_pose_observer</text></g><!--entity sc_ekf--><g class="entity" data-qualified-name="bringup_single_cam.launch.py .defaults from config.bringup.yaml..sc_ekf" data-source-line="22" id="ent0009"><rect fill="#F1F1F1" height="62.5938" rx="2.5" ry="2.5" style="stroke:#181818;stroke-width:0.5;" width="242.7471" x="673.03" y="659.9969"/><rect fill="#F1F1F1" height="10" style="stroke:#181818;stroke-width:0.5;" width="15" x="895.7771" y="664.9969"/><rect fill="#F1F1F1" height="2" style="stroke:#181818;stroke-width:0.5;" width="4" x="893.7771" y="666.9969"/><rect fill="#F1F1F1" height="2" style="stroke:#181818;stroke-width:0.5;" width="4" x="893.7771" y="670.9969"/><text fill="#000000" font-family="sans-serif" font-size="14" lengthAdjust="spacing" textLength="59.7529" x="688.03" y="692.992">ekf_map</text><text fill="#000000" font-family="sans-serif" font-size="14" lengthAdjust="spacing" textLength="202.7471" x="688.03" y="709.2889">(robot_localization/ekf_node)</text></g><!--entity sc_rviz--><g class="entity" data-qualified-name="bringup_single_cam.launch.py .defaults from config.bringup.yaml..sc_rviz" data-source-line="23" id="ent0010"><rect fill="#F1F1F1" height="46.2969" rx="2.5" ry="2.5" style="stroke:#181818;stroke-width:0.5;" width="74.1865" x="1005.78" y="546.1469"/><rect fill="#F1F1F1" height="10" style="stroke:#181818;stroke-width:0.5;" width="15" x="1059.9665" y="551.1469"/><rect fill="#F1F1F1" height="2" style="stroke:#181818;stroke-width:0.5;" width="4" x="1057.9665" y="553.1469"/><rect fill="#F1F1F1" height="2" style="stroke:#181818;stroke-width:0.5;" width="4" x="1057.9665" y="557.1469"/><text fill="#000000" font-family="sans-serif" font-size="14" lengthAdjust="spacing" textLength="34.1865" x="1020.78" y="579.142">rviz2</text></g><!--entity mc_rsp--><g class="entity" data-qualified-name="bringup_multi_cam.launch.py.mc_rsp" data-source-line="41" id="ent0024"><rect fill="#F1F1F1" height="46.2969" rx="2.5" ry="2.5" style="stroke:#181818;stroke-width:0.5;" width="191.6895" x="72.09" y="340.1469"/><rect fill="#F1F1F1" height="10" style="stroke:#181818;stroke-width:0.5;" width="15" x="243.7795" y="345.1469"/><rect fill="#F1F1F1" height="2" style="stroke:#181818;stroke-width:0.5;" width="4" x="241.7795" y="347.1469"/><rect fill="#F1F1F1" height="2" style="stroke:#181818;stroke-width:0.5;" width="4" x="241.7795" y="351.1469"/><text fill="#000000" font-family="sans-serif" font-size="14" lengthAdjust="spacing" textLength="151.6895" x="87.09" y="373.142">robot_state_publisher</text></g><!--entity mc_apriltag_1--><g class="entity" data-qualified-name="bringup_multi_cam.launch.py.mc_apriltag_1" data-source-line="42" id="ent0025"><rect fill="#F1F1F1" height="62.5938" rx="2.5" ry="2.5" style="stroke:#181818;stroke-width:0.5;" width="172.1592" x="81.85" y="187.9969"/><rect fill="#F1F1F1" height="10" style="stroke:#181818;stroke-width:0.5;" width="15" x="234.0092" y="192.9969"/><rect fill="#F1F1F1" height="2" style="stroke:#181818;stroke-width:0.5;" width="4" x="232.0092" y="194.9969"/><rect fill="#F1F1F1" height="2" style="stroke:#181818;stroke-width:0.5;" width="4" x="232.0092" y="198.9969"/><text fill="#000000" font-family="sans-serif" font-size="14" lengthAdjust="spacing" textLength="53.9561" x="96.85" y="220.992">apriltag</text><text fill="#000000" font-family="sans-serif" font-size="14" lengthAdjust="spacing" textLength="132.1592" x="96.85" y="237.2889">/camera_1/apriltag</text></g><!--entity mc_apriltag_2--><g class="entity" data-qualified-name="bringup_multi_cam.launch.py.mc_apriltag_2" data-source-line="43" id="ent0026"><rect fill="#F1F1F1" height="62.5938" rx="2.5" ry="2.5" style="stroke:#181818;stroke-width:0.5;" width="172.1592" x="708.33" y="231.9969"/><rect fill="#F1F1F1" height="10" style="stroke:#181818;stroke-width:0.5;" width="15" x="860.4892" y="236.9969"/><rect fill="#F1F1F1" height="2" style="stroke:#181818;stroke-width:0.5;" width="4" x="858.4892" y="238.9969"/><rect fill="#F1F1F1" height="2" style="stroke:#181818;stroke-width:0.5;" width="4" x="858.4892" y="242.9969"/><text fill="#000000" font-family="sans-serif" font-size="14" lengthAdjust="spacing" textLength="53.9561" x="723.33" y="264.992">apriltag</text><text fill="#000000" font-family="sans-serif" font-size="14" lengthAdjust="spacing" textLength="132.1592" x="723.33" y="281.2889">/camera_2/apriltag</text></g><!--entity mc_observer--><g class="entity" data-qualified-name="bringup_multi_cam.launch.py.mc_observer" data-source-line="44" id="ent0027"><rect fill="#F1F1F1" height="46.2969" rx="2.5" ry="2.5" style="stroke:#181818;stroke-width:0.5;" width="172.084" x="406.9" y="218.1469"/><rect fill="#F1F1F1" height="10" style="stroke:#181818;stroke-width:0.5;" width="15" x="558.984" y="223.1469"/><rect fill="#F1F1F1" height="2" style="stroke:#181818;stroke-width:0.5;" width="4" x="556.984" y="225.1469"/><rect fill="#F1F1F1" height="2" style="stroke:#181818;stroke-width:0.5;" width="4" x="556.984" y="229.1469"/><text fill="#000000" font-family="sans-serif" font-size="14" lengthAdjust="spacing" textLength="132.084" x="421.9" y="251.142">tag_pose_observer</text></g><!--entity mc_ekf--><g class="entity" data-qualified-name="bringup_multi_cam.launch.py.mc_ekf" data-source-line="45" id="ent0028"><rect fill="#F1F1F1" height="62.5938" rx="2.5" ry="2.5" style="stroke:#181818;stroke-width:0.5;" width="242.7471" x="673.03" y="78.9969"/><rect fill="#F1F1F1" height="10" style="stroke:#181818;stroke-width:0.5;" width="15" x="895.7771" y="83.9969"/><rect fill="#F1F1F1" height="2" style="stroke:#181818;stroke-width:0.5;" width="4" x="893.7771" y="85.9969"/><rect fill="#F1F1F1" height="2" style="stroke:#181818;stroke-width:0.5;" width="4" x="893.7771" y="89.9969"/><text fill="#000000" font-family="sans-serif" font-size="14" lengthAdjust="spacing" textLength="59.7529" x="688.03" y="111.992">ekf_map</text><text fill="#000000" font-family="sans-serif" font-size="14" lengthAdjust="spacing" textLength="202.7471" x="688.03" y="128.2889">(robot_localization/ekf_node)</text></g><!--entity mc_rviz--><g class="entity" data-qualified-name="bringup_multi_cam.launch.py.mc_rviz" data-source-line="46" id="ent0029"><rect fill="#F1F1F1" height="46.2969" rx="2.5" ry="2.5" style="stroke:#181818;stroke-width:0.5;" width="74.1865" x="1005.78" y="214.1469"/><rect fill="#F1F1F1" height="10" style="stroke:#181818;stroke-width:0.5;" width="15" x="1059.9665" y="219.1469"/><rect fill="#F1F1F1" height="2" style="stroke:#181818;stroke-width:0.5;" width="4" x="1057.9665" y="221.1469"/><rect fill="#F1F1F1" height="2" style="stroke:#181818;stroke-width:0.5;" width="4" x="1057.9665" y="225.1469"/><text fill="#000000" font-family="sans-serif" font-size="14" lengthAdjust="spacing" textLength="34.1865" x="1020.78" y="247.142">rviz2</text></g><!--link sc_usb_cam to sc_rectify--><g class="link" data-entity-1="ent0005" data-entity-2="ent0006" data-link-type="dependency" data-source-line="25" id="lnk11"><path d="M583.39,900.2969 C617.47,900.2969 650.47,900.2969 685.6,900.2969" fill="none" id="sc_usb_cam-to-sc_rectify" style="stroke:#181818;stroke-width:1;"/><polygon fill="#181818" points="691.6,900.2969,682.6,896.2969,686.6,900.2969,682.6,904.2969,691.6,900.2969" style="stroke:#181818;stroke-width:1;"/><text fill="#000000" font-family="sans-serif" font-size="13" lengthAdjust="spacing" textLength="143.5522" x="489.0164" y="881.3638">/camera_1/image_raw</text><text fill="#000000" font-family="sans-serif" font-size="13" lengthAdjust="spacing" textLength="152.585" x="484.5" y="896.4966">/camera_1/camera_info</text></g><!--reverse link sc_apriltag to sc_rectify--><g class="link" data-entity-1="ent0007" data-entity-2="ent0006" data-link-type="dependency" data-source-line="26" id="lnk13"><path d="M196.96,834.9569 C196.96,854.1669 196.96,868.9969 196.96,868.9969 C196.96,868.9969 520.88,868.9969 691.7,868.9969" fill="none" id="sc_apriltag-backto-sc_rectify" style="stroke:#181818;stroke-width:1;"/><polygon fill="#181818" points="196.96,828.9569,192.96,837.9569,196.96,833.9569,200.96,837.9569,196.96,828.9569" style="stroke:#181818;stroke-width:1;"/><text fill="#000000" font-family="sans-serif" font-size="13" lengthAdjust="spacing" textLength="145.1963" x="278.31" y="882.0638">/camera_1/image_rect</text></g><!--reverse link sc_apriltag to sc_usb_cam--><g class="link" data-entity-1="ent0007" data-entity-2="ent0005" data-link-type="dependency" data-source-line="27" id="lnk15"><path d="M138.96,835.0369 C138.96,871.1769 138.96,919.2969 138.96,919.2969 C138.96,919.2969 297.83,919.2969 402.71,919.2969" fill="none" id="sc_apriltag-backto-sc_usb_cam" style="stroke:#181818;stroke-width:1;"/><polygon fill="#181818" points="138.96,829.0369,134.96,838.0369,138.96,834.0369,142.96,838.0369,138.96,829.0369" style="stroke:#181818;stroke-width:1;"/><text fill="#000000" font-family="sans-serif" font-size="13" lengthAdjust="spacing" textLength="152.585" x="72.7" y="932.3638">/camera_1/camera_info</text></g><!--link sc_apriltag to sc_observer--><g class="link" data-entity-1="ent0007" data-entity-2="ent0008" data-link-type="dependency" data-source-line="29" id="lnk16"><path d="M167.96,765.6769 C167.96,734.3269 167.96,690.9469 167.96,690.9469 C167.96,690.9469 304.43,690.9469 400.71,690.9469" fill="none" id="sc_apriltag-to-sc_observer" style="stroke:#181818;stroke-width:1;"/><polygon fill="#181818" points="406.71,690.9469,397.71,686.9469,401.71,690.9469,397.71,694.9469,406.71,690.9469" style="stroke:#181818;stroke-width:1;"/><text fill="#000000" font-family="sans-serif" font-size="13" lengthAdjust="spacing" textLength="168.6001" x="80.97" y="704.0138">/camera_1/tag_detections</text></g><!--link sc_observer to sc_ekf--><g class="link" data-entity-1="ent0008" data-entity-2="ent0009" data-link-type="dependency" data-source-line="30" id="lnk17"><path d="M579.33,683.2969 C608.39,683.2969 635.37,683.2969 666.63,683.2969" fill="none" id="sc_observer-to-sc_ekf" style="stroke:#181818;stroke-width:1;"/><polygon fill="#181818" points="672.63,683.2969,663.63,679.2969,667.63,683.2969,663.63,687.2969,672.63,683.2969" style="stroke:#181818;stroke-width:1;"/><text fill="#000000" font-family="sans-serif" font-size="13" lengthAdjust="spacing" textLength="109.3193" x="515.98" y="696.3638">/tag_global_pose</text></g><!--link sc_rsp to sc_observer--><g class="link" data-entity-1="ent0003" data-entity-2="ent0008" data-link-type="dependency" data-source-line="32" id="lnk18"><path d="M264.13,670.3469 C309.24,670.3469 356.58,670.3469 400.41,670.3469" fill="none" id="sc_rsp-to-sc_observer" style="stroke:#181818;stroke-width:1;stroke-dasharray:7,7;"/><polygon fill="#181818" points="406.41,670.3469,397.41,666.3469,401.41,670.3469,397.41,674.3469,406.41,670.3469" style="stroke:#181818;stroke-width:1;"/><text fill="#000000" font-family="sans-serif" font-size="13" lengthAdjust="spacing" textLength="78.5649" x="256.27" y="683.4138">/tf, /tf_static</text></g><!--link sc_static_tf to sc_observer--><g class="link" data-entity-1="ent0004" data-entity-2="ent0008" data-link-type="dependency" data-source-line="33" id="lnk19"><path d="M279.96,540.0569 C279.96,585.9169 279.96,665.2469 279.96,665.2469 C279.96,665.2469 341.59,665.2469 400.63,665.2469" fill="none" id="sc_static_tf-to-sc_observer" style="stroke:#181818;stroke-width:1;stroke-dasharray:7,7;"/><polygon fill="#181818" points="406.63,665.2469,397.63,661.2469,401.63,665.2469,397.63,669.2469,406.63,665.2469" style="stroke:#181818;stroke-width:1;"/><text fill="#000000" font-family="sans-serif" font-size="13" lengthAdjust="spacing" textLength="305.6333" x="281.7" y="661.3138">/tf_static (base_link-&gt;camera_1_optical_frame)</text></g><!--link sc_rsp to sc_rviz--><g class="link" data-entity-1="ent0003" data-entity-2="ent0010" data-link-type="dependency" data-source-line="35" id="lnk20"><path d="M264.08,644.5769 C491.39,644.5769 1042.96,644.5769 1042.96,644.5769 C1042.96,644.5769 1042.96,620.7969 1042.96,598.7069" fill="none" id="sc_rsp-to-sc_rviz" style="stroke:#181818;stroke-width:1;stroke-dasharray:7,7;"/><polygon fill="#181818" points="1042.96,592.7069,1038.96,601.7069,1042.96,597.7069,1046.96,601.7069,1042.96,592.7069" style="stroke:#181818;stroke-width:1;"/><text fill="#000000" font-family="sans-serif" font-size="13" lengthAdjust="spacing" textLength="78.5649" x="600.46" y="640.6438">/tf, /tf_static</text></g><!--link sc_static_tf to sc_rviz--><g class="link" data-entity-1="ent0004" data-entity-2="ent0010" data-link-type="dependency" data-source-line="36" id="lnk21"><path d="M296.96,539.9069 C296.96,551.3769 296.96,561.5769 296.96,561.5769 C296.96,561.5769 848.11,561.5769 999.37,561.5769" fill="none" id="sc_static_tf-to-sc_rviz" style="stroke:#181818;stroke-width:1;stroke-dasharray:7,7;"/><polygon fill="#181818" points="1005.37,561.5769,996.37,557.5769,1000.37,561.5769,996.37,565.5769,1005.37,561.5769" style="stroke:#181818;stroke-width:1;"/><text fill="#000000" font-family="sans-serif" font-size="13" lengthAdjust="spacing" textLength="56.2466" x="583.33" y="574.6438">/tf_static</text></g><!--link sc_ekf to sc_rviz--><g class="link" data-entity-1="ent0009" data-entity-2="ent0010" data-link-type="dependency" data-source-line="37" id="lnk22"><path d="M903.96,659.7669 C903.96,625.9369 903.96,577.0169 903.96,577.0169 C903.96,577.0169 958.14,577.0169 999.28,577.0169" fill="none" id="sc_ekf-to-sc_rviz" style="stroke:#181818;stroke-width:1;stroke-dasharray:7,7;"/><polygon fill="#181818" points="1005.28,577.0169,996.28,573.0169,1000.28,577.0169,996.28,581.0169,1005.28,577.0169" style="stroke:#181818;stroke-width:1;"/><text fill="#000000" font-family="sans-serif" font-size="13" lengthAdjust="spacing" textLength="14.0537" x="898.25" y="590.0838">/tf</text></g><!--link mc_apriltag_1 to mc_observer--><g class="link" data-entity-1="ent0025" data-entity-2="ent0027" data-link-type="dependency" data-source-line="48" id="lnk30"><path d="M254.18,234.3669 C301.28,234.3669 353.45,234.3669 400.58,234.3669" fill="none" id="mc_apriltag_1-to-mc_observer" style="stroke:#181818;stroke-width:1;"/><polygon fill="#181818" points="406.58,234.3669,397.58,230.3669,401.58,234.3669,397.58,238.3669,406.58,234.3669" style="stroke:#181818;stroke-width:1;"/><text fill="#000000" font-family="sans-serif" font-size="13" lengthAdjust="spacing" textLength="168.6001" x="331.38" y="230.4338">/camera_1/tag_detections</text></g><!--reverse link mc_observer to mc_apriltag_2--><g class="link" data-entity-1="ent0027" data-entity-2="ent0026" data-link-type="dependency" data-source-line="49" id="lnk32"><path d="M585.33,248.2269 C625.7,248.2269 667.64,248.2269 708.01,248.2269" fill="none" id="mc_observer-backto-mc_apriltag_2" style="stroke:#181818;stroke-width:1;"/><polygon fill="#181818" points="579.33,248.2269,588.33,252.2269,584.33,248.2269,588.33,244.2269,579.33,248.2269" style="stroke:#181818;stroke-width:1;"/><text fill="#000000" font-family="sans-serif" font-size="13" lengthAdjust="spacing" textLength="168.6001" x="474.67" y="261.2938">/camera_2/tag_detections</text></g><!--link mc_observer to mc_ekf--><g class="link" data-entity-1="ent0027" data-entity-2="ent0028" data-link-type="dependency" data-source-line="50" id="lnk33"><path d="M579.22,227.3869 C632.59,227.3869 690.96,227.3869 690.96,227.3869 C690.96,227.3869 690.96,182.6569 690.96,147.9869" fill="none" id="mc_observer-to-mc_ekf" style="stroke:#181818;stroke-width:1;"/><polygon fill="#181818" points="690.96,141.9869,686.96,150.9869,690.96,146.9869,694.96,150.9869,690.96,141.9869" style="stroke:#181818;stroke-width:1;"/><text fill="#000000" font-family="sans-serif" font-size="13" lengthAdjust="spacing" textLength="109.3193" x="678.79" y="223.4538">/tag_global_pose</text></g><!--link mc_rsp to mc_observer--><g class="link" data-entity-1="ent0024" data-entity-2="ent0027" data-link-type="dependency" data-source-line="52" id="lnk34"><path d="M258.96,339.8169 C258.96,308.6569 258.96,257.5169 258.96,257.5169 C258.96,257.5169 333.83,257.5169 400.48,257.5169" fill="none" id="mc_rsp-to-mc_observer" style="stroke:#181818;stroke-width:1;stroke-dasharray:7,7;"/><polygon fill="#181818" points="406.48,257.5169,397.48,253.5169,401.48,257.5169,397.48,261.5169,406.48,257.5169" style="stroke:#181818;stroke-width:1;"/><text fill="#000000" font-family="sans-serif" font-size="13" lengthAdjust="spacing" textLength="78.5649" x="212.57" y="270.5838">/tf, /tf_static</text></g><!--link mc_rsp to mc_rviz--><g class="link" data-entity-1="ent0024" data-entity-2="ent0029" data-link-type="dependency" data-source-line="53" id="lnk35"><path d="M264.08,363.2969 C491.39,363.2969 1042.96,363.2969 1042.96,363.2969 C1042.96,363.2969 1042.96,303.1369 1042.96,266.6969" fill="none" id="mc_rsp-to-mc_rviz" style="stroke:#181818;stroke-width:1;stroke-dasharray:7,7;"/><polygon fill="#181818" points="1042.96,260.6969,1038.96,269.6969,1042.96,265.6969,1046.96,269.6969,1042.96,260.6969" style="stroke:#181818;stroke-width:1;"/><text fill="#000000" font-family="sans-serif" font-size="13" lengthAdjust="spacing" textLength="78.5649" x="625.82" y="376.3638">/tf, /tf_static</text></g><!--link mc_ekf to mc_rviz--><g class="link" data-entity-1="ent0028" data-entity-2="ent0029" data-link-type="dependency" data-source-line="54" id="lnk36"><path d="M891.96,141.9269 C891.96,175.1869 891.96,222.7669 891.96,222.7669 C891.96,222.7669 954.88,222.7669 999.57,222.7669" fill="none" id="mc_ekf-to-mc_rviz" style="stroke:#181818;stroke-width:1;stroke-dasharray:7,7;"/><polygon fill="#181818" points="1005.57,222.7669,996.57,218.7669,1000.57,222.7669,996.57,226.7669,1005.57,222.7669" style="stroke:#181818;stroke-width:1;"/><text fill="#000000" font-family="sans-serif" font-size="13" lengthAdjust="spacing" textLength="14.0537" x="893.35" y="235.8338">/tf</text></g><g class="legend" data-source-line="10"><rect fill="#DDDDDD" height="42.5938" rx="7.5" ry="7.5" style="stroke:#000000;stroke-width:1;" width="354.3398" x="721.6202" y="983.2969"/><text fill="#000000" font-family="sans-serif" font-size="14" lengthAdjust="spacing" textLength="343.3555" x="726.6202" y="1001.292">Solid arrows: topic flow between launched nodes</text><text fill="#000000" font-family="sans-serif" font-size="14" lengthAdjust="spacing" textLength="344.3398" x="726.6202" y="1017.5889">Dashed arrows: TF flow between launched nodes</text></g><?plantuml-src hLJ9Rjim4BthAmO-sK1jDRurXvoA_a1w342C958cp0qa7SCf-kybJMgp5Ti1UX74cVTcunkwFLS6BKfmEspqaQiM60f72zTx3DPxREchFmaAbjOULIl60C4LzIT3GLk_qoE7qWrrrC2FxoEZHRNFHa6P1w_1ydRdeU4nEDUgA3pt8HTQgf1KDXHrCETWfTU6ry24FXQ1tLBL97BngWLl0iFgetk60GOLzKTA5GWyg7f7crHKyHDTF7I4txzkeaEUbAqeyZHWaUiYZiTna1hb9h4svWJBXZ8y2E-0MIsXrehnjioKpGcbM2tWJm718urML7bOM5rfJvn7JuavL8A72kq2q86hYNLcYgxGKU9rp4ijdccy9fwzgQLdMsArApjRcBXZsieXwgeBszEcmG-kYe7VL9d3FvNPr17pyQA3U7_iHEBGnjonlMyesQO1q5WkFBPZScVhYDrvoWm6OdGOYQuSjU_3uBhp54xtZ4WqOLXfwaBNAFW7HlcLqHbBxQSK31UDllEFRTz9E1J1Fqm5rc6LrFfbr2Symz0Ibq51nE9nt6V-uOhf5AnZhWycXUewduiLi1Sbt6IDaoLU3ridMZUt2IrEkQ4-hQbBn1wOYM5OaHEXhT0LYlEzv2n1nh3PN2Nmx5lyP3acQ2_DUKBsm_Ay2E49sgzVkZg9Di4LChFmuD3LTUvuPG_d7S0JNEpp2b7ydNaXP7W8-FI1-CBoovdblxidShXGydIFk_sSktrao-H_s39vSylai6MJplf5auyATj9SNf9vydQMF56xlALsEIXEtb7x5FgfEEKWEdaXkdy0?></g></svg>