<?plantuml 1.2026.1?><svg xmlns="http://www.w3.org/2000/svg" xmlns:xlink="http://www.w3.org/1999/xlink" contentStyleType="text/css" data-diagram-type="DESCRIPTION" height="1029px" preserveAspectRatio="none" style="width:3655px;height:1029px;background:#FFFFFF;" version="1.1" viewBox="0 0 3655 1029" width="3655px" zoomAndPan="magnify"><title>navigation.launch.py per-node topic directions</title><defs/><g><g class="title" data-source-line="8"><text fill="#000000" font-family="sans-serif" font-size="14" font-weight="bold" lengthAdjust="spacing" textLength="370.4258" x="1635.4491" y="22.9951">navigation.launch.py per-node topic directions</text></g><!--entity map_server--><g class="entity" data-qualified-name="map_server" data-source-line="16" id="ent0002"><rect fill="#F1F1F1" height="62.5938" rx="2.5" ry="2.5" style="stroke:#181818;stroke-width:0.5;" width="122.4209" x="7" y="810.2969"/><rect fill="#F1F1F1" height="10" style="stroke:#181818;stroke-width:0.5;" width="15" x="109.4209" y="815.2969"/><rect fill="#F1F1F1" height="2" style="stroke:#181818;stroke-width:0.5;" width="4" x="107.4209" y="817.2969"/><rect fill="#F1F1F1" height="2" style="stroke:#181818;stroke-width:0.5;" width="4" x="107.4209" y="821.2969"/><text fill="#000000" font-family="sans-serif" font-size="14" lengthAdjust="spacing" textLength="82.4209" x="22" y="843.292">map_server</text><text fill="#000000" font-family="sans-serif" font-size="14" lengthAdjust="spacing" textLength="67.6621" x="22" y="859.5889">(optional)</text></g><!--entity planner--><g class="entity" data-qualified-name="planner" data-source-line="17" id="ent0003"><rect fill="#F1F1F1" height="46.2969" rx="2.5" ry="2.5" style="stroke:#181818;stroke-width:0.5;" width="144.7881" x="211.02" y="756.4469"/><rect fill="#F1F1F1" height="10" style="stroke:#181818;stroke-width:0.5;" width="15" x="335.8081" y="761.4469"/><rect fill="#F1F1F1" height="2" style="stroke:#181818;stroke-width:0.5;" width="4" x="333.8081" y="763.4469"/><rect fill="#F1F1F1" height="2" style="stroke:#181818;stroke-width:0.5;" width="4" x="333.8081" y="767.4469"/><text fill="#000000" font-family="sans-serif" font-size="14" lengthAdjust="spacing" textLength="104.7881" x="226.02" y="789.442">planner_server</text></g><!--entity route--><g class="entity" data-qualified-name="route" data-source-line="18" id="ent0004"><rect fill="#F1F1F1" height="46.2969" rx="2.5" ry="2.5" style="stroke:#181818;stroke-width:0.5;" width="128.6143" x="437.41" y="687.4469"/><rect fill="#F1F1F1" height="10" style="stroke:#181818;stroke-width:0.5;" width="15" x="546.0243" y="692.4469"/><rect fill="#F1F1F1" height="2" style="stroke:#181818;stroke-width:0.5;" width="4" x="544.0243" y="694.4469"/><rect fill="#F1F1F1" height="2" style="stroke:#181818;stroke-width:0.5;" width="4" x="544.0243" y="698.4469"/><text fill="#000000" font-family="sans-serif" font-size="14" lengthAdjust="spacing" textLength="88.6143" x="452.41" y="720.442">route_server</text></g><!--entity controller--><g class="entity" data-qualified-name="controller" data-source-line="19" id="ent0005"><rect fill="#F1F1F1" height="46.2969" rx="2.5" ry="2.5" style="stroke:#181818;stroke-width:0.5;" width="158.4121" x="671.58" y="618.4469"/><rect fill="#F1F1F1" height="10" style="stroke:#181818;stroke-width:0.5;" width="15" x="809.9921" y="623.4469"/><rect fill="#F1F1F1" height="2" style="stroke:#181818;stroke-width:0.5;" width="4" x="807.9921" y="625.4469"/><rect fill="#F1F1F1" height="2" style="stroke:#181818;stroke-width:0.5;" width="4" x="807.9921" y="629.4469"/><text fill="#000000" font-family="sans-serif" font-size="14" lengthAdjust="spacing" textLength="118.4121" x="686.58" y="651.442">controller_server</text></g><!--entity behavior--><g class="entity" data-qualified-name="behavior" data-source-line="20" id="ent0006"><rect fill="#F1F1F1" height="46.2969" rx="2.5" ry="2.5" style="stroke:#181818;stroke-width:0.5;" width="152.7656" x="936.1" y="545.4469"/><rect fill="#F1F1F1" height="10" style="stroke:#181818;stroke-width:0.5;" width="15" x="1068.8656" y="550.4469"/><rect fill="#F1F1F1" height="2" style="stroke:#181818;stroke-width:0.5;" width="4" x="1066.8656" y="552.4469"/><rect fill="#F1F1F1" height="2" style="stroke:#181818;stroke-width:0.5;" width="4" x="1066.8656" y="556.4469"/><text fill="#000000" font-family="sans-serif" font-size="14" lengthAdjust="spacing" textLength="112.7656" x="951.1" y="578.442">behavior_server</text></g><!--entity btnav--><g class="entity" data-qualified-name="btnav" data-source-line="21" id="ent0007"><rect fill="#F1F1F1" height="46.2969" rx="2.5" ry="2.5" style="stroke:#181818;stroke-width:0.5;" width="128.2793" x="1172.2" y="476.4469"/><rect fill="#F1F1F1" height="10" style="stroke:#181818;stroke-width:0.5;" width="15" x="1280.4793" y="481.4469"/><rect fill="#F1F1F1" height="2" style="stroke:#181818;stroke-width:0.5;" width="4" x="1278.4793" y="483.4469"/><rect fill="#F1F1F1" height="2" style="stroke:#181818;stroke-width:0.5;" width="4" x="1278.4793" y="487.4469"/><text fill="#000000" font-family="sans-serif" font-size="14" lengthAdjust="spacing" textLength="88.2793" x="1187.2" y="509.442">bt_navigator</text></g><!--entity waypoint--><g class="entity" data-qualified-name="waypoint" data-source-line="22" id="ent0008"><rect fill="#F1F1F1" height="46.2969" rx="2.5" ry="2.5" style="stroke:#181818;stroke-width:0.5;" width="166.6768" x="1455.86" y="407.4469"/><rect fill="#F1F1F1" height="10" style="stroke:#181818;stroke-width:0.5;" width="15" x="1602.5368" y="412.4469"/><rect fill="#F1F1F1" height="2" style="stroke:#181818;stroke-width:0.5;" width="4" x="1600.5368" y="414.4469"/><rect fill="#F1F1F1" height="2" style="stroke:#181818;stroke-width:0.5;" width="4" x="1600.5368" y="418.4469"/><text fill="#000000" font-family="sans-serif" font-size="14" lengthAdjust="spacing" textLength="126.6768" x="1470.86" y="440.442">waypoint_follower</text></g><!--entity vel_smoother--><g class="entity" data-qualified-name="vel_smoother" data-source-line="23" id="ent0009"><rect fill="#F1F1F1" height="46.2969" rx="2.5" ry="2.5" style="stroke:#181818;stroke-width:0.5;" width="168.5088" x="1834.4" y="346.4469"/><rect fill="#F1F1F1" height="10" style="stroke:#181818;stroke-width:0.5;" width="15" x="1982.9088" y="351.4469"/><rect fill="#F1F1F1" height="2" style="stroke:#181818;stroke-width:0.5;" width="4" x="1980.9088" y="353.4469"/><rect fill="#F1F1F1" height="2" style="stroke:#181818;stroke-width:0.5;" width="4" x="1980.9088" y="357.4469"/><text fill="#000000" font-family="sans-serif" font-size="14" lengthAdjust="spacing" textLength="128.5088" x="1849.4" y="379.442">velocity_smoother</text></g><!--entity collision--><g class="entity" data-qualified-name="collision" data-source-line="24" id="ent0010"><rect fill="#F1F1F1" height="46.2969" rx="2.5" ry="2.5" style="stroke:#181818;stroke-width:0.5;" width="158.3301" x="2160.46" y="281.4469"/><rect fill="#F1F1F1" height="10" style="stroke:#181818;stroke-width:0.5;" width="15" x="2298.7901" y="286.4469"/><rect fill="#F1F1F1" height="2" style="stroke:#181818;stroke-width:0.5;" width="4" x="2296.7901" y="288.4469"/><rect fill="#F1F1F1" height="2" style="stroke:#181818;stroke-width:0.5;" width="4" x="2296.7901" y="292.4469"/><text fill="#000000" font-family="sans-serif" font-size="14" lengthAdjust="spacing" textLength="118.3301" x="2175.46" y="314.442">collision_monitor</text></g><!--entity cmd_nt4--><g class="entity" data-qualified-name="cmd_nt4" data-source-line="25" id="ent0011"><rect fill="#F1F1F1" height="62.5938" rx="2.5" ry="2.5" style="stroke:#181818;stroke-width:0.5;" width="180.1982" x="2463.21" y="189.2969"/><rect fill="#F1F1F1" height="10" style="stroke:#181818;stroke-width:0.5;" width="15" x="2623.4082" y="194.2969"/><rect fill="#F1F1F1" height="2" style="stroke:#181818;stroke-width:0.5;" width="4" x="2621.4082" y="196.2969"/><rect fill="#F1F1F1" height="2" style="stroke:#181818;stroke-width:0.5;" width="4" x="2621.4082" y="200.2969"/><text fill="#000000" font-family="sans-serif" font-size="14" lengthAdjust="spacing" textLength="140.1982" x="2478.21" y="222.292">cmd_vel_nt4_bridge</text><text fill="#000000" font-family="sans-serif" font-size="14" lengthAdjust="spacing" textLength="67.6621" x="2478.21" y="238.5889">(optional)</text></g><!--entity auto_mgr--><g class="entity" data-qualified-name="auto_mgr" data-source-line="26" id="ent0012"><rect fill="#F1F1F1" height="62.5938" rx="2.5" ry="2.5" style="stroke:#181818;stroke-width:0.5;" width="227.4961" x="2795.14" y="109.2969"/><rect fill="#F1F1F1" height="10" style="stroke:#181818;stroke-width:0.5;" width="15" x="3002.6361" y="114.2969"/><rect fill="#F1F1F1" height="2" style="stroke:#181818;stroke-width:0.5;" width="4" x="3000.6361" y="116.2969"/><rect fill="#F1F1F1" height="2" style="stroke:#181818;stroke-width:0.5;" width="4" x="3000.6361" y="120.2969"/><text fill="#000000" font-family="sans-serif" font-size="14" lengthAdjust="spacing" textLength="187.4961" x="2810.14" y="142.292">autonomy_mode_manager</text><text fill="#000000" font-family="sans-serif" font-size="14" lengthAdjust="spacing" textLength="67.6621" x="2810.14" y="158.5889">(optional)</text></g><!--entity mode_bridge--><g class="entity" data-qualified-name="mode_bridge" data-source-line="27" id="ent0013"><rect fill="#F1F1F1" height="62.5938" rx="2.5" ry="2.5" style="stroke:#181818;stroke-width:0.5;" width="161.8916" x="3151.07" y="44.2969"/><rect fill="#F1F1F1" height="10" style="stroke:#181818;stroke-width:0.5;" width="15" x="3292.9616" y="49.2969"/><rect fill="#F1F1F1" height="2" style="stroke:#181818;stroke-width:0.5;" width="4" x="3290.9616" y="51.2969"/><rect fill="#F1F1F1" height="2" style="stroke:#181818;stroke-width:0.5;" width="4" x="3290.9616" y="55.2969"/><text fill="#000000" font-family="sans-serif" font-size="14" lengthAdjust="spacing" textLength="121.8916" x="3166.07" y="77.292">nt4_mode_bridge</text><text fill="#000000" font-family="sans-serif" font-size="14" lengthAdjust="spacing" textLength="67.6621" x="3166.07" y="93.5889">(optional)</text></g><g class="entity" data-qualified-name="GMN14" data-source-line="30" id="ent0015"><path d="M199.42,872.8969 L199.42,932.2953 L367.4063,932.2953 L367.4063,882.8969 L357.4063,872.8969 L199.42,872.8969" fill="#FEFFDD" style="stroke:#181818;stroke-width:0.5;"/><path d="M357.4063,872.8969 L357.4063,882.8969 L367.4063,882.8969 L357.4063,872.8969" fill="#FEFFDD" style="stroke:#181818;stroke-width:1;"/><text fill="#000000" font-family="sans-serif" font-size="13" font-weight="bold" lengthAdjust="spacing" textLength="39.2666" x="209.9459" y="891.9638">Topic</text><text fill="#000000" font-family="sans-serif" font-size="13" font-weight="bold" lengthAdjust="spacing" textLength="21.6582" x="320.9791" y="891.9638">Dir</text><text fill="#000000" font-family="sans-serif" font-size="13" lengthAdjust="spacing" textLength="33.2617" x="209.5523" y="907.0966">/map</text><text fill="#000000" font-family="sans-serif" font-size="13" lengthAdjust="spacing" textLength="27.6885" x="320.5855" y="907.0966">OUT</text><text fill="#000000" font-family="sans-serif" font-size="13" lengthAdjust="spacing" textLength="102.7686" x="209.5523" y="922.2294">/map_metadata</text><text fill="#000000" font-family="sans-serif" font-size="13" lengthAdjust="spacing" textLength="27.6885" x="320.5855" y="922.2294">OUT</text><line style="stroke:#000000;stroke-width:1;" x1="205.42" x2="352.4063" y1="879.8969" y2="879.8969"/><line style="stroke:#000000;stroke-width:1;" x1="205.42" x2="352.4063" y1="895.0297" y2="895.0297"/><line style="stroke:#000000;stroke-width:1;" x1="205.42" x2="352.4063" y1="910.1625" y2="910.1625"/><line style="stroke:#000000;stroke-width:1;" x1="205.42" x2="352.4063" y1="925.2953" y2="925.2953"/><line style="stroke:#000000;stroke-width:1;" x1="205.42" x2="205.42" y1="879.8969" y2="925.2953"/><line style="stroke:#000000;stroke-width:1;" x1="316.4532" x2="316.4532" y1="879.8969" y2="925.2953"/><line style="stroke:#000000;stroke-width:1;" x1="352.4063" x2="352.4063" y1="879.8969" y2="925.2953"/></g><g class="entity" data-qualified-name="GMN17" data-source-line="36" id="ent0018"><path d="M440.98,803.7669 L440.98,893.4309 L562.4444,893.4309 L562.4444,813.7669 L552.4444,803.7669 L440.98,803.7669" fill="#FEFFDD" style="stroke:#181818;stroke-width:0.5;"/><path d="M552.4444,803.7669 L552.4444,813.7669 L562.4444,813.7669 L552.4444,803.7669" fill="#FEFFDD" style="stroke:#181818;stroke-width:1;"/><text fill="#000000" font-family="sans-serif" font-size="13" font-weight="bold" lengthAdjust="spacing" textLength="39.2666" x="451.5059" y="822.8338">Topic</text><text fill="#000000" font-family="sans-serif" font-size="13" font-weight="bold" lengthAdjust="spacing" textLength="21.6582" x="516.0171" y="822.8338">Dir</text><text fill="#000000" font-family="sans-serif" font-size="13" lengthAdjust="spacing" textLength="33.2617" x="451.1123" y="837.9666">/map</text><text fill="#000000" font-family="sans-serif" font-size="13" lengthAdjust="spacing" textLength="13.5586" x="515.6236" y="837.9666">IN</text><text fill="#000000" font-family="sans-serif" font-size="13" lengthAdjust="spacing" textLength="14.0537" x="451.1123" y="853.0994">/tf</text><text fill="#000000" font-family="sans-serif" font-size="13" lengthAdjust="spacing" textLength="13.5586" x="515.6236" y="853.0994">IN</text><text fill="#000000" font-family="sans-serif" font-size="13" lengthAdjust="spacing" textLength="56.2466" x="451.1123" y="868.2322">/tf_static</text><text fill="#000000" font-family="sans-serif" font-size="13" lengthAdjust="spacing" textLength="13.5586" x="515.6236" y="868.2322">IN</text><text fill="#000000" font-family="sans-serif" font-size="13" lengthAdjust="spacing" textLength="32.4492" x="451.1123" y="883.365">/plan</text><text fill="#000000" font-family="sans-serif" font-size="13" lengthAdjust="spacing" textLength="27.6885" x="515.6236" y="883.365">OUT</text><line style="stroke:#000000;stroke-width:1;" x1="446.98" x2="547.4444" y1="810.7669" y2="810.7669"/><line style="stroke:#000000;stroke-width:1;" x1="446.98" x2="547.4444" y1="825.8997" y2="825.8997"/><line style="stroke:#000000;stroke-width:1;" x1="446.98" x2="547.4444" y1="841.0325" y2="841.0325"/><line style="stroke:#000000;stroke-width:1;" x1="446.98" x2="547.4444" y1="856.1653" y2="856.1653"/><line style="stroke:#000000;stroke-width:1;" x1="446.98" x2="547.4444" y1="871.2981" y2="871.2981"/><line style="stroke:#000000;stroke-width:1;" x1="446.98" x2="547.4444" y1="886.4309" y2="886.4309"/><line style="stroke:#000000;stroke-width:1;" x1="446.98" x2="446.98" y1="810.7669" y2="886.4309"/><line style="stroke:#000000;stroke-width:1;" x1="511.4912" x2="511.4912" y1="810.7669" y2="886.4309"/><line style="stroke:#000000;stroke-width:1;" x1="547.4444" x2="547.4444" y1="810.7669" y2="886.4309"/></g><g class="entity" data-qualified-name="GMN20" data-source-line="44" id="ent0021"><path d="M636.02,734.7669 L636.02,824.4309 L865.5469,824.4309 L865.5469,744.7669 L855.5469,734.7669 L636.02,734.7669" fill="#FEFFDD" style="stroke:#181818;stroke-width:0.5;"/><path d="M855.5469,734.7669 L855.5469,744.7669 L865.5469,744.7669 L855.5469,734.7669" fill="#FEFFDD" style="stroke:#181818;stroke-width:1;"/><text fill="#000000" font-family="sans-serif" font-size="13" font-weight="bold" lengthAdjust="spacing" textLength="39.2666" x="646.5459" y="753.8338">Topic</text><text fill="#000000" font-family="sans-serif" font-size="13" font-weight="bold" lengthAdjust="spacing" textLength="21.6582" x="819.1196" y="753.8338">Dir</text><text fill="#000000" font-family="sans-serif" font-size="13" lengthAdjust="spacing" textLength="33.2617" x="646.1523" y="768.9666">/map</text><text fill="#000000" font-family="sans-serif" font-size="13" lengthAdjust="spacing" textLength="13.5586" x="818.7261" y="768.9666">IN</text><text fill="#000000" font-family="sans-serif" font-size="13" lengthAdjust="spacing" textLength="14.0537" x="646.1523" y="784.0994">/tf</text><text fill="#000000" font-family="sans-serif" font-size="13" lengthAdjust="spacing" textLength="13.5586" x="818.7261" y="784.0994">IN</text><text fill="#000000" font-family="sans-serif" font-size="13" lengthAdjust="spacing" textLength="56.2466" x="646.1523" y="799.2322">/tf_static</text><text fill="#000000" font-family="sans-serif" font-size="13" lengthAdjust="spacing" textLength="13.5586" x="818.7261" y="799.2322">IN</text><text fill="#000000" font-family="sans-serif" font-size="13" lengthAdjust="spacing" textLength="164.3091" x="646.1523" y="814.365">route/planning interfaces</text><text fill="#000000" font-family="sans-serif" font-size="13" lengthAdjust="spacing" textLength="27.6885" x="818.7261" y="814.365">OUT</text><line style="stroke:#000000;stroke-width:1;" x1="642.02" x2="850.5469" y1="741.7669" y2="741.7669"/><line style="stroke:#000000;stroke-width:1;" x1="642.02" x2="850.5469" y1="756.8997" y2="756.8997"/><line style="stroke:#000000;stroke-width:1;" x1="642.02" x2="850.5469" y1="772.0325" y2="772.0325"/><line style="stroke:#000000;stroke-width:1;" x1="642.02" x2="850.5469" y1="787.1653" y2="787.1653"/><line style="stroke:#000000;stroke-width:1;" x1="642.02" x2="850.5469" y1="802.2981" y2="802.2981"/><line style="stroke:#000000;stroke-width:1;" x1="642.02" x2="850.5469" y1="817.4309" y2="817.4309"/><line style="stroke:#000000;stroke-width:1;" x1="642.02" x2="642.02" y1="741.7669" y2="817.4309"/><line style="stroke:#000000;stroke-width:1;" x1="814.5937" x2="814.5937" y1="741.7669" y2="817.4309"/><line style="stroke:#000000;stroke-width:1;" x1="850.5469" x2="850.5469" y1="741.7669" y2="817.4309"/></g><g class="entity" data-qualified-name="GMN23" data-source-line="52" id="ent0024"><path d="M935.55,662.1969 L935.55,766.9938 L1089.4128,766.9938 L1089.4128,672.1969 L1079.4128,662.1969 L935.55,662.1969" fill="#FEFFDD" style="stroke:#181818;stroke-width:0.5;"/><path d="M1079.4128,662.1969 L1079.4128,672.1969 L1089.4128,672.1969 L1079.4128,662.1969" fill="#FEFFDD" style="stroke:#181818;stroke-width:1;"/><text fill="#000000" font-family="sans-serif" font-size="13" font-weight="bold" lengthAdjust="spacing" textLength="39.2666" x="946.0759" y="681.2638">Topic</text><text fill="#000000" font-family="sans-serif" font-size="13" font-weight="bold" lengthAdjust="spacing" textLength="21.6582" x="1042.9855" y="681.2638">Dir</text><text fill="#000000" font-family="sans-serif" font-size="13" lengthAdjust="spacing" textLength="32.4492" x="945.6823" y="696.3966">/plan</text><text fill="#000000" font-family="sans-serif" font-size="13" lengthAdjust="spacing" textLength="13.5586" x="1042.592" y="696.3966">IN</text><text fill="#000000" font-family="sans-serif" font-size="13" lengthAdjust="spacing" textLength="41.2026" x="945.6823" y="711.5294">/odom</text><text fill="#000000" font-family="sans-serif" font-size="13" lengthAdjust="spacing" textLength="13.5586" x="1042.592" y="711.5294">IN</text><text fill="#000000" font-family="sans-serif" font-size="13" lengthAdjust="spacing" textLength="14.0537" x="945.6823" y="726.6622">/tf</text><text fill="#000000" font-family="sans-serif" font-size="13" lengthAdjust="spacing" textLength="13.5586" x="1042.592" y="726.6622">IN</text><text fill="#000000" font-family="sans-serif" font-size="13" lengthAdjust="spacing" textLength="56.2466" x="945.6823" y="741.795">/tf_static</text><text fill="#000000" font-family="sans-serif" font-size="13" lengthAdjust="spacing" textLength="13.5586" x="1042.592" y="741.795">IN</text><text fill="#000000" font-family="sans-serif" font-size="13" lengthAdjust="spacing" textLength="88.645" x="945.6823" y="756.9278">/cmd_vel_nav</text><text fill="#000000" font-family="sans-serif" font-size="13" lengthAdjust="spacing" textLength="27.6885" x="1042.592" y="756.9278">OUT</text><line style="stroke:#000000;stroke-width:1;" x1="941.55" x2="1074.4128" y1="669.1969" y2="669.1969"/><line style="stroke:#000000;stroke-width:1;" x1="941.55" x2="1074.4128" y1="684.3297" y2="684.3297"/><line style="stroke:#000000;stroke-width:1;" x1="941.55" x2="1074.4128" y1="699.4625" y2="699.4625"/><line style="stroke:#000000;stroke-width:1;" x1="941.55" x2="1074.4128" y1="714.5953" y2="714.5953"/><line style="stroke:#000000;stroke-width:1;" x1="941.55" x2="1074.4128" y1="729.7281" y2="729.7281"/><line style="stroke:#000000;stroke-width:1;" x1="941.55" x2="1074.4128" y1="744.8609" y2="744.8609"/><line style="stroke:#000000;stroke-width:1;" x1="941.55" x2="1074.4128" y1="759.9938" y2="759.9938"/><line style="stroke:#000000;stroke-width:1;" x1="941.55" x2="941.55" y1="669.1969" y2="759.9938"/><line style="stroke:#000000;stroke-width:1;" x1="1038.4597" x2="1038.4597" y1="669.1969" y2="759.9938"/><line style="stroke:#000000;stroke-width:1;" x1="1074.4128" x2="1074.4128" y1="669.1969" y2="759.9938"/></g><g class="entity" data-qualified-name="GMN26" data-source-line="61" id="ent0027"><path d="M1159.41,592.7669 L1159.41,682.4309 L1313.2728,682.4309 L1313.2728,602.7669 L1303.2728,592.7669 L1159.41,592.7669" fill="#FEFFDD" style="stroke:#181818;stroke-width:0.5;"/><path d="M1303.2728,592.7669 L1303.2728,602.7669 L1313.2728,602.7669 L1303.2728,592.7669" fill="#FEFFDD" style="stroke:#181818;stroke-width:1;"/><text fill="#000000" font-family="sans-serif" font-size="13" font-weight="bold" lengthAdjust="spacing" textLength="39.2666" x="1169.9359" y="611.8338">Topic</text><text fill="#000000" font-family="sans-serif" font-size="13" font-weight="bold" lengthAdjust="spacing" textLength="21.6582" x="1266.8455" y="611.8338">Dir</text><text fill="#000000" font-family="sans-serif" font-size="13" lengthAdjust="spacing" textLength="41.2026" x="1169.5423" y="626.9666">/odom</text><text fill="#000000" font-family="sans-serif" font-size="13" lengthAdjust="spacing" textLength="13.5586" x="1266.452" y="626.9666">IN</text><text fill="#000000" font-family="sans-serif" font-size="13" lengthAdjust="spacing" textLength="14.0537" x="1169.5423" y="642.0994">/tf</text><text fill="#000000" font-family="sans-serif" font-size="13" lengthAdjust="spacing" textLength="13.5586" x="1266.452" y="642.0994">IN</text><text fill="#000000" font-family="sans-serif" font-size="13" lengthAdjust="spacing" textLength="56.2466" x="1169.5423" y="657.2322">/tf_static</text><text fill="#000000" font-family="sans-serif" font-size="13" lengthAdjust="spacing" textLength="13.5586" x="1266.452" y="657.2322">IN</text><text fill="#000000" font-family="sans-serif" font-size="13" lengthAdjust="spacing" textLength="88.645" x="1169.5423" y="672.365">/cmd_vel_nav</text><text fill="#000000" font-family="sans-serif" font-size="13" lengthAdjust="spacing" textLength="27.6885" x="1266.452" y="672.365">OUT</text><line style="stroke:#000000;stroke-width:1;" x1="1165.41" x2="1298.2728" y1="599.7669" y2="599.7669"/><line style="stroke:#000000;stroke-width:1;" x1="1165.41" x2="1298.2728" y1="614.8997" y2="614.8997"/><line style="stroke:#000000;stroke-width:1;" x1="1165.41" x2="1298.2728" y1="630.0325" y2="630.0325"/><line style="stroke:#000000;stroke-width:1;" x1="1165.41" x2="1298.2728" y1="645.1653" y2="645.1653"/><line style="stroke:#000000;stroke-width:1;" x1="1165.41" x2="1298.2728" y1="660.2981" y2="660.2981"/><line style="stroke:#000000;stroke-width:1;" x1="1165.41" x2="1298.2728" y1="675.4309" y2="675.4309"/><line style="stroke:#000000;stroke-width:1;" x1="1165.41" x2="1165.41" y1="599.7669" y2="675.4309"/><line style="stroke:#000000;stroke-width:1;" x1="1262.3197" x2="1262.3197" y1="599.7669" y2="675.4309"/><line style="stroke:#000000;stroke-width:1;" x1="1298.2728" x2="1298.2728" y1="599.7669" y2="675.4309"/></g><g class="entity" data-qualified-name="GMN29" data-source-line="69" id="ent0030"><path d="M1383.27,523.7669 L1383.27,613.4309 L1695.1196,613.4309 L1695.1196,533.7669 L1685.1196,523.7669 L1383.27,523.7669" fill="#FEFFDD" style="stroke:#181818;stroke-width:0.5;"/><path d="M1685.1196,523.7669 L1685.1196,533.7669 L1695.1196,533.7669 L1685.1196,523.7669" fill="#FEFFDD" style="stroke:#181818;stroke-width:1;"/><text fill="#000000" font-family="sans-serif" font-size="13" font-weight="bold" lengthAdjust="spacing" textLength="39.2666" x="1393.7959" y="542.8338">Topic</text><text fill="#000000" font-family="sans-serif" font-size="13" font-weight="bold" lengthAdjust="spacing" textLength="21.6582" x="1630.7539" y="542.8338">Dir</text><text fill="#000000" font-family="sans-serif" font-size="13" lengthAdjust="spacing" textLength="162.3794" x="1393.4023" y="557.9666">/navigate_to_pose action</text><text fill="#000000" font-family="sans-serif" font-size="13" lengthAdjust="spacing" textLength="45.627" x="1630.3603" y="557.9666">IN/OUT</text><text fill="#000000" font-family="sans-serif" font-size="13" lengthAdjust="spacing" textLength="14.0537" x="1393.4023" y="573.0994">/tf</text><text fill="#000000" font-family="sans-serif" font-size="13" lengthAdjust="spacing" textLength="13.5586" x="1630.3603" y="573.0994">IN</text><text fill="#000000" font-family="sans-serif" font-size="13" lengthAdjust="spacing" textLength="56.2466" x="1393.4023" y="588.2322">/tf_static</text><text fill="#000000" font-family="sans-serif" font-size="13" lengthAdjust="spacing" textLength="13.5586" x="1630.3603" y="588.2322">IN</text><text fill="#000000" font-family="sans-serif" font-size="13" lengthAdjust="spacing" textLength="228.6934" x="1393.4023" y="603.365">planner/controller/behavior actions</text><text fill="#000000" font-family="sans-serif" font-size="13" lengthAdjust="spacing" textLength="45.627" x="1630.3603" y="603.365">IN/OUT</text><line style="stroke:#000000;stroke-width:1;" x1="1389.27" x2="1680.1196" y1="530.7669" y2="530.7669"/><line style="stroke:#000000;stroke-width:1;" x1="1389.27" x2="1680.1196" y1="545.8997" y2="545.8997"/><line style="stroke:#000000;stroke-width:1;" x1="1389.27" x2="1680.1196" y1="561.0325" y2="561.0325"/><line style="stroke:#000000;stroke-width:1;" x1="1389.27" x2="1680.1196" y1="576.1653" y2="576.1653"/><line style="stroke:#000000;stroke-width:1;" x1="1389.27" x2="1680.1196" y1="591.2981" y2="591.2981"/><line style="stroke:#000000;stroke-width:1;" x1="1389.27" x2="1680.1196" y1="606.4309" y2="606.4309"/><line style="stroke:#000000;stroke-width:1;" x1="1389.27" x2="1389.27" y1="530.7669" y2="606.4309"/><line style="stroke:#000000;stroke-width:1;" x1="1626.228" x2="1626.228" y1="530.7669" y2="606.4309"/><line style="stroke:#000000;stroke-width:1;" x1="1680.1196" x2="1680.1196" y1="530.7669" y2="606.4309"/></g><g class="entity" data-qualified-name="GMN32" data-source-line="77" id="ent0033"><path d="M1765.12,462.8969 L1765.12,522.2953 L2072.1771,522.2953 L2072.1771,472.8969 L2062.1771,462.8969 L1765.12,462.8969" fill="#FEFFDD" style="stroke:#181818;stroke-width:0.5;"/><path d="M2062.1771,462.8969 L2062.1771,472.8969 L2072.1771,472.8969 L2062.1771,462.8969" fill="#FEFFDD" style="stroke:#181818;stroke-width:1;"/><text fill="#000000" font-family="sans-serif" font-size="13" font-weight="bold" lengthAdjust="spacing" textLength="39.2666" x="1775.6459" y="481.9638">Topic</text><text fill="#000000" font-family="sans-serif" font-size="13" font-weight="bold" lengthAdjust="spacing" textLength="21.6582" x="2007.8114" y="481.9638">Dir</text><text fill="#000000" font-family="sans-serif" font-size="13" lengthAdjust="spacing" textLength="223.9009" x="1775.2523" y="497.0966">waypoint follower actions/services</text><text fill="#000000" font-family="sans-serif" font-size="13" lengthAdjust="spacing" textLength="45.627" x="2007.4179" y="497.0966">IN/OUT</text><text fill="#000000" font-family="sans-serif" font-size="13" lengthAdjust="spacing" textLength="162.3794" x="1775.2523" y="512.2294">/navigate_to_pose action</text><text fill="#000000" font-family="sans-serif" font-size="13" lengthAdjust="spacing" textLength="27.6885" x="2007.4179" y="512.2294">OUT</text><line style="stroke:#000000;stroke-width:1;" x1="1771.12" x2="2057.1771" y1="469.8969" y2="469.8969"/><line style="stroke:#000000;stroke-width:1;" x1="1771.12" x2="2057.1771" y1="485.0297" y2="485.0297"/><line style="stroke:#000000;stroke-width:1;" x1="1771.12" x2="2057.1771" y1="500.1625" y2="500.1625"/><line style="stroke:#000000;stroke-width:1;" x1="1771.12" x2="2057.1771" y1="515.2953" y2="515.2953"/><line style="stroke:#000000;stroke-width:1;" x1="1771.12" x2="1771.12" y1="469.8969" y2="515.2953"/><line style="stroke:#000000;stroke-width:1;" x1="2003.2855" x2="2003.2855" y1="469.8969" y2="515.2953"/><line style="stroke:#000000;stroke-width:1;" x1="2057.1771" x2="2057.1771" y1="469.8969" y2="515.2953"/></g><g class="entity" data-qualified-name="GMN35" data-source-line="83" id="ent0036"><path d="M2142.18,397.3369 L2142.18,471.8681 L2337.074,471.8681 L2337.074,407.3369 L2327.074,397.3369 L2142.18,397.3369" fill="#FEFFDD" style="stroke:#181818;stroke-width:0.5;"/><path d="M2327.074,397.3369 L2327.074,407.3369 L2337.074,407.3369 L2327.074,397.3369" fill="#FEFFDD" style="stroke:#181818;stroke-width:1;"/><text fill="#000000" font-family="sans-serif" font-size="13" font-weight="bold" lengthAdjust="spacing" textLength="39.2666" x="2152.7059" y="416.4038">Topic</text><text fill="#000000" font-family="sans-serif" font-size="13" font-weight="bold" lengthAdjust="spacing" textLength="21.6582" x="2290.6468" y="416.4038">Dir</text><text fill="#000000" font-family="sans-serif" font-size="13" lengthAdjust="spacing" textLength="129.6763" x="2152.3123" y="431.5366">/cmd_vel_smoothed</text><text fill="#000000" font-family="sans-serif" font-size="13" lengthAdjust="spacing" textLength="13.5586" x="2290.2532" y="431.5366">IN</text><text fill="#000000" font-family="sans-serif" font-size="13" lengthAdjust="spacing" textLength="41.2026" x="2152.3123" y="446.6694">/odom</text><text fill="#000000" font-family="sans-serif" font-size="13" lengthAdjust="spacing" textLength="13.5586" x="2290.2532" y="446.6694">IN</text><text fill="#000000" font-family="sans-serif" font-size="13" lengthAdjust="spacing" textLength="88.645" x="2152.3123" y="461.8022">/cmd_vel_nav</text><text fill="#000000" font-family="sans-serif" font-size="13" lengthAdjust="spacing" textLength="27.6885" x="2290.2532" y="461.8022">OUT</text><line style="stroke:#000000;stroke-width:1;" x1="2148.18" x2="2322.074" y1="404.3369" y2="404.3369"/><line style="stroke:#000000;stroke-width:1;" x1="2148.18" x2="2322.074" y1="419.4697" y2="419.4697"/><line style="stroke:#000000;stroke-width:1;" x1="2148.18" x2="2322.074" y1="434.6025" y2="434.6025"/><line style="stroke:#000000;stroke-width:1;" x1="2148.18" x2="2322.074" y1="449.7353" y2="449.7353"/><line style="stroke:#000000;stroke-width:1;" x1="2148.18" x2="2322.074" y1="464.8681" y2="464.8681"/><line style="stroke:#000000;stroke-width:1;" x1="2148.18" x2="2148.18" y1="404.3369" y2="464.8681"/><line style="stroke:#000000;stroke-width:1;" x1="2286.1209" x2="2286.1209" y1="404.3369" y2="464.8681"/><line style="stroke:#000000;stroke-width:1;" x1="2322.074" x2="2322.074" y1="404.3369" y2="464.8681"/></g><g class="entity" data-qualified-name="GMN38" data-source-line="90" id="ent0039"><path d="M2407.07,322.0669 L2407.07,457.1294 L2699.5466,457.1294 L2699.5466,332.0669 L2689.5466,322.0669 L2407.07,322.0669" fill="#FEFFDD" style="stroke:#181818;stroke-width:0.5;"/><path d="M2689.5466,322.0669 L2689.5466,332.0669 L2699.5466,332.0669 L2689.5466,322.0669" fill="#FEFFDD" style="stroke:#181818;stroke-width:1;"/><text fill="#000000" font-family="sans-serif" font-size="13" font-weight="bold" lengthAdjust="spacing" textLength="39.2666" x="2417.5959" y="341.1338">Topic</text><text fill="#000000" font-family="sans-serif" font-size="13" font-weight="bold" lengthAdjust="spacing" textLength="21.6582" x="2653.1193" y="341.1338">Dir</text><text fill="#000000" font-family="sans-serif" font-size="13" lengthAdjust="spacing" textLength="129.6763" x="2417.2023" y="356.2666">/cmd_vel_smoothed</text><text fill="#000000" font-family="sans-serif" font-size="13" lengthAdjust="spacing" textLength="13.5586" x="2652.7258" y="356.2666">IN</text><text fill="#000000" font-family="sans-serif" font-size="13" lengthAdjust="spacing" textLength="34.5059" x="2417.2023" y="371.3994">/scan</text><text fill="#000000" font-family="sans-serif" font-size="13" lengthAdjust="spacing" textLength="13.5586" x="2652.7258" y="371.3994">IN</text><text fill="#000000" font-family="sans-serif" font-size="13" lengthAdjust="spacing" textLength="227.2588" x="2417.2023" y="386.5322">/local_costmap/published_footprint</text><text fill="#000000" font-family="sans-serif" font-size="13" lengthAdjust="spacing" textLength="13.5586" x="2652.7258" y="386.5322">IN</text><text fill="#000000" font-family="sans-serif" font-size="13" lengthAdjust="spacing" textLength="14.0537" x="2417.2023" y="401.665">/tf</text><text fill="#000000" font-family="sans-serif" font-size="13" lengthAdjust="spacing" textLength="13.5586" x="2652.7258" y="401.665">IN</text><text fill="#000000" font-family="sans-serif" font-size="13" lengthAdjust="spacing" textLength="56.2466" x="2417.2023" y="416.7978">/tf_static</text><text fill="#000000" font-family="sans-serif" font-size="13" lengthAdjust="spacing" textLength="13.5586" x="2652.7258" y="416.7978">IN</text><text fill="#000000" font-family="sans-serif" font-size="13" lengthAdjust="spacing" textLength="88.645" x="2417.2023" y="431.9306">/cmd_vel_nav</text><text fill="#000000" font-family="sans-serif" font-size="13" lengthAdjust="spacing" textLength="27.6885" x="2652.7258" y="431.9306">OUT</text><text fill="#000000" font-family="sans-serif" font-size="13" lengthAdjust="spacing" textLength="153.6895" x="2417.2023" y="447.0635">/collision_monitor_state</text><text fill="#000000" font-family="sans-serif" font-size="13" lengthAdjust="spacing" textLength="27.6885" x="2652.7258" y="447.0635">OUT</text><line style="stroke:#000000;stroke-width:1;" x1="2413.07" x2="2684.5466" y1="329.0669" y2="329.0669"/><line style="stroke:#000000;stroke-width:1;" x1="2413.07" x2="2684.5466" y1="344.1997" y2="344.1997"/><line style="stroke:#000000;stroke-width:1;" x1="2413.07" x2="2684.5466" y1="359.3325" y2="359.3325"/><line style="stroke:#000000;stroke-width:1;" x1="2413.07" x2="2684.5466" y1="374.4653" y2="374.4653"/><line style="stroke:#000000;stroke-width:1;" x1="2413.07" x2="2684.5466" y1="389.5981" y2="389.5981"/><line style="stroke:#000000;stroke-width:1;" x1="2413.07" x2="2684.5466" y1="404.7309" y2="404.7309"/><line style="stroke:#000000;stroke-width:1;" x1="2413.07" x2="2684.5466" y1="419.8638" y2="419.8638"/><line style="stroke:#000000;stroke-width:1;" x1="2413.07" x2="2684.5466" y1="434.9966" y2="434.9966"/><line style="stroke:#000000;stroke-width:1;" x1="2413.07" x2="2684.5466" y1="450.1294" y2="450.1294"/><line style="stroke:#000000;stroke-width:1;" x1="2413.07" x2="2413.07" y1="329.0669" y2="450.1294"/><line style="stroke:#000000;stroke-width:1;" x1="2648.5934" x2="2648.5934" y1="329.0669" y2="450.1294"/><line style="stroke:#000000;stroke-width:1;" x1="2684.5466" x2="2684.5466" y1="329.0669" y2="450.1294"/></g><g class="entity" data-qualified-name="GMN41" data-source-line="101" id="ent0042"><path d="M2769.55,241.6369 L2769.55,242.7669 L2643.5,246.7669 L2769.55,250.7669 L2769.55,361.5666 A0,0 0 0 0 2769.55,361.5666 L3048.2204,361.5666 A0,0 0 0 0 3048.2204,361.5666 L3048.2204,251.6369 L3038.2204,241.6369 L2769.55,241.6369 A0,0 0 0 0 2769.55,241.6369" fill="#FEFFDD" style="stroke:#181818;stroke-width:0.5;"/><path d="M3038.2204,241.6369 L3038.2204,251.6369 L3048.2204,251.6369 L3038.2204,241.6369" fill="#FEFFDD" style="stroke:#181818;stroke-width:0.5;"/><text fill="#000000" font-family="sans-serif" font-size="13" font-weight="bold" lengthAdjust="spacing" textLength="39.2666" x="2780.0759" y="260.7038">Topic</text><text fill="#000000" font-family="sans-serif" font-size="13" font-weight="bold" lengthAdjust="spacing" textLength="21.6582" x="3001.7932" y="260.7038">Dir</text><text fill="#000000" font-family="sans-serif" font-size="13" lengthAdjust="spacing" textLength="88.645" x="2779.6823" y="275.8366">/cmd_vel_nav</text><text fill="#000000" font-family="sans-serif" font-size="13" lengthAdjust="spacing" textLength="13.5586" x="3001.3996" y="275.8366">IN</text><text fill="#000000" font-family="sans-serif" font-size="13" lengthAdjust="spacing" textLength="109.3193" x="2779.6823" y="290.9694">/tag_global_pose</text><text fill="#000000" font-family="sans-serif" font-size="13" lengthAdjust="spacing" textLength="13.5586" x="3001.3996" y="290.9694">IN</text><text fill="#000000" font-family="sans-serif" font-size="13" lengthAdjust="spacing" textLength="213.4526" x="2779.6823" y="306.1022">/navigate_to_pose/_action/status</text><text fill="#000000" font-family="sans-serif" font-size="13" lengthAdjust="spacing" textLength="13.5586" x="3001.3996" y="306.1022">IN</text><text fill="#000000" font-family="sans-serif" font-size="13" lengthAdjust="spacing" textLength="41.2026" x="2779.6823" y="321.235">/odom</text><text fill="#000000" font-family="sans-serif" font-size="13" lengthAdjust="spacing" textLength="13.5586" x="3001.3996" y="321.235">IN</text><text fill="#000000" font-family="sans-serif" font-size="13" lengthAdjust="spacing" textLength="144.9297" x="2779.6823" y="336.3678">robot_mode (optional)</text><text fill="#000000" font-family="sans-serif" font-size="13" lengthAdjust="spacing" textLength="13.5586" x="3001.3996" y="336.3678">IN</text><text fill="#000000" font-family="sans-serif" font-size="13" lengthAdjust="spacing" textLength="102.5908" x="2779.6823" y="351.5006">NT4 ROS/* keys</text><text fill="#000000" font-family="sans-serif" font-size="13" lengthAdjust="spacing" textLength="27.6885" x="3001.3996" y="351.5006">OUT</text><line style="stroke:#000000;stroke-width:0.5;" x1="2775.55" x2="3033.2204" y1="248.6369" y2="248.6369"/><line style="stroke:#000000;stroke-width:0.5;" x1="2775.55" x2="3033.2204" y1="263.7697" y2="263.7697"/><line style="stroke:#000000;stroke-width:0.5;" x1="2775.55" x2="3033.2204" y1="278.9025" y2="278.9025"/><line style="stroke:#000000;stroke-width:0.5;" x1="2775.55" x2="3033.2204" y1="294.0353" y2="294.0353"/><line style="stroke:#000000;stroke-width:0.5;" x1="2775.55" x2="3033.2204" y1="309.1681" y2="309.1681"/><line style="stroke:#000000;stroke-width:0.5;" x1="2775.55" x2="3033.2204" y1="324.3009" y2="324.3009"/><line style="stroke:#000000;stroke-width:0.5;" x1="2775.55" x2="3033.2204" y1="339.4338" y2="339.4338"/><line style="stroke:#000000;stroke-width:0.5;" x1="2775.55" x2="3033.2204" y1="354.5666" y2="354.5666"/><line style="stroke:#000000;stroke-width:0.5;" x1="2775.55" x2="2775.55" y1="248.6369" y2="354.5666"/><line style="stroke:#000000;stroke-width:0.5;" x1="2997.2673" x2="2997.2673" y1="248.6369" y2="354.5666"/><line style="stroke:#000000;stroke-width:0.5;" x1="3033.2204" x2="3033.2204" y1="248.6369" y2="354.5666"/></g><g class="entity" data-qualified-name="GMN44" data-source-line="111" id="ent0045"><path d="M3118.22,176.8969 L3118.22,236.2953 L3345.8172,236.2953 L3345.8172,186.8969 L3335.8172,176.8969 L3118.22,176.8969" fill="#FEFFDD" style="stroke:#181818;stroke-width:0.5;"/><path d="M3335.8172,176.8969 L3335.8172,186.8969 L3345.8172,186.8969 L3335.8172,176.8969" fill="#FEFFDD" style="stroke:#181818;stroke-width:1;"/><text fill="#000000" font-family="sans-serif" font-size="13" font-weight="bold" lengthAdjust="spacing" textLength="39.2666" x="3128.7459" y="195.9638">Topic</text><text fill="#000000" font-family="sans-serif" font-size="13" font-weight="bold" lengthAdjust="spacing" textLength="21.6582" x="3299.3899" y="195.9638">Dir</text><text fill="#000000" font-family="sans-serif" font-size="13" lengthAdjust="spacing" textLength="77.9683" x="3128.3523" y="211.0966">robot_mode</text><text fill="#000000" font-family="sans-serif" font-size="13" lengthAdjust="spacing" textLength="13.5586" x="3298.9964" y="211.0966">IN</text><text fill="#000000" font-family="sans-serif" font-size="13" lengthAdjust="spacing" textLength="162.3794" x="3128.3523" y="226.2294">/navigate_to_pose action</text><text fill="#000000" font-family="sans-serif" font-size="13" lengthAdjust="spacing" textLength="27.6885" x="3298.9964" y="226.2294">OUT</text><line style="stroke:#000000;stroke-width:1;" x1="3124.22" x2="3330.8172" y1="183.8969" y2="183.8969"/><line style="stroke:#000000;stroke-width:1;" x1="3124.22" x2="3330.8172" y1="199.0297" y2="199.0297"/><line style="stroke:#000000;stroke-width:1;" x1="3124.22" x2="3330.8172" y1="214.1625" y2="214.1625"/><line style="stroke:#000000;stroke-width:1;" x1="3124.22" x2="3330.8172" y1="229.2953" y2="229.2953"/><line style="stroke:#000000;stroke-width:1;" x1="3124.22" x2="3124.22" y1="183.8969" y2="229.2953"/><line style="stroke:#000000;stroke-width:1;" x1="3294.864" x2="3294.864" y1="183.8969" y2="229.2953"/><line style="stroke:#000000;stroke-width:1;" x1="3330.8172" x2="3330.8172" y1="183.8969" y2="229.2953"/></g><g class="entity" data-qualified-name="GMN47" data-source-line="117" id="ent0048"><path d="M3415.82,45.8969 L3415.82,71.5969 L3313.22,75.5969 L3415.82,79.5969 L3415.82,105.2953 A0,0 0 0 0 3415.82,105.2953 L3648.3239,105.2953 A0,0 0 0 0 3648.3239,105.2953 L3648.3239,55.8969 L3638.3239,45.8969 L3415.82,45.8969 A0,0 0 0 0 3415.82,45.8969" fill="#FEFFDD" style="stroke:#181818;stroke-width:0.5;"/><path d="M3638.3239,45.8969 L3638.3239,55.8969 L3648.3239,55.8969 L3638.3239,45.8969" fill="#FEFFDD" style="stroke:#181818;stroke-width:0.5;"/><text fill="#000000" font-family="sans-serif" font-size="13" font-weight="bold" lengthAdjust="spacing" textLength="39.2666" x="3426.3459" y="64.9638">Topic</text><text fill="#000000" font-family="sans-serif" font-size="13" font-weight="bold" lengthAdjust="spacing" textLength="21.6582" x="3601.8967" y="64.9638">Dir</text><text fill="#000000" font-family="sans-serif" font-size="13" lengthAdjust="spacing" textLength="167.2861" x="3425.9523" y="80.0966">NT4 ROS/robot_mode key</text><text fill="#000000" font-family="sans-serif" font-size="13" lengthAdjust="spacing" textLength="13.5586" x="3601.5031" y="80.0966">IN</text><text fill="#000000" font-family="sans-serif" font-size="13" lengthAdjust="spacing" textLength="77.9683" x="3425.9523" y="95.2294">robot_mode</text><text fill="#000000" font-family="sans-serif" font-size="13" lengthAdjust="spacing" textLength="27.6885" x="3601.5031" y="95.2294">OUT</text><line style="stroke:#000000;stroke-width:0.5;" x1="3421.82" x2="3633.3239" y1="52.8969" y2="52.8969"/><line style="stroke:#000000;stroke-width:0.5;" x1="3421.82" x2="3633.3239" y1="68.0297" y2="68.0297"/><line style="stroke:#000000;stroke-width:0.5;" x1="3421.82" x2="3633.3239" y1="83.1625" y2="83.1625"/><line style="stroke:#000000;stroke-width:0.5;" x1="3421.82" x2="3633.3239" y1="98.2953" y2="98.2953"/><line style="stroke:#000000;stroke-width:0.5;" x1="3421.82" x2="3421.82" y1="52.8969" y2="98.2953"/><line style="stroke:#000000;stroke-width:0.5;" x1="3597.3708" x2="3597.3708" y1="52.8969" y2="98.2953"/><line style="stroke:#000000;stroke-width:0.5;" x1="3633.3239" x2="3633.3239" y1="52.8969" y2="98.2953"/></g><!--link map_server to GMN14--><g class="link" data-entity-1="ent0002" data-entity-2="ent0015" data-link-type="association" data-source-line="30" id="lnk16"><path d="M129.55,841.5969 C166.05,841.5969 205.32,841.5969 205.32,841.5969 C205.32,841.5969 205.32,857.0869 205.32,872.4569" fill="none" id="map_server-GMN14" style="stroke:#181818;stroke-width:1;stroke-dasharray:7,7;"/></g><!--link planner to GMN17--><g class="link" data-entity-1="ent0003" data-entity-2="ent0018" data-link-type="association" data-source-line="36" id="lnk19"><path d="M356.26,787.3169 C412.69,787.3169 481.32,787.3169 481.32,787.3169 C481.32,787.3169 481.32,794.2269 481.32,803.4169" fill="none" id="planner-GMN17" style="stroke:#181818;stroke-width:1;stroke-dasharray:7,7;"/></g><!--link route to GMN20--><g class="link" data-entity-1="ent0004" data-entity-2="ent0021" data-link-type="association" data-source-line="44" id="lnk22"><path d="M566.45,710.5969 C607.66,710.5969 653.32,710.5969 653.32,710.5969 C653.32,710.5969 653.32,721.3369 653.32,734.3469" fill="none" id="route-GMN20" style="stroke:#181818;stroke-width:1;stroke-dasharray:7,7;"/></g><!--link controller to GMN23--><g class="link" data-entity-1="ent0005" data-entity-2="ent0024" data-link-type="association" data-source-line="52" id="lnk25"><path d="M750.32,665.1769 C750.32,671.2469 750.32,676.0969 750.32,676.0969 C750.32,676.0969 857.91,676.0969 935.24,676.0969" fill="none" id="controller-GMN23" style="stroke:#181818;stroke-width:1;stroke-dasharray:7,7;"/></g><!--link behavior to GMN26--><g class="link" data-entity-1="ent0006" data-entity-2="ent0027" data-link-type="association" data-source-line="61" id="lnk28"><path d="M1089.35,576.3169 C1127.41,576.3169 1165.32,576.3169 1165.32,576.3169 C1165.32,576.3169 1165.32,583.2269 1165.32,592.4169" fill="none" id="behavior-GMN26" style="stroke:#181818;stroke-width:1;stroke-dasharray:7,7;"/></g><!--link btnav to GMN29--><g class="link" data-entity-1="ent0007" data-entity-2="ent0030" data-link-type="association" data-source-line="69" id="lnk31"><path d="M1300.85,499.3769 C1353.54,499.3769 1419.32,499.3769 1419.32,499.3769 C1419.32,499.3769 1419.32,510.3669 1419.32,523.5869" fill="none" id="btnav-GMN29" style="stroke:#181818;stroke-width:1;stroke-dasharray:7,7;"/></g><!--link waypoint to GMN32--><g class="link" data-entity-1="ent0008" data-entity-2="ent0033" data-link-type="association" data-source-line="77" id="lnk34"><path d="M1622.94,430.5969 C1698.98,430.5969 1799.32,430.5969 1799.32,430.5969 C1799.32,430.5969 1799.32,446.8369 1799.32,462.6869" fill="none" id="waypoint-GMN32" style="stroke:#181818;stroke-width:1;stroke-dasharray:7,7;"/></g><!--link vel_smoother to GMN35--><g class="link" data-entity-1="ent0009" data-entity-2="ent0036" data-link-type="association" data-source-line="83" id="lnk37"><path d="M2003.31,377.3169 C2069.84,377.3169 2151.32,377.3169 2151.32,377.3169 C2151.32,377.3169 2151.32,386.2269 2151.32,397.0269" fill="none" id="vel_smoother-GMN35" style="stroke:#181818;stroke-width:1;stroke-dasharray:7,7;"/></g><!--link collision to GMN38--><g class="link" data-entity-1="ent0010" data-entity-2="ent0039" data-link-type="association" data-source-line="90" id="lnk40"><path d="M2319.22,301.7569 C2373.4,301.7569 2435.32,301.7569 2435.32,301.7569 C2435.32,301.7569 2435.32,310.1269 2435.32,321.6869" fill="none" id="collision-GMN38" style="stroke:#181818;stroke-width:1;stroke-dasharray:7,7;"/></g><!--link auto_mgr to GMN44--><g class="link" data-entity-1="ent0012" data-entity-2="ent0045" data-link-type="association" data-source-line="111" id="lnk46"><path d="M3022.93,151.0269 C3078.84,151.0269 3134.32,151.0269 3134.32,151.0269 C3134.32,151.0269 3134.32,163.4469 3134.32,176.5369" fill="none" id="auto_mgr-GMN44" style="stroke:#181818;stroke-width:1;stroke-dasharray:7,7;"/></g><!--link map_server to planner--><!--link planner to route--><!--link route to controller--><!--link controller to behavior--><!--link behavior to btnav--><!--link btnav to waypoint--><!--link waypoint to vel_smoother--><!--link vel_smoother to collision--><!--link collision to cmd_nt4--><!--link cmd_nt4 to auto_mgr--><!--link auto_mgr to mode_bridge--><g class="legend" data-source-line="10"><rect fill="#DDDDDD" height="58.8906" rx="7.5" ry="7.5" style="stroke:#000000;stroke-width:1;" width="485.2139" x="3144.11" y="950.2953"/><text fill="#000000" font-family="sans-serif" font-size="14" lengthAdjust="spacing" textLength="296.1943" x="3149.11" y="968.2904">Direction is from each node's perspective.</text><text fill="#000000" font-family="sans-serif" font-size="14" lengthAdjust="spacing" textLength="400.5586" x="3149.11" y="984.5873">IN = subscribes/listens, OUT = publishes, IN/OUT = both.</text><text fill="#000000" font-family="sans-serif" font-size="14" lengthAdjust="spacing" textLength="475.2139" x="3149.11" y="1000.8842">This diagram focuses on launch wiring + configured runtime topics.</text></g><?plantuml-src jLPDRzim3BtxLn2xT5-DToYmKtVQfS3G0cjtsWP3iMbRg2mPafp2G7xyA5kofJPfMcox91P9aOyY-IHppsNFDEl0jAnI3rmsK3DXC3EBfcVbFMlmreu2GMDfcMn4R22uH3ls24hRLaKAgIeqsCFdJv5GCtdlXG9h2rQ1varheUBEELSoooot54ko7M-Oasm46sJPRleHUjJdpY_jwtcvRZ8PkMjGLhEtx6jG03TGQzK1ihAT89qPvyNqJh_3JNPr3PTWXgqfDT-YoGKt5gNv23S_xaZJ3rkIj4Y2g-jybcsLRJVPNKk-AyuQbrUjoi6W0OeueuK7hjrvVe1IoPetWqO2DqZBEu_UR382FCFEib9rlP8eBRpfM5yOr3lKl-HRrRiqc7Zt1fY1LHLlw0MJ4hNNJ8PU55jfDLYCRIP1R458hLP2fAvMQMoxnPOAf1BB84liRE4hgRoHfNLiyS36Nd5fYvg2g0VlAqXZonqALN8x5gPJL09lIT95a6OZg79qU4Md90_X5sbYsbM5SoFjHR7Ll6hmoSax4rB7kzXWbLJTIFuhB3ecQKwUbinP5LsJG7Dnfar7WaMwB9FAeXyILSSTiB-4ksaCw8CQ7lRP7dBImtxgtR0iEhIiOfOjSZSdpkjZtw5fdd5CqpAjR9qi2cDfLCj8vdoT33Xtu3y8DpcQOaetTDGtg6jMqa2UWX1rzq4SFeyGMrN49QyuXgMpsEuab6Ly3WBvhv6dcJmOrWyl5jJ5lJ88RERLVQ335w7ndPMlfvs7RBr34tiyXdCXXKDGWn82ZmJFkPiNFZT33FfuQi-ZI0ZduA65i_TMrV46UasLLkfwRL1J9arCBCf4KIfZQShoSCDLHC3AzjeTuL_scHC_Pjzf9vvEqlFiiodEiHPKh2aQeRQKqrJ6LVEumdanbpXtM0Ppj2nQqHK_CJIipBogh-ykuFlDRVuUxd4yJJ7B3N0efoZKSTmlxSputZWKB02FWb861_D-6keClh6HU1PQ5Eu5HMyTCMwozKA2yvyjhogKly-_B7U9_qzqC-rFluayUMc4pyHYeSY5FHBjH6FJRo9VQ6EXY5YRZ7EyU8HjVJVuhrGVtWVpVw9R6Y1y9DguQ7y0?></g></svg>