<?plantuml 1.2026.1?><svg xmlns="http://www.w3.org/2000/svg" xmlns:xlink="http://www.w3.org/1999/xlink" contentStyleType="text/css" data-diagram-type="DESCRIPTION" height="369px" preserveAspectRatio="none" style="width:790px;height:369px;background:#FFFFFF;" version="1.1" viewBox="0 0 790 369" width="790px" zoomAndPan="magnify"><title>sim_harness.launch.py per-node topic directions</title><defs/><g><g class="title" data-source-line="6"><text fill="#000000" font-family="sans-serif" font-size="14" font-weight="bold" lengthAdjust="spacing" textLength="383.708" x="196.5296" y="22.9951">sim_harness.launch.py per-node topic directions</text></g><!--entity sim_inputs--><g class="entity" data-qualified-name="sim_inputs" data-source-line="13" id="ent0002"><rect fill="#F1F1F1" height="62.5938" rx="2.5" ry="2.5" style="stroke:#181818;stroke-width:0.5;" width="253.8418" x="7" y="134.9669"/><rect fill="#F1F1F1" height="10" style="stroke:#181818;stroke-width:0.5;" width="15" x="240.8418" y="139.9669"/><rect fill="#F1F1F1" height="2" style="stroke:#181818;stroke-width:0.5;" width="4" x="238.8418" y="141.9669"/><rect fill="#F1F1F1" height="2" style="stroke:#181818;stroke-width:0.5;" width="4" x="238.8418" y="145.9669"/><text fill="#000000" font-family="sans-serif" font-size="14" lengthAdjust="spacing" textLength="75.127" x="22" y="167.962">sim_inputs</text><text fill="#000000" font-family="sans-serif" font-size="14" lengthAdjust="spacing" textLength="213.8418" x="22" y="184.2589">(arena_bringup/sim_inputs.py)</text></g><!--entity nav_stack--><g class="entity" data-qualified-name="nav_stack" data-source-line="14" id="ent0003"><rect fill="#F1F1F1" height="62.5938" rx="2.5" ry="2.5" style="stroke:#181818;stroke-width:0.5;" width="228.3848" x="320.84" y="71.9669"/><rect fill="#F1F1F1" height="10" style="stroke:#181818;stroke-width:0.5;" width="15" x="529.2248" y="76.9669"/><rect fill="#F1F1F1" height="2" style="stroke:#181818;stroke-width:0.5;" width="4" x="527.2248" y="78.9669"/><rect fill="#F1F1F1" height="2" style="stroke:#181818;stroke-width:0.5;" width="4" x="527.2248" y="82.9669"/><text fill="#000000" font-family="sans-serif" font-size="14" lengthAdjust="spacing" textLength="188.3848" x="335.84" y="104.962">navigation.launch.py stack</text><text fill="#000000" font-family="sans-serif" font-size="14" lengthAdjust="spacing" textLength="70.5332" x="335.84" y="121.2589">(included)</text></g><g class="entity" data-qualified-name="GMN4" data-source-line="17" id="ent0005"><path d="M347.77,169.2969 L347.77,179.4269 L261.18,183.4269 L347.77,187.4269 L347.77,289.2266 A0,0 0 0 0 347.77,289.2266 L522.3071,289.2266 A0,0 0 0 0 522.3071,289.2266 L522.3071,179.2969 L512.3071,169.2969 L347.77,169.2969 A0,0 0 0 0 347.77,169.2969" fill="#FEFFDD" style="stroke:#181818;stroke-width:0.5;"/><path d="M512.3071,169.2969 L512.3071,179.2969 L522.3071,179.2969 L512.3071,169.2969" fill="#FEFFDD" style="stroke:#181818;stroke-width:0.5;"/><text fill="#000000" font-family="sans-serif" font-size="13" font-weight="bold" lengthAdjust="spacing" textLength="39.2666" x="358.2959" y="188.3638">Topic</text><text fill="#000000" font-family="sans-serif" font-size="13" font-weight="bold" lengthAdjust="spacing" textLength="21.6582" x="475.8799" y="188.3638">Dir</text><text fill="#000000" font-family="sans-serif" font-size="13" lengthAdjust="spacing" textLength="88.645" x="357.9023" y="203.4966">/cmd_vel_nav</text><text fill="#000000" font-family="sans-serif" font-size="13" lengthAdjust="spacing" textLength="13.5586" x="475.4863" y="203.4966">IN</text><text fill="#000000" font-family="sans-serif" font-size="13" lengthAdjust="spacing" textLength="77.9683" x="357.9023" y="218.6294">robot_mode</text><text fill="#000000" font-family="sans-serif" font-size="13" lengthAdjust="spacing" textLength="27.6885" x="475.4863" y="218.6294">OUT</text><text fill="#000000" font-family="sans-serif" font-size="13" lengthAdjust="spacing" textLength="109.3193" x="357.9023" y="233.7622">/tag_global_pose</text><text fill="#000000" font-family="sans-serif" font-size="13" lengthAdjust="spacing" textLength="27.6885" x="475.4863" y="233.7622">OUT</text><text fill="#000000" font-family="sans-serif" font-size="13" lengthAdjust="spacing" textLength="41.2026" x="357.9023" y="248.895">/odom</text><text fill="#000000" font-family="sans-serif" font-size="13" lengthAdjust="spacing" textLength="27.6885" x="475.4863" y="248.895">OUT</text><text fill="#000000" font-family="sans-serif" font-size="13" lengthAdjust="spacing" textLength="84.062" x="357.9023" y="264.0278">/wheel/odom</text><text fill="#000000" font-family="sans-serif" font-size="13" lengthAdjust="spacing" textLength="27.6885" x="475.4863" y="264.0278">OUT</text><text fill="#000000" font-family="sans-serif" font-size="13" lengthAdjust="spacing" textLength="14.0537" x="357.9023" y="279.1606">/tf</text><text fill="#000000" font-family="sans-serif" font-size="13" lengthAdjust="spacing" textLength="27.6885" x="475.4863" y="279.1606">OUT</text><line style="stroke:#000000;stroke-width:0.5;" x1="353.77" x2="507.3071" y1="176.2969" y2="176.2969"/><line style="stroke:#000000;stroke-width:0.5;" x1="353.77" x2="507.3071" y1="191.4297" y2="191.4297"/><line style="stroke:#000000;stroke-width:0.5;" x1="353.77" x2="507.3071" y1="206.5625" y2="206.5625"/><line style="stroke:#000000;stroke-width:0.5;" x1="353.77" x2="507.3071" y1="221.6953" y2="221.6953"/><line style="stroke:#000000;stroke-width:0.5;" x1="353.77" x2="507.3071" y1="236.8281" y2="236.8281"/><line style="stroke:#000000;stroke-width:0.5;" x1="353.77" x2="507.3071" y1="251.9609" y2="251.9609"/><line style="stroke:#000000;stroke-width:0.5;" x1="353.77" x2="507.3071" y1="267.0938" y2="267.0938"/><line style="stroke:#000000;stroke-width:0.5;" x1="353.77" x2="507.3071" y1="282.2266" y2="282.2266"/><line style="stroke:#000000;stroke-width:0.5;" x1="353.77" x2="353.77" y1="176.2969" y2="282.2266"/><line style="stroke:#000000;stroke-width:0.5;" x1="471.354" x2="471.354" y1="176.2969" y2="282.2266"/><line style="stroke:#000000;stroke-width:0.5;" x1="507.3071" x2="507.3071" y1="176.2969" y2="282.2266"/></g><g class="entity" data-qualified-name="GMN7" data-source-line="27" id="ent0008"><path d="M609.23,43.2969 L609.23,99.2669 L549.71,103.2669 L609.23,107.2669 L609.23,163.2266 A0,0 0 0 0 609.23,163.2266 L783.7671,163.2266 A0,0 0 0 0 783.7671,163.2266 L783.7671,53.2969 L773.7671,43.2969 L609.23,43.2969 A0,0 0 0 0 609.23,43.2969" fill="#FEFFDD" style="stroke:#181818;stroke-width:0.5;"/><path d="M773.7671,43.2969 L773.7671,53.2969 L783.7671,53.2969 L773.7671,43.2969" fill="#FEFFDD" style="stroke:#181818;stroke-width:0.5;"/><text fill="#000000" font-family="sans-serif" font-size="13" font-weight="bold" lengthAdjust="spacing" textLength="39.2666" x="619.7559" y="62.3638">Topic</text><text fill="#000000" font-family="sans-serif" font-size="13" font-weight="bold" lengthAdjust="spacing" textLength="21.6582" x="737.3399" y="62.3638">Dir</text><text fill="#000000" font-family="sans-serif" font-size="13" lengthAdjust="spacing" textLength="77.9683" x="619.3623" y="77.4966">robot_mode</text><text fill="#000000" font-family="sans-serif" font-size="13" lengthAdjust="spacing" textLength="13.5586" x="736.9463" y="77.4966">IN</text><text fill="#000000" font-family="sans-serif" font-size="13" lengthAdjust="spacing" textLength="109.3193" x="619.3623" y="92.6294">/tag_global_pose</text><text fill="#000000" font-family="sans-serif" font-size="13" lengthAdjust="spacing" textLength="13.5586" x="736.9463" y="92.6294">IN</text><text fill="#000000" font-family="sans-serif" font-size="13" lengthAdjust="spacing" textLength="41.2026" x="619.3623" y="107.7622">/odom</text><text fill="#000000" font-family="sans-serif" font-size="13" lengthAdjust="spacing" textLength="13.5586" x="736.9463" y="107.7622">IN</text><text fill="#000000" font-family="sans-serif" font-size="13" lengthAdjust="spacing" textLength="84.062" x="619.3623" y="122.895">/wheel/odom</text><text fill="#000000" font-family="sans-serif" font-size="13" lengthAdjust="spacing" textLength="13.5586" x="736.9463" y="122.895">IN</text><text fill="#000000" font-family="sans-serif" font-size="13" lengthAdjust="spacing" textLength="14.0537" x="619.3623" y="138.0278">/tf</text><text fill="#000000" font-family="sans-serif" font-size="13" lengthAdjust="spacing" textLength="13.5586" x="736.9463" y="138.0278">IN</text><text fill="#000000" font-family="sans-serif" font-size="13" lengthAdjust="spacing" textLength="88.645" x="619.3623" y="153.1606">/cmd_vel_nav</text><text fill="#000000" font-family="sans-serif" font-size="13" lengthAdjust="spacing" textLength="27.6885" x="736.9463" y="153.1606">OUT</text><line style="stroke:#000000;stroke-width:0.5;" x1="615.23" x2="768.7671" y1="50.2969" y2="50.2969"/><line style="stroke:#000000;stroke-width:0.5;" x1="615.23" x2="768.7671" y1="65.4297" y2="65.4297"/><line style="stroke:#000000;stroke-width:0.5;" x1="615.23" x2="768.7671" y1="80.5625" y2="80.5625"/><line style="stroke:#000000;stroke-width:0.5;" x1="615.23" x2="768.7671" y1="95.6953" y2="95.6953"/><line style="stroke:#000000;stroke-width:0.5;" x1="615.23" x2="768.7671" y1="110.8281" y2="110.8281"/><line style="stroke:#000000;stroke-width:0.5;" x1="615.23" x2="768.7671" y1="125.9609" y2="125.9609"/><line style="stroke:#000000;stroke-width:0.5;" x1="615.23" x2="768.7671" y1="141.0938" y2="141.0938"/><line style="stroke:#000000;stroke-width:0.5;" x1="615.23" x2="768.7671" y1="156.2266" y2="156.2266"/><line style="stroke:#000000;stroke-width:0.5;" x1="615.23" x2="615.23" y1="50.2969" y2="156.2266"/><line style="stroke:#000000;stroke-width:0.5;" x1="732.814" x2="732.814" y1="50.2969" y2="156.2266"/><line style="stroke:#000000;stroke-width:0.5;" x1="768.7671" x2="768.7671" y1="50.2969" y2="156.2266"/></g><!--link sim_inputs to nav_stack--><g class="legend" data-source-line="8"><rect fill="#DDDDDD" height="42.5938" rx="7.5" ry="7.5" style="stroke:#000000;stroke-width:1;" width="410.5586" x="354.2085" y="307.2266"/><text fill="#000000" font-family="sans-serif" font-size="14" lengthAdjust="spacing" textLength="296.1943" x="359.2085" y="325.2217">Direction is from each node's perspective.</text><text fill="#000000" font-family="sans-serif" font-size="14" lengthAdjust="spacing" textLength="400.5586" x="359.2085" y="341.5186">IN = subscribes/listens, OUT = publishes, IN/OUT = both.</text></g><?plantuml-src RL6xRjmm4Epv5GitZe7StHSubHitJX6xiWE18bSYSTIIu59d7A2FprBtaCvnfvtXpiwCUEyfwQm7OATj_FJKGwS3e-8haxJPwnx_b6D0o6YAfZwi7mHFM8u98URYeWhO5IWHikzT0UlhYe-aLF555DWFZTEPa7aRz4Z6RTCH4kODHOkocBnPjbY9NezaJtBgwKA0P-Xo702rSL1NxxcgSAhy0RVg-GKUWSUMJVOjyYvuBaZy4tw_lGgJnbOGXm8yl-nEM1kBsogvThgfb8b3YeHKuAxwbiHZuG_weJEIRjeiVOrfjr0IvU4EDCC2hJL87tolg_rLT2vIi6XwCc6qQ4y2yhIP6QKe5Zot6RkrylG8htDTyY75mAGcs9d1DWSCZGZ09D5cD4U9rWoru6dEFpyjkc_w45iTcXJvXefMgbtDdmun_8UMxZhLNrIDVhMxvFZExOslizTlR5sOy_tBU6FgkjsjXjiolZfTgeJDk_FM8ltT_5fP_WS0?></g></svg>