<?plantuml 1.2026.1?><svg xmlns="http://www.w3.org/2000/svg" xmlns:xlink="http://www.w3.org/1999/xlink" contentStyleType="text/css" data-diagram-type="DESCRIPTION" height="678px" preserveAspectRatio="none" style="width:2138px;height:678px;background:#FFFFFF;" version="1.1" viewBox="0 0 2138 678" width="2138px" zoomAndPan="magnify"><title>bringup_multi_cam.launch.py per-node topic directions</title><defs/><g><g class="title" data-source-line="8"><text fill="#000000" font-family="sans-serif" font-size="14" font-weight="bold" lengthAdjust="spacing" textLength="435.4219" x="844.5697" y="22.9951">bringup_multi_cam.launch.py per-node topic directions</text></g><!--entity rsp--><g class="entity" data-qualified-name="rsp" data-source-line="15" id="ent0002"><rect fill="#F1F1F1" height="46.2969" rx="2.5" ry="2.5" style="stroke:#181818;stroke-width:0.5;" width="191.6895" x="7" y="479.8469"/><rect fill="#F1F1F1" height="10" style="stroke:#181818;stroke-width:0.5;" width="15" x="178.6895" y="484.8469"/><rect fill="#F1F1F1" height="2" style="stroke:#181818;stroke-width:0.5;" width="4" x="176.6895" y="486.8469"/><rect fill="#F1F1F1" height="2" style="stroke:#181818;stroke-width:0.5;" width="4" x="176.6895" y="490.8469"/><text fill="#000000" font-family="sans-serif" font-size="14" lengthAdjust="spacing" textLength="151.6895" x="22" y="512.842">robot_state_publisher</text></g><!--entity apriltag_1--><g class="entity" data-qualified-name="apriltag_1" data-source-line="16" id="ent0003"><rect fill="#F1F1F1" height="62.5938" rx="2.5" ry="2.5" style="stroke:#181818;stroke-width:0.5;" width="172.1592" x="268.69" y="405.6969"/><rect fill="#F1F1F1" height="10" style="stroke:#181818;stroke-width:0.5;" width="15" x="420.8492" y="410.6969"/><rect fill="#F1F1F1" height="2" style="stroke:#181818;stroke-width:0.5;" width="4" x="418.8492" y="412.6969"/><rect fill="#F1F1F1" height="2" style="stroke:#181818;stroke-width:0.5;" width="4" x="418.8492" y="416.6969"/><text fill="#000000" font-family="sans-serif" font-size="14" lengthAdjust="spacing" textLength="53.9561" x="283.69" y="438.692">apriltag</text><text fill="#000000" font-family="sans-serif" font-size="14" lengthAdjust="spacing" textLength="132.1592" x="283.69" y="454.9889">/camera_1/apriltag</text></g><!--entity apriltag_2--><g class="entity" data-qualified-name="apriltag_2" data-source-line="17" id="ent0004"><rect fill="#F1F1F1" height="62.5938" rx="2.5" ry="2.5" style="stroke:#181818;stroke-width:0.5;" width="172.1592" x="541.68" y="336.6969"/><rect fill="#F1F1F1" height="10" style="stroke:#181818;stroke-width:0.5;" width="15" x="693.8392" y="341.6969"/><rect fill="#F1F1F1" height="2" style="stroke:#181818;stroke-width:0.5;" width="4" x="691.8392" y="343.6969"/><rect fill="#F1F1F1" height="2" style="stroke:#181818;stroke-width:0.5;" width="4" x="691.8392" y="347.6969"/><text fill="#000000" font-family="sans-serif" font-size="14" lengthAdjust="spacing" textLength="53.9561" x="556.68" y="369.692">apriltag</text><text fill="#000000" font-family="sans-serif" font-size="14" lengthAdjust="spacing" textLength="132.1592" x="556.68" y="385.9889">/camera_2/apriltag</text></g><!--entity observer--><g class="entity" data-qualified-name="observer" data-source-line="18" id="ent0005"><rect fill="#F1F1F1" height="46.2969" rx="2.5" ry="2.5" style="stroke:#181818;stroke-width:0.5;" width="172.084" x="845.53" y="279.8469"/><rect fill="#F1F1F1" height="10" style="stroke:#181818;stroke-width:0.5;" width="15" x="997.614" y="284.8469"/><rect fill="#F1F1F1" height="2" style="stroke:#181818;stroke-width:0.5;" width="4" x="995.614" y="286.8469"/><rect fill="#F1F1F1" height="2" style="stroke:#181818;stroke-width:0.5;" width="4" x="995.614" y="290.8469"/><text fill="#000000" font-family="sans-serif" font-size="14" lengthAdjust="spacing" textLength="132.084" x="860.53" y="312.842">tag_pose_observer</text></g><!--entity ekf_odom--><g class="entity" data-qualified-name="ekf_odom" data-source-line="19" id="ent0006"><rect fill="#F1F1F1" height="62.5938" rx="2.5" ry="2.5" style="stroke:#181818;stroke-width:0.5;" width="242.7471" x="1118.48" y="194.6969"/><rect fill="#F1F1F1" height="10" style="stroke:#181818;stroke-width:0.5;" width="15" x="1341.2271" y="199.6969"/><rect fill="#F1F1F1" height="2" style="stroke:#181818;stroke-width:0.5;" width="4" x="1339.2271" y="201.6969"/><rect fill="#F1F1F1" height="2" style="stroke:#181818;stroke-width:0.5;" width="4" x="1339.2271" y="205.6969"/><text fill="#000000" font-family="sans-serif" font-size="14" lengthAdjust="spacing" textLength="68.3047" x="1133.48" y="227.692">ekf_odom</text><text fill="#000000" font-family="sans-serif" font-size="14" lengthAdjust="spacing" textLength="202.7471" x="1133.48" y="243.9889">(robot_localization/ekf_node)</text></g><!--entity ekf_map--><g class="entity" data-qualified-name="ekf_map" data-source-line="20" id="ent0007"><rect fill="#F1F1F1" height="62.5938" rx="2.5" ry="2.5" style="stroke:#181818;stroke-width:0.5;" width="242.7471" x="1431.23" y="117.6969"/><rect fill="#F1F1F1" height="10" style="stroke:#181818;stroke-width:0.5;" width="15" x="1653.9771" y="122.6969"/><rect fill="#F1F1F1" height="2" style="stroke:#181818;stroke-width:0.5;" width="4" x="1651.9771" y="124.6969"/><rect fill="#F1F1F1" height="2" style="stroke:#181818;stroke-width:0.5;" width="4" x="1651.9771" y="128.6969"/><text fill="#000000" font-family="sans-serif" font-size="14" lengthAdjust="spacing" textLength="59.7529" x="1446.23" y="150.692">ekf_map</text><text fill="#000000" font-family="sans-serif" font-size="14" lengthAdjust="spacing" textLength="202.7471" x="1446.23" y="166.9889">(robot_localization/ekf_node)</text></g><!--entity rviz--><g class="entity" data-qualified-name="rviz" data-source-line="21" id="ent0008"><rect fill="#F1F1F1" height="46.2969" rx="2.5" ry="2.5" style="stroke:#181818;stroke-width:0.5;" width="74.1865" x="1807.57" y="49.8469"/><rect fill="#F1F1F1" height="10" style="stroke:#181818;stroke-width:0.5;" width="15" x="1861.7565" y="54.8469"/><rect fill="#F1F1F1" height="2" style="stroke:#181818;stroke-width:0.5;" width="4" x="1859.7565" y="56.8469"/><rect fill="#F1F1F1" height="2" style="stroke:#181818;stroke-width:0.5;" width="4" x="1859.7565" y="60.8469"/><text fill="#000000" font-family="sans-serif" font-size="14" lengthAdjust="spacing" textLength="34.1865" x="1822.57" y="82.842">rviz2</text></g><g class="entity" data-qualified-name="GMN9" data-source-line="24" id="ent0010"><path d="M294.04,538.2969 L294.04,597.6953 L415.5044,597.6953 L415.5044,548.2969 L405.5044,538.2969 L294.04,538.2969" fill="#FEFFDD" style="stroke:#181818;stroke-width:0.5;"/><path d="M405.5044,538.2969 L405.5044,548.2969 L415.5044,548.2969 L405.5044,538.2969" fill="#FEFFDD" style="stroke:#181818;stroke-width:1;"/><text fill="#000000" font-family="sans-serif" font-size="13" font-weight="bold" lengthAdjust="spacing" textLength="39.2666" x="304.5659" y="557.3638">Topic</text><text fill="#000000" font-family="sans-serif" font-size="13" font-weight="bold" lengthAdjust="spacing" textLength="21.6582" x="369.0771" y="557.3638">Dir</text><text fill="#000000" font-family="sans-serif" font-size="13" lengthAdjust="spacing" textLength="14.0537" x="304.1723" y="572.4966">/tf</text><text fill="#000000" font-family="sans-serif" font-size="13" lengthAdjust="spacing" textLength="27.6885" x="368.6836" y="572.4966">OUT</text><text fill="#000000" font-family="sans-serif" font-size="13" lengthAdjust="spacing" textLength="56.2466" x="304.1723" y="587.6294">/tf_static</text><text fill="#000000" font-family="sans-serif" font-size="13" lengthAdjust="spacing" textLength="27.6885" x="368.6836" y="587.6294">OUT</text><line style="stroke:#000000;stroke-width:1;" x1="300.04" x2="400.5044" y1="545.2969" y2="545.2969"/><line style="stroke:#000000;stroke-width:1;" x1="300.04" x2="400.5044" y1="560.4297" y2="560.4297"/><line style="stroke:#000000;stroke-width:1;" x1="300.04" x2="400.5044" y1="575.5625" y2="575.5625"/><line style="stroke:#000000;stroke-width:1;" x1="300.04" x2="400.5044" y1="590.6953" y2="590.6953"/><line style="stroke:#000000;stroke-width:1;" x1="300.04" x2="300.04" y1="545.2969" y2="590.6953"/><line style="stroke:#000000;stroke-width:1;" x1="364.5512" x2="364.5512" y1="545.2969" y2="590.6953"/><line style="stroke:#000000;stroke-width:1;" x1="400.5044" x2="400.5044" y1="545.2969" y2="590.6953"/></g><g class="entity" data-qualified-name="GMN12" data-source-line="30" id="ent0013"><path d="M510.85,469.7369 L510.85,544.2681 L744.6679,544.2681 L744.6679,479.7369 L734.6679,469.7369 L510.85,469.7369" fill="#FEFFDD" style="stroke:#181818;stroke-width:0.5;"/><path d="M734.6679,469.7369 L734.6679,479.7369 L744.6679,479.7369 L734.6679,469.7369" fill="#FEFFDD" style="stroke:#181818;stroke-width:1;"/><text fill="#000000" font-family="sans-serif" font-size="13" font-weight="bold" lengthAdjust="spacing" textLength="39.2666" x="521.3759" y="488.8038">Topic</text><text fill="#000000" font-family="sans-serif" font-size="13" font-weight="bold" lengthAdjust="spacing" textLength="21.6582" x="698.2406" y="488.8038">Dir</text><text fill="#000000" font-family="sans-serif" font-size="13" lengthAdjust="spacing" textLength="143.5522" x="520.9823" y="503.9366">/camera_1/image_raw</text><text fill="#000000" font-family="sans-serif" font-size="13" lengthAdjust="spacing" textLength="13.5586" x="697.8471" y="503.9366">IN</text><text fill="#000000" font-family="sans-serif" font-size="13" lengthAdjust="spacing" textLength="152.585" x="520.9823" y="519.0694">/camera_1/camera_info</text><text fill="#000000" font-family="sans-serif" font-size="13" lengthAdjust="spacing" textLength="13.5586" x="697.8471" y="519.0694">IN</text><text fill="#000000" font-family="sans-serif" font-size="13" lengthAdjust="spacing" textLength="168.6001" x="520.9823" y="534.2022">/camera_1/tag_detections</text><text fill="#000000" font-family="sans-serif" font-size="13" lengthAdjust="spacing" textLength="27.6885" x="697.8471" y="534.2022">OUT</text><line style="stroke:#000000;stroke-width:1;" x1="516.85" x2="729.6679" y1="476.7369" y2="476.7369"/><line style="stroke:#000000;stroke-width:1;" x1="516.85" x2="729.6679" y1="491.8697" y2="491.8697"/><line style="stroke:#000000;stroke-width:1;" x1="516.85" x2="729.6679" y1="507.0025" y2="507.0025"/><line style="stroke:#000000;stroke-width:1;" x1="516.85" x2="729.6679" y1="522.1353" y2="522.1353"/><line style="stroke:#000000;stroke-width:1;" x1="516.85" x2="729.6679" y1="537.2681" y2="537.2681"/><line style="stroke:#000000;stroke-width:1;" x1="516.85" x2="516.85" y1="476.7369" y2="537.2681"/><line style="stroke:#000000;stroke-width:1;" x1="693.7147" x2="693.7147" y1="476.7369" y2="537.2681"/><line style="stroke:#000000;stroke-width:1;" x1="729.6679" x2="729.6679" y1="476.7369" y2="537.2681"/></g><g class="entity" data-qualified-name="GMN15" data-source-line="37" id="ent0016"><path d="M814.67,395.7369 L814.67,470.2681 L1048.4879,470.2681 L1048.4879,405.7369 L1038.4879,395.7369 L814.67,395.7369" fill="#FEFFDD" style="stroke:#181818;stroke-width:0.5;"/><path d="M1038.4879,395.7369 L1038.4879,405.7369 L1048.4879,405.7369 L1038.4879,395.7369" fill="#FEFFDD" style="stroke:#181818;stroke-width:1;"/><text fill="#000000" font-family="sans-serif" font-size="13" font-weight="bold" lengthAdjust="spacing" textLength="39.2666" x="825.1959" y="414.8038">Topic</text><text fill="#000000" font-family="sans-serif" font-size="13" font-weight="bold" lengthAdjust="spacing" textLength="21.6582" x="1002.0606" y="414.8038">Dir</text><text fill="#000000" font-family="sans-serif" font-size="13" lengthAdjust="spacing" textLength="143.5522" x="824.8023" y="429.9366">/camera_2/image_raw</text><text fill="#000000" font-family="sans-serif" font-size="13" lengthAdjust="spacing" textLength="13.5586" x="1001.6671" y="429.9366">IN</text><text fill="#000000" font-family="sans-serif" font-size="13" lengthAdjust="spacing" textLength="152.585" x="824.8023" y="445.0694">/camera_2/camera_info</text><text fill="#000000" font-family="sans-serif" font-size="13" lengthAdjust="spacing" textLength="13.5586" x="1001.6671" y="445.0694">IN</text><text fill="#000000" font-family="sans-serif" font-size="13" lengthAdjust="spacing" textLength="168.6001" x="824.8023" y="460.2022">/camera_2/tag_detections</text><text fill="#000000" font-family="sans-serif" font-size="13" lengthAdjust="spacing" textLength="27.6885" x="1001.6671" y="460.2022">OUT</text><line style="stroke:#000000;stroke-width:1;" x1="820.67" x2="1033.4879" y1="402.7369" y2="402.7369"/><line style="stroke:#000000;stroke-width:1;" x1="820.67" x2="1033.4879" y1="417.8697" y2="417.8697"/><line style="stroke:#000000;stroke-width:1;" x1="820.67" x2="1033.4879" y1="433.0025" y2="433.0025"/><line style="stroke:#000000;stroke-width:1;" x1="820.67" x2="1033.4879" y1="448.1353" y2="448.1353"/><line style="stroke:#000000;stroke-width:1;" x1="820.67" x2="1033.4879" y1="463.2681" y2="463.2681"/><line style="stroke:#000000;stroke-width:1;" x1="820.67" x2="820.67" y1="402.7369" y2="463.2681"/><line style="stroke:#000000;stroke-width:1;" x1="997.5347" x2="997.5347" y1="402.7369" y2="463.2681"/><line style="stroke:#000000;stroke-width:1;" x1="1033.4879" x2="1033.4879" y1="402.7369" y2="463.2681"/></g><g class="entity" data-qualified-name="GMN18" data-source-line="44" id="ent0019"><path d="M1122.95,327.5969 L1122.95,432.3937 L1356.7679,432.3937 L1356.7679,337.5969 L1346.7679,327.5969 L1122.95,327.5969" fill="#FEFFDD" style="stroke:#181818;stroke-width:0.5;"/><path d="M1346.7679,327.5969 L1346.7679,337.5969 L1356.7679,337.5969 L1346.7679,327.5969" fill="#FEFFDD" style="stroke:#181818;stroke-width:1;"/><text fill="#000000" font-family="sans-serif" font-size="13" font-weight="bold" lengthAdjust="spacing" textLength="39.2666" x="1133.4759" y="346.6638">Topic</text><text fill="#000000" font-family="sans-serif" font-size="13" font-weight="bold" lengthAdjust="spacing" textLength="21.6582" x="1310.3406" y="346.6638">Dir</text><text fill="#000000" font-family="sans-serif" font-size="13" lengthAdjust="spacing" textLength="168.6001" x="1133.0823" y="361.7966">/camera_1/tag_detections</text><text fill="#000000" font-family="sans-serif" font-size="13" lengthAdjust="spacing" textLength="13.5586" x="1309.9471" y="361.7966">IN</text><text fill="#000000" font-family="sans-serif" font-size="13" lengthAdjust="spacing" textLength="168.6001" x="1133.0823" y="376.9294">/camera_2/tag_detections</text><text fill="#000000" font-family="sans-serif" font-size="13" lengthAdjust="spacing" textLength="13.5586" x="1309.9471" y="376.9294">IN</text><text fill="#000000" font-family="sans-serif" font-size="13" lengthAdjust="spacing" textLength="14.0537" x="1133.0823" y="392.0622">/tf</text><text fill="#000000" font-family="sans-serif" font-size="13" lengthAdjust="spacing" textLength="13.5586" x="1309.9471" y="392.0622">IN</text><text fill="#000000" font-family="sans-serif" font-size="13" lengthAdjust="spacing" textLength="56.2466" x="1133.0823" y="407.195">/tf_static</text><text fill="#000000" font-family="sans-serif" font-size="13" lengthAdjust="spacing" textLength="13.5586" x="1309.9471" y="407.195">IN</text><text fill="#000000" font-family="sans-serif" font-size="13" lengthAdjust="spacing" textLength="109.3193" x="1133.0823" y="422.3278">/tag_global_pose</text><text fill="#000000" font-family="sans-serif" font-size="13" lengthAdjust="spacing" textLength="27.6885" x="1309.9471" y="422.3278">OUT</text><line style="stroke:#000000;stroke-width:1;" x1="1128.95" x2="1341.7679" y1="334.5969" y2="334.5969"/><line style="stroke:#000000;stroke-width:1;" x1="1128.95" x2="1341.7679" y1="349.7297" y2="349.7297"/><line style="stroke:#000000;stroke-width:1;" x1="1128.95" x2="1341.7679" y1="364.8625" y2="364.8625"/><line style="stroke:#000000;stroke-width:1;" x1="1128.95" x2="1341.7679" y1="379.9953" y2="379.9953"/><line style="stroke:#000000;stroke-width:1;" x1="1128.95" x2="1341.7679" y1="395.1281" y2="395.1281"/><line style="stroke:#000000;stroke-width:1;" x1="1128.95" x2="1341.7679" y1="410.2609" y2="410.2609"/><line style="stroke:#000000;stroke-width:1;" x1="1128.95" x2="1341.7679" y1="425.3937" y2="425.3937"/><line style="stroke:#000000;stroke-width:1;" x1="1128.95" x2="1128.95" y1="334.5969" y2="425.3937"/><line style="stroke:#000000;stroke-width:1;" x1="1305.8147" x2="1305.8147" y1="334.5969" y2="425.3937"/><line style="stroke:#000000;stroke-width:1;" x1="1341.7679" x2="1341.7679" y1="334.5969" y2="425.3937"/></g><g class="entity" data-qualified-name="GMN21" data-source-line="53" id="ent0022"><path d="M1451.92,250.5969 L1451.92,355.3937 L1653.2823,355.3937 L1653.2823,260.5969 L1643.2823,250.5969 L1451.92,250.5969" fill="#FEFFDD" style="stroke:#181818;stroke-width:0.5;"/><path d="M1643.2823,250.5969 L1643.2823,260.5969 L1653.2823,260.5969 L1643.2823,250.5969" fill="#FEFFDD" style="stroke:#181818;stroke-width:1;"/><text fill="#000000" font-family="sans-serif" font-size="13" font-weight="bold" lengthAdjust="spacing" textLength="39.2666" x="1462.4459" y="269.6638">Topic</text><text fill="#000000" font-family="sans-serif" font-size="13" font-weight="bold" lengthAdjust="spacing" textLength="21.6582" x="1588.9166" y="269.6638">Dir</text><text fill="#000000" font-family="sans-serif" font-size="13" lengthAdjust="spacing" textLength="84.062" x="1462.0523" y="284.7966">/wheel/odom</text><text fill="#000000" font-family="sans-serif" font-size="13" lengthAdjust="spacing" textLength="13.5586" x="1588.523" y="284.7966">IN</text><text fill="#000000" font-family="sans-serif" font-size="13" lengthAdjust="spacing" textLength="62.5562" x="1462.0523" y="299.9294">/imu/data</text><text fill="#000000" font-family="sans-serif" font-size="13" lengthAdjust="spacing" textLength="13.5586" x="1588.523" y="299.9294">IN</text><text fill="#000000" font-family="sans-serif" font-size="13" lengthAdjust="spacing" textLength="56.2466" x="1462.0523" y="315.0622">/tf_static</text><text fill="#000000" font-family="sans-serif" font-size="13" lengthAdjust="spacing" textLength="13.5586" x="1588.523" y="315.0622">IN</text><text fill="#000000" font-family="sans-serif" font-size="13" lengthAdjust="spacing" textLength="14.0537" x="1462.0523" y="330.195">/tf</text><text fill="#000000" font-family="sans-serif" font-size="13" lengthAdjust="spacing" textLength="45.627" x="1588.523" y="330.195">IN/OUT</text><text fill="#000000" font-family="sans-serif" font-size="13" lengthAdjust="spacing" textLength="118.2061" x="1462.0523" y="345.3278">/odometry/filtered</text><text fill="#000000" font-family="sans-serif" font-size="13" lengthAdjust="spacing" textLength="27.6885" x="1588.523" y="345.3278">OUT</text><line style="stroke:#000000;stroke-width:1;" x1="1457.92" x2="1638.2823" y1="257.5969" y2="257.5969"/><line style="stroke:#000000;stroke-width:1;" x1="1457.92" x2="1638.2823" y1="272.7297" y2="272.7297"/><line style="stroke:#000000;stroke-width:1;" x1="1457.92" x2="1638.2823" y1="287.8625" y2="287.8625"/><line style="stroke:#000000;stroke-width:1;" x1="1457.92" x2="1638.2823" y1="302.9953" y2="302.9953"/><line style="stroke:#000000;stroke-width:1;" x1="1457.92" x2="1638.2823" y1="318.1281" y2="318.1281"/><line style="stroke:#000000;stroke-width:1;" x1="1457.92" x2="1638.2823" y1="333.2609" y2="333.2609"/><line style="stroke:#000000;stroke-width:1;" x1="1457.92" x2="1638.2823" y1="348.3937" y2="348.3937"/><line style="stroke:#000000;stroke-width:1;" x1="1457.92" x2="1457.92" y1="257.5969" y2="348.3937"/><line style="stroke:#000000;stroke-width:1;" x1="1584.3907" x2="1584.3907" y1="257.5969" y2="348.3937"/><line style="stroke:#000000;stroke-width:1;" x1="1638.2823" x2="1638.2823" y1="257.5969" y2="348.3937"/></g><g class="entity" data-qualified-name="GMN24" data-source-line="62" id="ent0025"><path d="M1743.98,166.0369 L1743.98,169.1669 L1674.35,173.1669 L1743.98,177.1669 L1743.98,285.9666 A0,0 0 0 0 1743.98,285.9666 L1945.3423,285.9666 A0,0 0 0 0 1945.3423,285.9666 L1945.3423,176.0369 L1935.3423,166.0369 L1743.98,166.0369 A0,0 0 0 0 1743.98,166.0369" fill="#FEFFDD" style="stroke:#181818;stroke-width:0.5;"/><path d="M1935.3423,166.0369 L1935.3423,176.0369 L1945.3423,176.0369 L1935.3423,166.0369" fill="#FEFFDD" style="stroke:#181818;stroke-width:0.5;"/><text fill="#000000" font-family="sans-serif" font-size="13" font-weight="bold" lengthAdjust="spacing" textLength="39.2666" x="1754.5059" y="185.1038">Topic</text><text fill="#000000" font-family="sans-serif" font-size="13" font-weight="bold" lengthAdjust="spacing" textLength="21.6582" x="1880.9766" y="185.1038">Dir</text><text fill="#000000" font-family="sans-serif" font-size="13" lengthAdjust="spacing" textLength="84.062" x="1754.1123" y="200.2366">/wheel/odom</text><text fill="#000000" font-family="sans-serif" font-size="13" lengthAdjust="spacing" textLength="13.5586" x="1880.583" y="200.2366">IN</text><text fill="#000000" font-family="sans-serif" font-size="13" lengthAdjust="spacing" textLength="62.5562" x="1754.1123" y="215.3694">/imu/data</text><text fill="#000000" font-family="sans-serif" font-size="13" lengthAdjust="spacing" textLength="13.5586" x="1880.583" y="215.3694">IN</text><text fill="#000000" font-family="sans-serif" font-size="13" lengthAdjust="spacing" textLength="109.3193" x="1754.1123" y="230.5022">/tag_global_pose</text><text fill="#000000" font-family="sans-serif" font-size="13" lengthAdjust="spacing" textLength="13.5586" x="1880.583" y="230.5022">IN</text><text fill="#000000" font-family="sans-serif" font-size="13" lengthAdjust="spacing" textLength="56.2466" x="1754.1123" y="245.635">/tf_static</text><text fill="#000000" font-family="sans-serif" font-size="13" lengthAdjust="spacing" textLength="13.5586" x="1880.583" y="245.635">IN</text><text fill="#000000" font-family="sans-serif" font-size="13" lengthAdjust="spacing" textLength="14.0537" x="1754.1123" y="260.7678">/tf</text><text fill="#000000" font-family="sans-serif" font-size="13" lengthAdjust="spacing" textLength="45.627" x="1880.583" y="260.7678">IN/OUT</text><text fill="#000000" font-family="sans-serif" font-size="13" lengthAdjust="spacing" textLength="118.2061" x="1754.1123" y="275.9006">/odometry/filtered</text><text fill="#000000" font-family="sans-serif" font-size="13" lengthAdjust="spacing" textLength="27.6885" x="1880.583" y="275.9006">OUT</text><line style="stroke:#000000;stroke-width:0.5;" x1="1749.98" x2="1930.3423" y1="173.0369" y2="173.0369"/><line style="stroke:#000000;stroke-width:0.5;" x1="1749.98" x2="1930.3423" y1="188.1697" y2="188.1697"/><line style="stroke:#000000;stroke-width:0.5;" x1="1749.98" x2="1930.3423" y1="203.3025" y2="203.3025"/><line style="stroke:#000000;stroke-width:0.5;" x1="1749.98" x2="1930.3423" y1="218.4353" y2="218.4353"/><line style="stroke:#000000;stroke-width:0.5;" x1="1749.98" x2="1930.3423" y1="233.5681" y2="233.5681"/><line style="stroke:#000000;stroke-width:0.5;" x1="1749.98" x2="1930.3423" y1="248.7009" y2="248.7009"/><line style="stroke:#000000;stroke-width:0.5;" x1="1749.98" x2="1930.3423" y1="263.8337" y2="263.8337"/><line style="stroke:#000000;stroke-width:0.5;" x1="1749.98" x2="1930.3423" y1="278.9666" y2="278.9666"/><line style="stroke:#000000;stroke-width:0.5;" x1="1749.98" x2="1749.98" y1="173.0369" y2="278.9666"/><line style="stroke:#000000;stroke-width:0.5;" x1="1876.4507" x2="1876.4507" y1="173.0369" y2="278.9666"/><line style="stroke:#000000;stroke-width:0.5;" x1="1930.3423" x2="1930.3423" y1="173.0369" y2="278.9666"/></g><g class="entity" data-qualified-name="GMN27" data-source-line="72" id="ent0028"><path d="M2015.34,43.2969 L2015.34,68.9969 L1882.18,72.9969 L2015.34,76.9969 L2015.34,102.6953 A0,0 0 0 0 2015.34,102.6953 L2131.5612,102.6953 A0,0 0 0 0 2131.5612,102.6953 L2131.5612,53.2969 L2121.5612,43.2969 L2015.34,43.2969 A0,0 0 0 0 2015.34,43.2969" fill="#FEFFDD" style="stroke:#181818;stroke-width:0.5;"/><path d="M2121.5612,43.2969 L2121.5612,53.2969 L2131.5612,53.2969 L2121.5612,43.2969" fill="#FEFFDD" style="stroke:#181818;stroke-width:0.5;"/><text fill="#000000" font-family="sans-serif" font-size="13" font-weight="bold" lengthAdjust="spacing" textLength="39.2666" x="2025.8659" y="62.3638">Topic</text><text fill="#000000" font-family="sans-serif" font-size="13" font-weight="bold" lengthAdjust="spacing" textLength="21.6582" x="2090.3771" y="62.3638">Dir</text><text fill="#000000" font-family="sans-serif" font-size="13" lengthAdjust="spacing" textLength="14.0537" x="2025.4723" y="77.4966">/tf</text><text fill="#000000" font-family="sans-serif" font-size="13" lengthAdjust="spacing" textLength="13.5586" x="2089.9836" y="77.4966">IN</text><text fill="#000000" font-family="sans-serif" font-size="13" lengthAdjust="spacing" textLength="56.2466" x="2025.4723" y="92.6294">/tf_static</text><text fill="#000000" font-family="sans-serif" font-size="13" lengthAdjust="spacing" textLength="13.5586" x="2089.9836" y="92.6294">IN</text><line style="stroke:#000000;stroke-width:0.5;" x1="2021.34" x2="2116.5612" y1="50.2969" y2="50.2969"/><line style="stroke:#000000;stroke-width:0.5;" x1="2021.34" x2="2116.5612" y1="65.4297" y2="65.4297"/><line style="stroke:#000000;stroke-width:0.5;" x1="2021.34" x2="2116.5612" y1="80.5625" y2="80.5625"/><line style="stroke:#000000;stroke-width:0.5;" x1="2021.34" x2="2116.5612" y1="95.6953" y2="95.6953"/><line style="stroke:#000000;stroke-width:0.5;" x1="2021.34" x2="2021.34" y1="50.2969" y2="95.6953"/><line style="stroke:#000000;stroke-width:0.5;" x1="2085.8512" x2="2085.8512" y1="50.2969" y2="95.6953"/><line style="stroke:#000000;stroke-width:0.5;" x1="2116.5612" x2="2116.5612" y1="50.2969" y2="95.6953"/></g><!--link rsp to GMN9--><g class="link" data-entity-1="ent0002" data-entity-2="ent0010" data-link-type="association" data-source-line="24" id="lnk11"><path d="M199.09,510.7169 C270.15,510.7169 354.56,510.7169 354.56,510.7169 C354.56,510.7169 354.56,524.1569 354.56,538.0169" fill="none" id="rsp-GMN9" style="stroke:#181818;stroke-width:1;stroke-dasharray:7,7;"/></g><!--link apriltag_1 to GMN12--><g class="link" data-entity-1="ent0003" data-entity-2="ent0013" data-link-type="association" data-source-line="30" id="lnk14"><path d="M428.56,468.5469 C428.56,472.2769 428.56,474.7869 428.56,474.7869 C428.56,474.7869 467.2,474.7869 510.44,474.7869" fill="none" id="apriltag_1-GMN12" style="stroke:#181818;stroke-width:1;stroke-dasharray:7,7;"/></g><!--link apriltag_2 to GMN15--><g class="link" data-entity-1="ent0004" data-entity-2="ent0016" data-link-type="association" data-source-line="37" id="lnk17"><path d="M714.06,366.2169 C769.26,366.2169 830.56,366.2169 830.56,366.2169 C830.56,366.2169 830.56,380.1669 830.56,395.3169" fill="none" id="apriltag_2-GMN15" style="stroke:#181818;stroke-width:1;stroke-dasharray:7,7;"/></g><!--link observer to GMN18--><g class="link" data-entity-1="ent0005" data-entity-2="ent0019" data-link-type="association" data-source-line="44" id="lnk20"><path d="M931.56,326.5269 C931.56,329.8469 931.56,332.1469 931.56,332.1469 C931.56,332.1469 1035.65,332.1469 1122.86,332.1469" fill="none" id="observer-GMN18" style="stroke:#181818;stroke-width:1;stroke-dasharray:7,7;"/></g><!--link ekf_odom to GMN21--><g class="link" data-entity-1="ent0006" data-entity-2="ent0022" data-link-type="association" data-source-line="53" id="lnk23"><path d="M1361.65,231.9669 C1449.45,231.9669 1552.56,231.9669 1552.56,231.9669 C1552.56,231.9669 1552.56,239.7969 1552.56,250.2569" fill="none" id="ekf_odom-GMN21" style="stroke:#181818;stroke-width:1;stroke-dasharray:7,7;"/></g><!--link rsp to apriltag_1--><!--link apriltag_1 to apriltag_2--><!--link apriltag_2 to observer--><!--link observer to ekf_odom--><!--link ekf_odom to ekf_map--><!--link ekf_map to rviz--><g class="legend" data-source-line="10"><rect fill="#DDDDDD" height="42.5938" rx="7.5" ry="7.5" style="stroke:#000000;stroke-width:1;" width="410.5586" x="1702.0026" y="615.6953"/><text fill="#000000" font-family="sans-serif" font-size="14" lengthAdjust="spacing" textLength="296.1943" x="1707.0026" y="633.6904">Direction is from each node's perspective.</text><text fill="#000000" font-family="sans-serif" font-size="14" lengthAdjust="spacing" textLength="400.5586" x="1707.0026" y="649.9873">IN = subscribes/listens, OUT = publishes, IN/OUT = both.</text></g><?plantuml-src jLGxRzim4DxvAmvPqWArrMZfb4nT0XJfq7Hg2k4adIJ254cGb0C5_l4bzNRyB8fEFjvtzzsdUzXkkDHei0PROQvUkIoXG669sGdHc6smf1-k5GI6CeUo5Ci0mIMvLXCeuogr0AJAoPA6BvyNJeDoCpW55GwS0iFBoa7E0pbNaZ77dQ-L6Y-dqKdT2CUJ3Ekrm4PcrLgteCci0hrFrpoRSotph2N9l2TbNqS0k8N2g1e8iwfJTci3YzK1tzAQFJx1FTWcjPdXATb8SEj8sa_m_UUpHtIJUaz5tl7u5FM-LBbgpNorlYPZcQgraYGTt1ZbqSGwT9ICkUO6q8AlkGn4RRXmMBx8o7yZ6Kpkej7NnO-FvEvyMdmYBLwc1OTMbXALMZBRGTBuM4RIfaXKhkeN-Q7_5g4o5FmDGpkZW8OkVkponzZt-JNgQzDzw5xxjlmjxjlbBSQaSZGiYYgw5kxkuRaRlZVyc677TX2v0dRTm8PNDu0GCpZ3PWIgzuIB7X_bdIR3QtyBYS5NJ-atPXyS32uBTGmE_3cvOLElrnIVrHIVqnIVrnJ_hQPfKSvtwO3rSjqneflW_9W7EFbyPYbKYg9Rv8kIfzqyAlcr8X9Hm1SbUDr4EJgyfAIN6atx5cZ8cJOg_E38K7wLkB3v_wRje2F_MNLtagVlxsJrcUyMlc6h6WSLYV0l34gATityNSFgLyNpdEJlrSFoB6VpU4GyHyHx4TFAZiOUEct7Q1oWOJp3xnxMDU4F?></g></svg>